<?xml version="1.0" encoding="UTF-8" standalone="no"?>
<!-- Created with Inkscape (http://www.inkscape.org/) -->

<svg
   xmlns:dc="http://purl.org/dc/elements/1.1/"
   xmlns:cc="http://creativecommons.org/ns#"
   xmlns:rdf="http://www.w3.org/1999/02/22-rdf-syntax-ns#"
   xmlns:svg="http://www.w3.org/2000/svg"
   xmlns="http://www.w3.org/2000/svg"
   xmlns:sodipodi="http://sodipodi.sourceforge.net/DTD/sodipodi-0.dtd"
   xmlns:inkscape="http://www.inkscape.org/namespaces/inkscape"
   version="1.0"
   width="646.96997"
   height="646.96997"
   viewBox="0 0 646.96998 646.96996"
   id="Layer_1"
   xml:space="preserve"
   inkscape:version="0.48.4 r9939"
   sodipodi:docname="1195426191155951028Gerald_G_SPY1.svg"><sodipodi:namedview
   pagecolor="#ffffff"
   bordercolor="#666666"
   borderopacity="1"
   objecttolerance="10"
   gridtolerance="10"
   guidetolerance="10"
   inkscape:pageopacity="0"
   inkscape:pageshadow="2"
   inkscape:window-width="895"
   inkscape:window-height="596"
   id="namedview65"
   showgrid="false"
   inkscape:zoom="0.36477678"
   inkscape:cx="151.64326"
   inkscape:cy="324.17453"
   inkscape:window-x="382"
   inkscape:window-y="320"
   inkscape:window-maximized="0"
   inkscape:current-layer="Layer_1" /><defs
   id="defs124" />

<metadata
   id="metadata4">
<rdf:RDF>
      <cc:Work
   rdf:about="">
         <dc:title>Secret Agent</dc:title>
         <dc:description>Secret Agent Cartoon</dc:description>
         <dc:subject>
          <rdf:Bag>
            <rdf:li>people</rdf:li>
            <rdf:li>spy</rdf:li>
	      <rdf:li>agent</rdf:li>
	      <rdf:li>cartoon</rdf:li>
          </rdf:Bag>
         </dc:subject>
         <dc:publisher><cc:Agent
     rdf:about="http://www.openclipart.org/"><dc:title>Open Clip Art Project</dc:title></cc:Agent></dc:publisher>
         <dc:creator><cc:Agent
     rdf:about=""><dc:title>Gerald G.</dc:title></cc:Agent></dc:creator>
         <dc:rights><cc:Agent
     rdf:about="http://web.resource.org/cc/PublicDomain"><dc:title>Public Domain</dc:title></cc:Agent></dc:rights>
         <dc:date>2006/09/25</dc:date>
         <dc:format>image/svg+xml</dc:format>
         <dc:type
   rdf:resource="http://purl.org/dc/dcmitype/StillImage">http://purl.org/dc/dcmitype/StillImage</dc:type>
         <cc:license
   rdf:resource="http://web.resource.org/cc/PublicDomain" />
      </cc:Work>
      <cc:License
   rdf:about="http://web.resource.org/cc/PublicDomain">
         <cc:permits
   rdf:resource="http://web.resource.org/cc/Reproduction" />
         <cc:permits
   rdf:resource="http://web.resource.org/cc/Distribution" />
         <cc:permits
   rdf:resource="http://web.resource.org/cc/DerivativeWorks" />
      </cc:License>
   </rdf:RDF>
</metadata>

<path
   d="m 338.69677,514.49302 c 2.448,12.421 4.067,24.948 5.147,38.16 0.937,13.177 0.217,31.788 0.9,40.284 0.612,8.244 0.144,7.524 3.023,9.36 2.809,1.764 7.309,2.268 13.645,1.512 l 0,0 c -2.88,10.944 -2.88,18.864 0,24.3 2.916,5.328 12.276,7.813 17.244,7.597 4.824,-0.288 8.712,-3.276 11.808,-9.108 l 0,0 c 5.94,2.7 12.96,5.688 21.492,9.108 8.496,3.384 19.908,10.403 29.088,11.195 9.072,0.576 25.488,-3.888 24.804,-7.271 -1.08,-3.492 -22.68,-7.74 -29.951,-13.032 -7.129,-5.437 -7.668,-13.536 -12.744,-18.468 -5.256,-5.004 -11.16,-8.496 -18.145,-10.908 l 0,0 c 0.252,2.592 0,-0.432 -0.611,-9.36 -0.721,-9.144 -0.685,-30.815 -3.349,-43.92 -2.735,-13.104 -6.876,-23.976 -12.708,-33.588 l 0,0 c -16.523,1.368 -33.083,2.736 -49.643,4.139 l 0,0 z"
   style="fill-rule:evenodd;stroke:#000000;stroke-width:0.036;stroke-miterlimit:10"
   id="path5"
   inkscape:connector-curvature="0" />
<path
   d="m 214.85677,515.64502 c 0.216,6.552 -1.044,14.4 -3.636,24.229 -2.664,9.827 -6.66,20.808 -12.132,33.911 l 0,0 1.836,14.509 0,0 c -5.256,8.208 -8.532,14.796 -9.684,20.304 -1.224,5.4 0.36,6.516 2.412,12.096 2.088,5.508 6.516,16.236 9.396,20.664 2.592,4.176 3.384,4.356 6.66,4.86 3.24,0.54 8.496,1.08 12.996,-1.836 4.392,-3.204 12.276,-11.521 13.932,-16.344 1.476,-4.824 -3.96,-7.381 -4.212,-12.097 -0.216,-4.859 0.792,-10.116 3.024,-16.344 l 0,0 c 1.836,0.756 4.356,1.26 7.56,1.512 3.24,0.252 6.948,0.252 11.52,0 l 0,0 c 3.42,-10.691 6.696,-22.212 9.972,-35.136 3.204,-12.924 6.336,-26.712 9.396,-41.796 l 0,0 c -19.656,-2.843 -39.348,-5.688 -59.04,-8.532 l 0,0 z"
   style="fill-rule:evenodd;stroke:#000000;stroke-width:0.036;stroke-miterlimit:10"
   id="path7"
   inkscape:connector-curvature="0" />
<path
   d="m 217.59277,521.15302 c -0.576,9.145 -2.052,17.893 -4.572,26.641 -2.628,8.748 -6.012,17.1 -10.584,25.452 l 0,0 c 6.768,4.212 14.292,7.487 23.004,9.972 8.712,2.412 18.072,3.888 28.764,4.572 l 0,0 c 4.932,-9.108 6.804,-14.616 5.76,-16.381 -1.152,-1.871 -11.16,5.832 -12.096,5.473 -0.936,-0.648 8.676,-6.66 6.336,-8.172 -2.484,-1.477 -21.852,0.18 -21.168,-0.324 0.648,-0.612 19.656,-1.44 24.804,-3.024 4.896,-1.62 3.348,-0.647 5.472,-6.947 2.232,-6.48 4.572,-16.849 7.56,-31.5 l 0,0 c -17.748,-1.909 -35.496,-3.817 -53.28,-5.762 l 0,0 z"
   style="fill:#a16121;fill-rule:evenodd;stroke:#000000;stroke-width:0.036;stroke-miterlimit:10"
   id="path9"
   inkscape:connector-curvature="0" />
<path
   d="m 201.21277,575.65702 c 1.152,2.484 5.868,5.005 14.832,7.561 8.928,2.52 21.42,5.004 38.16,7.596 l 0,0 -2.412,8.784 0,0 c -4.032,0.396 -10.044,-0.36 -18.18,-2.124 -8.208,-1.872 -18.252,-4.752 -30.564,-8.784 l 0,0 c -0.612,-4.32 -1.224,-8.676 -1.836,-13.033 l 0,0 z"
   style="fill:#a16121;fill-rule:evenodd;stroke:#000000;stroke-width:0.036;stroke-miterlimit:10"
   id="path11"
   inkscape:connector-curvature="0" />
<path
   d="m 342.62077,525.72602 c 0.9,3.888 1.656,10.296 2.412,19.368 0.684,9.107 1.296,20.484 1.836,34.812 l 0,0 c 7.344,1.296 13.104,2.412 17.568,3.637 4.355,1.151 2.556,2.304 8.783,3.312 6.265,0.864 15.553,1.62 28.44,2.124 l 0,0 -3.024,-39.96 0,0 c -5.436,3.313 -8.315,4.824 -8.784,4.536 -0.504,-0.36 6.877,-3.636 6.049,-6.336 -0.973,-2.809 -11.412,-9.288 -11.484,-10.008 -0.18,-0.792 9.145,6.3 10.908,5.436 1.691,-1.008 0.288,-7.271 -0.324,-10.872 -0.756,-3.672 -1.836,-7.308 -3.636,-10.908 l 0,0 c -4.896,0.721 -11.16,1.656 -19.368,2.412 -8.244,0.863 -17.892,1.546 -29.376,2.447 l 0,0 z"
   style="fill:#a16121;fill-rule:evenodd;stroke:#000000;stroke-width:0.036;stroke-miterlimit:10"
   id="path13"
   inkscape:connector-curvature="0" />
<path
   d="m 348.09277,583.54202 c 6.912,0.863 12.564,1.872 17.244,3.023 4.5,1.08 4.32,2.844 10.296,3.636 6.084,0.757 14.437,1.009 25.74,0.9 l 0,0 -0.324,6.66 0,0 c -14.58,-0.145 -25.596,0.108 -33.588,0.612 -8.028,0.504 -12.492,1.26 -13.932,2.411 l 0,0 c -2.124,0.288 -3.637,-1.115 -4.536,-3.924 -0.972,-2.986 -1.225,-7.234 -0.9,-13.318 l 0,0 z"
   style="fill:#a16121;fill-rule:evenodd;stroke:#000000;stroke-width:0.036;stroke-miterlimit:10"
   id="path15"
   inkscape:connector-curvature="0" />
<path
   d="m 400.47177,621.77302 c 1.944,-1.836 13.212,-4.968 15.732,-3.96 2.376,0.937 -4.284,7.416 -1.224,9.72 3.06,2.16 15.731,1.837 19.403,3.601 3.456,1.764 -0.107,5.292 1.8,6.983 1.908,1.477 9.576,1.765 9.685,2.412 -0.072,0.685 -5.292,2.664 -9.685,1.513 -4.428,-1.261 -11.411,-6.876 -16.668,-9.072 -5.436,-2.34 -11.951,-2.736 -15.119,-4.536 -3.203,-1.981 -5.939,-4.896 -3.924,-6.661 l 0,0 z"
   style="fill:#404040;fill-rule:evenodd;stroke:#000000;stroke-width:0.036;stroke-miterlimit:10"
   id="path17"
   inkscape:connector-curvature="0" />
<path
   d="m 196.38877,611.15302 c 0.288,4.824 4.788,23.148 7.272,26.353 2.376,2.844 6.732,-6.588 6.66,-8.46 -0.324,-1.872 -7.164,-1.116 -7.884,-2.448 -0.756,-1.512 3.6,-4.5 3.636,-6.048 -0.108,-1.62 -2.988,-1.477 -3.636,-3.313 -0.648,-1.907 0.648,-6.947 -0.288,-7.884 -1.188,-1.043 -5.976,-2.988 -5.76,1.8 l 0,0 z"
   style="fill:#404040;fill-rule:evenodd;stroke:#000000;stroke-width:0.036;stroke-miterlimit:10"
   id="path19"
   inkscape:connector-curvature="0" />
<path
   d="m 286.24477,101.21402 c -7.092,2.52 -12.996,5.076 -18.144,7.956 -5.148,2.844 -9.252,5.724 -12.456,8.928 l 0,0 c -0.36,1.152 -0.252,2.52 0.324,3.816 0.576,1.26 1.404,2.736 2.88,4.14 l 0,0 -9.9,21.06 0,0 c -7.884,1.764 -15.3,4.212 -22.932,7.632 -7.632,3.384 -14.94,7.488 -22.32,12.456 l 0,0 c -1.764,0.252 -3.096,3.6 -4.14,10.188 -1.08,6.516 -1.116,23.22 -1.908,29.016 -0.864,5.652 -1.224,2.916 -2.88,5.4 -1.8,2.52 -5.904,5.832 -7.308,9.252 -1.368,3.276 -0.576,4.032 -0.972,10.188 -0.648,6.084 -1.944,20.484 -2.232,26.136 -0.288,5.544 -0.072,7.812 0.648,6.948 l 0,0 c -4.392,3.384 -7.308,6.156 -8.604,8.604 -1.368,2.268 -0.972,0.756 0.612,5.724 1.512,5.076 5.4,19.44 8.604,24.228 3.132,4.536 5.94,2.736 10.224,3.492 4.212,0.684 9.576,1.872 14.976,0.648 5.292,-1.26 8.64,-4.068 16.56,-8.28 7.92,-4.284 17.784,-9.972 30.276,-17.208 l 0,0 3.852,10.836 0,0 c -1.08,0.936 -1.728,2.484 -2.232,4.788 -0.504,2.376 -0.72,6.192 -0.648,8.928 -0.036,2.52 0.18,4.644 0.648,6.372 l 0,0 c -3.204,14.688 -7.704,32.76 -14.04,55.188 -6.408,22.464 -17.46,57.853 -23.58,78.12 -6.228,20.016 -9.648,30.888 -12.744,41.652 -3.06,10.656 -4.824,17.892 -5.436,21.996 l 0,0 3.204,9.576 0,-10e-4 c 0.468,0.253 2.232,0.757 5.724,1.908 3.42,1.08 8.172,3.168 14.652,4.464 6.336,1.116 15.624,1.692 23.292,2.557 7.488,0.899 14.04,1.62 21.996,2.556 7.992,0.756 16.308,1.729 25.488,2.521 l 0,0 c 1.152,-0.288 2.628,-3.42 4.14,-9.54 1.476,-6.192 3.276,-15.084 5.112,-27.108 l 0,0 c 0.612,3.708 1.152,7.704 1.908,12.132 0.72,4.428 1.368,9.108 2.232,14.328 l 0,0 c 13.536,2.232 26.496,3.204 39.852,3.204 13.32,-0.108 26.064,-1.188 39.204,-3.528 l 0,0 10.188,-7.632 0,0 c 1.116,0.36 1.584,-5.4 1.26,-17.855 -0.36,-12.492 -1.368,-31.104 -3.168,-56.412 l 0,0 c 8.064,0.756 14.868,1.151 20.7,1.044 5.796,-0.072 9.828,-0.288 14.04,-1.62 4.032,-1.548 7.596,-4.572 10.836,-6.984 3.24,-2.376 6.3,-3.996 8.604,-7.344 2.232,-3.564 3.456,-7.704 4.788,-13.392 1.225,-5.796 1.8,-13.86 2.557,-20.7 0.684,-6.948 1.728,-14.616 1.584,-20.088 -0.252,-5.688 -0.145,-9.756 -3.168,-12.744 -3.24,-2.844 -11.881,-3.636 -15.624,-4.464 -3.816,-0.937 -5.904,-1.261 -6.696,-0.973 l 0,0 0.936,-4.788 0,0 c 0.576,0.576 1.08,0.469 1.908,-0.323 0.685,-0.864 0.612,0.936 2.557,-4.464 1.979,-5.58 3.672,-13.645 9.252,-28.369 5.508,-14.904 19.151,-44.388 23.579,-59.58 4.248,-15.12 1.801,-23.184 2.232,-30.6 0.468,-7.452 0.72,-10.584 0.324,-13.716 -0.576,-3.276 -1.692,-3.636 -3.492,-5.4 -1.872,-1.836 -5.724,-1.152 -7.668,-5.436 -2.052,-4.392 -3.313,-15.912 -4.464,-20.412 -1.188,-4.572 -0.648,-4.86 -2.557,-6.696 -2.016,-1.836 -6.155,-1.512 -9.216,-4.428 -3.204,-3.096 -4.896,-9.036 -9.252,-13.788 -4.464,-4.86 -11.52,-11.556 -16.596,-14.688 -5.112,-3.24 -5.724,-2.448 -13.356,-4.14 -7.739,-1.728 -18.252,-3.744 -32.22,-6.048 l 0,0 17.856,-13.068 0,0 c -3.637,-4.536 -6.517,-8.208 -8.929,-11.16 -2.411,-2.952 -2.916,-5.076 -5.399,-6.371999 -2.628,-1.368 -5.004,-1.548 -9.9,-1.908 -5.004,-0.504 -5.58,-1.224 -19.764,-0.648 -14.4,0.539 -35.964,1.799 -65.664,3.922999 l 0,0 z m 124.308,115.056 c -2.412,7.668 -4.607,15.444 -6.983,23.904 -2.412,8.352 -5.256,17.712 -7.021,26.136 -1.943,8.316 -2.952,17.424 -3.852,23.58 -0.937,6.12 -1.225,10.188 -1.26,12.744 l 0,0 c 2.556,1.152 4.428,1.368 5.76,0.648 1.26,-0.756 0.647,-2.412 1.908,-5.112 1.115,-2.916 1.296,-4.248 5.399,-11.772 4.141,-7.74 10.332,-18.576 19.116,-33.48 l 0,0 c -2.988,-7.56 -5.437,-14.256 -7.632,-20.376 -2.195,-6.192 -3.959,-11.521 -5.435,-16.272 l 0,0 z m -24.516,107.639 4.752,-1.908 -4.14,7.668 -0.612,-5.76 0,0 z"
   style="fill-rule:evenodd;stroke:#000000;stroke-width:0.036;stroke-miterlimit:10"
   id="path21"
   inkscape:connector-curvature="0" />
<path
   d="m 284.66077,103.98602 c -2.664,0.684 -5.652,1.728 -9.252,3.528 -3.672,1.728 -9.18,4.608 -12.096,6.696 -2.952,1.836 -4.896,3.528 -5.436,5.076 -0.612,1.584 0.072,3.024 1.908,4.464 l 0,0 3.204,-5.724 0,0 c 2.304,-0.036 4.428,0.396 6.372,1.584 1.836,1.188 3.672,3.024 5.112,5.112 1.296,1.944 2.484,4.644 3.168,6.696 0.612,1.944 0.828,3.636 0.648,5.076 l 0,0 -3.492,6.084 0,0 c 1.548,-0.504 3.564,-1.044 6.048,-1.62 2.412,-0.72 7.452,-2.376 8.604,-1.908 1.116,0.396 -0.216,1.116 -1.908,4.788 -1.872,3.672 -4.716,9.36 -8.928,17.208 l 0,0 c 0.828,3.132 1.979,5.976 3.168,8.928 1.152,2.916 2.628,5.544 4.14,8.28 l 0,0 c 3.06,2.088 6.48,4.644 10.548,7.668 3.96,2.988 9.9,7.632 13.356,10.188 3.348,2.34 2.988,3.132 6.696,4.464 3.672,1.296 8.532,2.7 15.012,3.816 l 0,0 c -5.076,-8.64 -9.072,-15.264 -12.132,-20.7 -3.06,-5.364 -5.076,-6.912 -6.048,-11.16 -1.116,-4.356 -1.224,-9.144 -0.324,-14.652 l 0,0 -17.856,-46.224 0,0 c -3.492,-2.556 -6.984,-5.113 -10.512,-7.668 l 0,0 z"
   style="fill:#808080;fill-rule:evenodd;stroke:#000000;stroke-width:0.036;stroke-miterlimit:10"
   id="path23"
   inkscape:connector-curvature="0" />
<path
   d="m 321.95677,183.04102 7.632,-16.56 0,0 c 0.72,1.728 2.484,3.852 5.437,6.372 2.987,2.52 6.84,5.292 12.096,8.604 l 0,0 c 0.72,-2.088 1.368,-5.328 2.231,-9.576 0.828,-4.356 1.585,-9.72 2.557,-16.236 l 0,0 -35.388,3.168 0,0 c -1.296,4.068 -1.548,8.064 -0.612,12.132 0.971,3.996 2.807,8.029 6.047,12.096 l 0,0 z"
   style="fill:#ffffff;fill-rule:evenodd;stroke:#000000;stroke-width:0.036;stroke-miterlimit:10"
   id="path25"
   inkscape:connector-curvature="0" />
<path
   d="m 339.48877,204.06502 c 9.756,-8.136 17.027,-14.544 22.644,-19.764 5.473,-5.184 5.256,-4.86 10.188,-11.124 4.896,-6.408 10.979,-15.192 18.792,-26.784 l 0,0 c -4.824,-3.42 -8.568,-6.084 -11.772,-8.28 -3.24,-2.268 -6.695,-2.988 -7.02,-4.788 -0.252,-1.872 1.728,-3.42 5.111,-6.048 3.204,-2.736 8.028,-5.904 14.328,-9.9 l 0,0 c -3.384,-4.932 -6.084,-8.604 -7.956,-11.16 -1.907,-2.592 -0.54,-3.276 -3.527,-4.14 -3.168,-0.972 -8.064,-1.296 -14.977,-1.26 l 0,0 c -1.655,17.28 -3.672,31.572 -6.048,43.992 -2.448,12.24 -5.904,21.636 -8.28,29.304 -2.411,7.632 -4.248,11.16 -6.084,16.272 -1.943,5.041 -3.743,9.468 -5.399,13.68 l 0,0 z"
   style="fill:#808080;fill-rule:evenodd;stroke:#000000;stroke-width:0.036;stroke-miterlimit:10"
   id="path27"
   inkscape:connector-curvature="0" />
<path
   d="m 279.54877,45.917021 c 0.936,-7.38 2.592,-13.788 5.112,-19.764 2.448,-6.084 6.336,-11.196 9.864,-15.624 3.492,-4.392 7.02,-7.848 10.872,-10.512 l 0,0 c 3.6,0.432 6.768,1.404 10.188,2.52 3.312,1.152 6.444,4.032 9.54,4.464 2.916,0.252 3.96,-1.332 7.992,-2.232 3.96,-0.864 9.036,-2.016 15.624,-3.168 l 0,0 c 1.943,1.404 4.14,5.544 6.983,12.42 2.809,6.912 5.868,16.344 9.576,28.692 l 0,0 c 7.164,1.584 12.744,3.168 16.884,4.464 4.141,1.188 6.877,2.304 7.668,3.492 0.54,1.224 -1.476,2.771 -3.815,3.528 -2.412,0.612 -5.688,0.72 -10.224,0.324 l 0,0 -6.984,5.724 0.612,6.048 0,0 c 3.132,1.62 5.76,3.456 8.279,5.112 2.484,1.62 5.725,3.456 6.408,5.112 0.468,1.62 -0.792,2.484 -3.204,5.076 -2.483,2.592 -6.264,5.868 -11.483,10.224 l 0,0 c -0.181,7.128 -0.469,14.255999 -1.261,21.959999 -0.756,7.632 -1.403,14.904 -3.204,23.616 -1.871,8.568 -4.571,17.712 -7.955,27.72 l 0,0 c -4.284,2.88 -9.864,4.644 -16.885,5.436 -7.056,0.72 -15.408,0.396 -25.2,-0.972 l 0,0 c -4.212,-3.564 -7.848,-8.316 -11.484,-14.652 -3.744,-6.372 -7.308,-15.876 -9.864,-22.968 -2.52,-7.092 -4.176,-13.572 -5.112,-19.44 l 0,0 c -6.3,-3.42 -10.764,-6.192 -13.68,-8.604 -2.916,-2.376 -4.788,-2.664 -3.528,-5.723999 1.224,-3.312 4.788,-7.596 10.836,-13.392 l 0,0 c -1.26,-7.092 -1.98,-13.068 -2.556,-18.504 -0.612,-5.436 -0.684,-9.9 -0.612,-13.68 l 0,0 c -2.268,0.036 -4.932,0 -7.992,0.288 -3.204,0.145 -10.224,1.584 -10.512,0.972 -0.324,-0.684 5.328,-3.528 8.604,-4.788 3.205,-1.295 6.661,-2.447 10.513,-3.168 l 0,0 z"
   style="fill-rule:evenodd;stroke:#000000;stroke-width:0.036;stroke-miterlimit:10"
   id="path29"
   inkscape:connector-curvature="0" />
<path
   d="m 360.83677,32.850021 c -0.864,-3.564 -2.196,-7.668 -4.14,-12.456 -2.017,-4.824 -4.464,-10.188 -7.632,-16.236 l 0,0 c -3.996,0.504 -7.633,1.152 -11.484,2.232 -3.888,1.08 -7.884,3.6 -11.16,3.816 -3.384,-0.036 -4.716,-2.124 -8.28,-3.492 -3.528,-1.332 -7.776,-3.06 -12.744,-4.788 l 0,0 c -6.012,6.12 -10.404,11.196 -13.716,15.624 -3.276,4.356 -4.176,5.688 -5.76,10.512 -1.62,4.752 -3.096,10.656 -4.14,17.856 l 0,0 c 5.76,-1.044 12.924,-1.764 22.32,-2.556 9.36,-0.864 23.004,-1.728 33.156,-1.908 9.973,-0.18 18.648,0.18 26.46,0.936 l 0,0 c -0.936,-3.168 -1.909,-6.336 -2.88,-9.54 l 0,0 z"
   style="fill:#808080;fill-rule:evenodd;stroke:#000000;stroke-width:0.036;stroke-miterlimit:10"
   id="path31"
   inkscape:connector-curvature="0" />
<path
   d="m 282.42877,33.786021 c 8.676,-1.692 17.928,-2.52 28.044,-2.88 10.044,-0.36 23.868,0.144 32.184,0.972 8.28,0.756 13.896,1.872 17.244,3.492 l 0,0 c -6.66,-1.188 -13.752,-1.836 -21.708,-2.232 -8.028,-0.504 -16.488,-0.504 -25.813,0 -9.396,0.576 -19.188,1.512 -29.952,3.204 l 0,0 c 10e-4,-0.828 10e-4,-1.693 10e-4,-2.556 l 0,0 z"
   style="fill-rule:evenodd;stroke:#000000;stroke-width:0.036;stroke-miterlimit:10"
   id="path33"
   inkscape:connector-curvature="0" />
<path
   d="m 281.78077,45.594021 11.16,-1.296 0,0 c 0.756,-4.536 2.16,-9 3.816,-13.392 1.62,-4.428 3.708,-8.784 6.408,-13.068 2.736,-4.392 5.976,-8.748 9.864,-13.068 l 0,0 -7.021,-3.168 0,0 c -3.42,3.06 -6.66,6.516 -9.864,10.512 -3.312,3.996 -6.948,8.64 -9.252,13.392 -2.268,4.608 -3.708,10.872 -4.464,14.328 -0.899,3.348 -1.115,5.22 -0.647,5.76 l 0,0 z"
   style="opacity:0.5;fill-rule:evenodd"
   id="path35"
   inkscape:connector-curvature="0" />
<path
   d="m 355.72377,48.762021 c -6.659,-0.396 -13.14,-0.468 -19.439,-0.612 -6.408,-0.18 -12.564,-0.36 -18.468,0 -6.084,0.36 -11.592,0.864 -17.208,1.908 l 0,0 c -0.756,0.18 -1.836,1.512 -3.528,4.14 -1.656,2.628 -3.78,6.408 -6.372,11.484 l 0,0 c -1.08,-1.008 -1.62,-2.34 -1.908,-4.14 -0.288,-1.836 -0.18,-4.068 0.324,-6.696 l 0,0 c -1.98,3.06 -3.312,6.012 -4.14,9.54 -0.9,3.492 -0.792,7.2 -0.648,10.836 0.072,3.492 0.504,6.696 1.296,9.9 l 0,0 c -1.548,0.612 -3.312,2.052 -5.436,4.464 -2.16,2.412 -4.608,5.652 -7.344,9.864 l 0,0 c 1.08,0.755999 3.06,2.087999 6.084,4.139999 3.024,1.98 6.804,4.644 11.772,7.992 l 0,0 c 1.368,5.76 3.024,11.412 5.112,17.532 1.98,5.976 3.96,12.132 7.344,18.468 3.42,6.228 7.488,12.6 12.744,19.116 l 0,0 c 5.544,1.584 11.592,2.124 18.144,1.62 6.517,-0.576 13.536,-2.124 21.061,-4.788 l 0,0 c 3.132,-8.64 5.544,-18.792 7.632,-30.6 2.016,-11.916 3.924,-28.224 4.464,-40.175999 0.432,-12.061 -0.252,-22.392 -1.908,-31.536 l 0,0 c -3.563,2.736 -6.804,5.652 -9.863,8.892 -3.061,3.168 -5.832,8.1 -8.316,10.224 -2.628,2.016 -4.824,2.808 -6.984,2.232 l 0,0 c 1.404,3.78 2.196,6.408 2.521,8.28 0.324,1.656 0.288,0.756 -0.937,2.556 -1.403,1.836 -5.147,7.343999 -7.344,8.603999 -2.376,1.116 -4.32,-0.468 -6.372,-1.296 -2.16,-0.791999 -4.968,-1.907999 -6.048,-3.491999 -1.152,-1.728 -1.548,-2.016 -0.648,-6.696 0.828,-4.86 2.592,-12.096 5.436,-21.996 l 0,0 c -4.428,2.952 -8.532,6.264 -12.456,10.224 -3.96,3.888 -7.668,10.692 -11.124,13.068 -3.744,2.196 -8.352,2.772 -10.224,0.612 -1.728,-2.232 -0.864,-8.784 -0.612,-13.392 0.072,-4.68 0.54,-9.36 1.26,-14.328 l 0,0 c 11.34,-4.608 22.032,-8.172 32.508,-10.836 10.438,-2.7 20.122,-4.356 29.625,-5.112 l 0,0 z"
   style="fill:#ffc080;fill-rule:evenodd;stroke:#000000;stroke-width:0.036;stroke-miterlimit:10"
   id="path37"
   inkscape:connector-curvature="0" />
<path
   d="m 284.33677,102.65402 c -0.648,0.108 -4.86,-2.268 -5.4,-3.527999 -0.468,-1.404 1.116,-3.204 2.52,-4.14 1.296,-0.972 3.888,-2.916 5.436,-1.26 1.476,1.584 3.564,10.619999 3.492,11.159999 -0.216,0.432 -3.096,-6.911999 -4.464,-7.991999 -1.44,-1.152 -3.924,0.252 -4.14,1.296 -0.252,0.972 2.916,4.210999 2.556,4.463999 l 0,0 z"
   style="fill-rule:evenodd;stroke:#000000;stroke-width:0.036;stroke-miterlimit:10"
   id="path39"
   inkscape:connector-curvature="0" />
<path
   d="m 328.00477,116.33302 c -4.572,1.152 -7.488,2.016 -8.604,2.88 -1.152,0.792 1.188,1.152 1.584,1.908 0.252,0.72 -0.576,1.692 0,2.232 0.576,0.396 1.404,0.828 2.88,0.324 1.296,-0.648 2.844,-1.872 4.788,-3.816 l 0,0 c 1.188,1.944 2.52,3.636 4.14,5.076 1.548,1.476 3.348,2.556 5.4,3.528 l 0,0 c 0.144,-1.332 0.575,-2.556 1.296,-3.816 0.684,-1.368 2.987,-2.916 2.88,-3.528 -0.288,-0.612 -2.736,-0.468 -3.853,0 -1.008,0.396 -1.979,1.044 -2.52,2.232 l 0,0 c -0.864,-1.62 -1.836,-2.952 -3.204,-4.14 -1.404,-1.259 -2.951,-2.088 -4.787,-2.88 l 0,0 z"
   style="fill-rule:evenodd;stroke:#000000;stroke-width:0.036;stroke-miterlimit:10"
   id="path41"
   inkscape:connector-curvature="0" />
<path
   d="m 324.51277,145.67402 c 2.052,1.872 4.392,2.592 7.02,2.556 2.628,-0.18 5.399,-1.116 8.604,-3.204 l 0,0 c -1.151,1.584 -1.979,3.276 -2.88,4.788 -0.936,1.476 -1.548,3.06 -2.231,4.464 l 0,0 c -2.305,-0.864 -4.32,-2.124 -6.049,-3.492 -1.764,-1.404 -3.204,-3.204 -4.464,-5.112 l 0,0 z"
   style="fill-rule:evenodd;stroke:#000000;stroke-width:0.036;stroke-miterlimit:10"
   id="path43"
   inkscape:connector-curvature="0" />
<path
   d="m 370.41277,68.850021 c 5.58,2.7 8.928,5.148 10.188,7.344 1.225,2.052 -1.224,3.78 -2.88,5.724 -1.764,1.944 -4.355,3.96 -7.632,6.048 l 0,0 c 0.145,-4.968 0.252,-8.856 0.324,-12.096 0.036,-3.24 0.036,-5.58 0,-7.02 l 0,0 z"
   style="fill:#ffc080;fill-rule:evenodd;stroke:#000000;stroke-width:0.036;stroke-miterlimit:10"
   id="path45"
   inkscape:connector-curvature="0" />
<path
   d="m 371.34777,75.222021 4.465,-0.612 0,0 c 1.584,0.54 2.124,1.729 1.619,3.168 -0.575,1.44 -2.124,3.348 -4.787,5.724 l 0,0 c 0.396,-1.332 0.504,-2.844 0.323,-4.14 -0.251,-1.332 -0.791,-2.844 -1.62,-4.14 l 0,0 z"
   style="fill-rule:evenodd;stroke:#000000;stroke-width:0.036;stroke-miterlimit:10"
   id="path47"
   inkscape:connector-curvature="0" />
<path
   d="m 358.92877,49.733021 c -6.516,0.54 -13.248,1.836 -20.735,3.492 -7.561,1.656 -16.776,4.392 -23.904,6.696 -7.2,2.196 -13.32,4.428 -18.792,6.696 l 0,0 c -0.612,6.444 -0.936,11.412 -0.972,15.3 -0.18,3.816 -0.468,6.372 0.648,7.668 1.08,1.224 2.592,2.232 6.048,-0.324 3.42,-2.736 8.424,-11.088 14.04,-15.624 5.472,-4.608 14.976,-11.088 18.792,-11.808 3.637,-0.828 2.34,4.104 3.204,7.02 0.72,2.844 0.324,8.316 1.584,9.9 1.225,1.476 2.916,1.332 6.048,-0.972 3.061,-2.484 7.704,-9.216 12.133,-13.392 4.392,-4.176 8.928,-7.956 14.004,-11.484 l 0,0 c -2.521,-0.828 -4.608,-1.332 -6.66,-1.908 -2.054,-0.611 -3.818,-0.899 -5.438,-1.26 l 0,0 z"
   style="fill:#a16121;fill-rule:evenodd;stroke:#000000;stroke-width:0.036;stroke-miterlimit:10"
   id="path49"
   inkscape:connector-curvature="0" />
<path
   d="m 295.49677,66.618021 c 2.052,-1.044 4.068,-1.764 6.048,-2.556 1.944,-0.828 3.816,-1.332 5.76,-1.908 l 0,0 c -1.152,2.088 -1.872,5.076 -2.556,9.252 -0.684,4.104 -1.116,9.108 -1.296,15.3 l 0,0 c -0.792,2.124 -2.088,3.456 -3.492,4.14 -1.548,0.612 -4.464,1.008 -5.436,-0.324 -1.044,-1.44 -0.792,-3.96 -0.612,-7.956 0.144,-4.032 0.72,-9.253 1.584,-15.948 l 0,0 z"
   style="opacity:0.5;fill-rule:evenodd"
   id="path51"
   inkscape:connector-curvature="0" />
<path
   d="m 338.84077,53.226021 c -0.864,2.952 -1.296,5.724 -1.584,8.604 -0.359,2.736 -0.18,5.4 0,8.28 0.072,2.916 -0.216,7.236 0.937,8.928 1.08,1.476 4.248,1.224 5.76,0.648 1.404,-0.576 2.592,-1.8 3.168,-3.816 l 0,0 c -0.432,-4.968 -0.576,-9.54 -0.288,-13.716 0.252,-4.212 0.936,-7.992 1.908,-11.484 l 0,0 c -3.277,0.828 -6.589,1.692 -9.901,2.556 l 0,0 z"
   style="opacity:0.5;fill-rule:evenodd"
   id="path53"
   inkscape:connector-curvature="0" />
<path
   d="m 329.58877,67.266021 c -1.404,2.916 -2.52,11.52 -3.492,15.948 -1.152,4.248 -2.844,7.632 -2.556,9.864 0.288,2.088 2.7,2.232 4.464,3.204 1.62,0.864 4.141,2.808 5.76,2.52 1.513,-0.432 2.736,-2.988 3.816,-4.464 1.116,-1.512 2.808,-2.304 2.556,-4.464 -0.468,-2.376 -3.815,-5.256 -4.788,-9.216 -0.936,-4.104 -0.144,-12.42 -0.972,-14.688 -1.08,-2.232 -3.42,-1.657 -4.788,1.296 l 0,0 z"
   style="fill:#ffc080;fill-rule:evenodd;stroke:#000000;stroke-width:0.036;stroke-miterlimit:10"
   id="path55"
   inkscape:connector-curvature="0" />
<path
   d="m 322.60477,91.494021 c 0.36,-1.944 1.728,-5.076 2.556,-7.992 0.792,-3.096 1.152,-7.02 1.908,-9.54 0.611,-2.592 1.296,-5.868 1.907,-5.112 0.505,0.792 1.297,6.732 1.261,9.9 -0.181,3.132 -2.16,5.724 -1.908,8.604 0.18,2.736 2.916,6.264 3.204,7.956 0.144,1.548 -1.008,1.908 -1.944,1.908 -1.008,-0.108 -2.736,-1.44 -3.816,-1.908 -1.116,-0.396 -2.34,-0.144 -2.844,-0.648 -0.612,-0.684 -0.72,-1.369 -0.324,-3.168 l 0,0 z"
   style="opacity:0.5;fill-rule:evenodd"
   id="path57"
   inkscape:connector-curvature="0" />
<path
   d="m 304.10077,74.897021 c 1.008,-1.404 3.528,-3.78 6.048,-5.724 2.412,-1.944 8.1,-5.94 8.604,-5.724 0.324,0.108 -6.048,5.904 -6.048,6.696 -0.072,0.72 6.48,-2.664 6.048,-1.944 -0.612,0.648 -7.56,5.724 -8.892,6.084 -1.332,0.288 2.232,-4.608 1.26,-4.14 -1.116,0.432 -6.156,5.76 -7.344,6.66 -1.152,0.685 -0.9,-0.647 0.324,-1.908 l 0,0 z"
   style="fill-rule:evenodd;stroke:#000000;stroke-width:0.036;stroke-miterlimit:10"
   id="path59"
   inkscape:connector-curvature="0" />
<path
   d="m 343.30377,60.894021 c 1.477,-1.44 4.788,-3.816 5.761,-3.816 0.827,-0.036 -1.656,3.924 -0.648,3.816 0.864,-0.252 4.824,-4.572 6.048,-4.788 1.152,-0.144 -0.612,3.564 0.973,3.492 1.512,-0.324 8.1,-5.292 7.955,-4.752 -0.359,0.648 -7.955,7.488 -9.575,8.28 -1.692,0.648 1.044,-4.248 0,-4.14 -1.08,0.072 -5.292,4.104 -6.372,4.464 -1.188,0.216 0.504,-3.24 -0.612,-2.88 -1.296,0.324 -5.796,4.644 -6.408,4.788 -0.613,-0.036 1.367,-3.096 2.878,-4.464 l 0,0 z"
   style="fill-rule:evenodd;stroke:#000000;stroke-width:0.036;stroke-miterlimit:10"
   id="path61"
   inkscape:connector-curvature="0" />
<path
   d="m 315.90877,166.69802 c -2.088,-2.232 -4.32,-5.004 -6.696,-8.604 -2.412,-3.564 -5.148,-7.344 -7.668,-12.744 -2.664,-5.58 -6.012,-14.544 -7.956,-20.088 -1.98,-5.616 -3.204,-9.828 -3.816,-13.068 l 0,0 c -4.068,-2.052 -7.38,-4.068 -10.224,-6.048 -2.844,-2.052 -5.076,-4.068 -6.696,-6.048 l 0,0 c -0.252,-1.079999 0.396,-2.843999 2.232,-5.435999 1.728,-2.664 4.5,-6.012 8.316,-10.188 l 0,0 c -1.152,-5.364 -1.584,-10.152 -1.296,-14.364 0.36,-4.392 1.692,-8.1 2.88,-11.124 1.044,-3.06 2.052,-5.4 3.168,-7.02 l 0,0 5.112,-0.648 0,0 c -0.936,5.292 -1.44,10.404 -1.908,15.624 -0.468,5.256 -0.828,10.224 -0.648,15.3 -0.036,4.86 0.396,8.568 1.296,14.04 0.828,5.363999 1.656,10.403999 4.14,18.467999 2.448,8.136 5.544,20.34 10.836,29.664 5.364,9.18 11.988,17.388 20.7,25.164 l 0,0 c -3.419,-0.432 -5.976,-0.756 -7.956,-1.26 -1.98,-0.505 -3.204,-1.045 -3.816,-1.62 l 0,0 z"
   style="opacity:0.5;fill-rule:evenodd"
   id="path63"
   inkscape:connector-curvature="0" />
<path
   d="m 329.58877,173.17802 c -2.16,3.816 -3.6,6.588 -4.464,8.604 -0.936,1.836 -1.008,1.872 -0.612,3.168 0.396,1.296 1.872,3.348 3.167,4.788 1.188,1.296 3.925,2.088 4.465,3.492 0.468,1.296 -0.108,3.024 -1.584,4.788 l 0,0 2.88,6.372 4.14,0.324 1.584,-7.02 0,0 c -1.152,-1.332 -1.728,-2.771 -1.584,-4.464 0.072,-1.764 1.188,-3.852 2.232,-5.724 0.972,-1.944 2.088,-3.852 3.491,-5.724 l 0,0 c -1.979,-1.512 -4.104,-3.096 -6.372,-4.464 -2.303,-1.404 -4.752,-2.881 -7.343,-4.14 l 0,0 z"
   style="fill:#a16121;fill-rule:evenodd;stroke:#000000;stroke-width:0.036;stroke-miterlimit:10"
   id="path65"
   inkscape:connector-curvature="0" />
<path
   d="m 273.82477,145.27802 -9.9,21.672 0,0 c 3.816,2.304 6.696,5.184 8.928,8.928 2.088,3.563 4.32,8.424 4.176,13.068 -0.216,4.644 -1.872,9.432 -5.112,14.652 l 0,0 c 2.268,1.656 3.6,3.564 4.14,5.724 0.468,2.088 0,4.428 -1.26,7.02 l 0,0 c 2.484,1.476 4.176,3.024 5.076,4.788 0.9,1.728 1.008,3.78 0.324,5.724 -0.756,1.836 -2.196,3.6 -4.464,5.436 l 0,0 c 1.044,2.088 2.016,4.32 3.204,6.696 1.152,2.304 2.268,4.752 3.492,7.344 l 0,0 -0.972,9.54 -10.836,11.484 -6.696,-8.388 0,0 c 1.368,3.708 2.124,6.804 2.556,9.576 0.36,2.7 0.252,4.932 -0.324,6.696 l 0,0 -6.048,4.788 0,0 c 1.44,1.764 2.376,3.564 3.204,5.4 0.792,1.8 1.08,3.564 1.26,5.436 l 0,0 c 2.34,0.9 7.128,1.404 14.364,1.908 7.308,0.396 16.776,0.612 28.98,0.648 l 0,0 c 1.692,-3.888 3.672,-6.552 6.084,-7.992 2.412,-1.476 5.076,-1.836 8.28,-0.936 l 0,0 c 0.504,-11.52 0.72,-21.816 0.936,-31.572 0.144,-9.828 -0.36,-21.24 0,-26.46 0.144,-5.112 -0.288,-1.548 1.62,-4.464 1.98,-3.024 5.328,-7.632 10.188,-13.68 l 0,0 c -9.036,-1.584 -15.804,-3.276 -20.736,-5.364 -4.932,-2.124 -5.112,-4.5 -8.604,-6.984 -3.636,-2.628 -9.324,-5.292 -12.744,-7.992 -3.6,-2.772 -5.652,-5.004 -7.956,-7.956 -2.376,-2.988 -4.392,-6.228 -5.76,-9.576 -1.332,-3.42 -2.304,-6.876 -2.52,-10.512 l 0,0 c 2.196,-3.564 3.996,-6.804 5.4,-9.864 1.44,-3.06 3.096,-7.308 2.88,-8.316 -0.432,-1.116 -2.952,0.9 -4.788,1.62 -1.872,0.611 -3.996,1.151 -6.372,1.908 l 0,0 z"
   style="fill:#808080;fill-rule:evenodd;stroke:#000000;stroke-width:0.036;stroke-miterlimit:10"
   id="path67"
   inkscape:connector-curvature="0" />
<path
   d="m 377.10877,133.14502 c 4.896,0.288 10.979,1.152 18.792,2.88 7.775,1.62 16.739,3.96 27.432,7.021 l 0,0 c 5.4,4.284 9.972,8.748 14.004,13.392 3.924,4.716 6.804,11.16 9.9,14.328 3.168,2.952 6.408,1.404 8.604,3.528 1.908,1.98 2.376,4.248 3.492,8.892 1.044,4.752 1.512,14.796 3.492,19.152 1.979,4.212 6.479,3.96 8.64,6.048 2.017,1.872 3.384,2.916 3.816,6.048 0.359,3.132 -1.656,8.208 -1.62,12.744 -0.072,4.428 2.304,7.164 1.296,14.04 -1.116,6.768 -3.852,15.984 -7.668,26.676 -3.924,10.728 -10.692,24.948 -15.3,36.972 -4.608,11.844 -8.641,22.932 -12.097,33.804 l 0,0 -2.231,-21.672 0,0 c 7.02,-11.376 11.052,-17.892 12.096,-20.088 0.864,-2.232 -5.688,7.524 -6.048,7.344 -0.36,-0.288 4.428,-8.892 3.816,-8.604 -0.721,0.252 -6.192,7.632 -7.956,10.188 -1.801,2.448 -2.809,3.888 -2.88,4.464 l 0,0 c -0.145,-4.32 -1.152,-7.992 -3.168,-11.16 -2.089,-3.276 -6.084,-6.012 -8.929,-7.632 -2.987,-1.692 -4.824,-2.34 -8.279,-1.944 -3.456,0.396 -7.452,1.728 -12.133,4.14 l 0,0 c 5.257,-10.8 9.828,-19.224 13.717,-25.812 3.924,-6.66 7.02,-10.944 9.575,-13.392 l 0,0 c 3.168,4.212 4.824,6.3 5.4,6.408 0.432,-0.108 -2.736,-3.852 -2.556,-6.084 0.18,-2.304 3.996,-6.444 3.527,-7.02 -0.684,-0.576 -2.88,0.756 -7.02,3.852 l 0,0 c -3.42,-7.704 -6.192,-14.832 -8.604,-21.384 -2.412,-6.624 -4.283,-12.672 -5.76,-18.144 l 0,0 c 1.044,-3.852 3.132,-6.516 6.408,-8.28 3.312,-1.8 12.852,-1.944 13.068,-2.232 0.035,-0.36 -4.068,-0.252 -12.456,0.324 l 0,0 c 1.115,-4.464 1.548,-6.768 1.296,-7.344 -0.324,-0.576 -1.188,1.728 -2.88,4.14 -1.729,2.412 -4.177,5.76 -7.345,10.188 l 0,0 c -4.14,-8.892 -6.731,-13.788 -7.632,-14.976 -0.936,-1.26 1.044,4.644 1.908,7.992 0.828,3.348 1.692,7.128 2.88,11.772 l 0,0 c -3.852,11.484 -7.164,23.616 -10.224,36.972 -3.097,13.356 -5.652,27.216 -7.956,42.408 l 0,0 c -4.608,1.044 -10.944,1.584 -19.44,1.908 -8.496,0.252 -18.864,0.144 -31.248,-0.324 l 0,0 c 0.288,-2.412 -0.611,-4.428 -2.844,-6.048 -2.304,-1.656 -5.688,-2.88 -10.548,-3.816 l 0,0 c 0.36,-12.816 0.576,-24.012 0.648,-34.128 0.036,-10.152 -0.072,-18.684 -0.324,-26.136 l 0,0 c 3.888,-4.788 8.352,-9.576 13.392,-14.652 5.004,-5.076 10.152,-9.504 16.56,-15.624 6.301,-6.228 14.868,-13.212 21.385,-21.348 6.516,-8.208 12.06,-17.172 17.208,-27.324 l 0,0 c -2.952,-1.62 -5.688,-3.384 -8.604,-5.436 -2.95,-2.088 -5.686,-4.428 -8.602,-7.021 l 0,0 z"
   style="fill:#808080;fill-rule:evenodd;stroke:#000000;stroke-width:0.036;stroke-miterlimit:10"
   id="path69"
   inkscape:connector-curvature="0" />
<path
   d="m 398.78077,307.89002 c 1.728,-3.636 3.42,-6.408 5.076,-8.604 1.62,-2.16 2.195,-3.6 4.788,-4.464 2.592,-1.044 6.84,-1.656 10.224,-1.26 3.168,0.324 6.516,1.296 8.928,3.492 2.304,2.196 3.996,5.292 5.076,9.576 l 0,0 c 0.684,3.528 1.008,6.84 0.972,10.512 -0.144,3.528 0.396,6.12 -1.296,10.836 -1.8,4.68 -6.3,13.176 -8.928,16.884 -2.736,3.456 -5.112,3.456 -6.984,4.464 -1.836,1.044 -2.628,1.584 -4.176,1.62 -1.62,-0.18 -3.42,-0.792 -5.399,-2.231 l 0,0 c 2.592,-3.276 4.5,-5.725 5.724,-7.345 1.152,-1.691 1.368,-0.144 1.62,-2.556 0.18,-2.556 0.072,-11.916 -0.324,-12.096 -0.612,-0.072 -1.224,8.46 -2.232,11.16 -1.044,2.556 -1.512,1.943 -3.203,4.14 -1.656,2.088 -4.717,7.128 -6.696,8.604 -2.088,1.332 -4.176,-0.072 -5.725,-0.324 -1.655,-0.324 -2.987,-0.648 -4.14,-1.26 l 0,0 c 1.584,-2.053 3.132,-4.068 4.788,-5.761 1.656,-1.764 3.996,-2.34 5.076,-4.788 0.936,-2.664 1.008,-10.151 0.647,-10.512 -0.54,-0.396 -1.979,5.977 -3.204,8.28 -1.224,2.124 -2.124,3.275 -3.815,5.111 -1.836,1.801 -4.86,4.32 -6.696,5.761 -1.872,1.368 -2.988,2.304 -4.464,2.52 -1.62,0.036 -3.528,-0.792 -4.752,-1.908 -1.404,-1.224 -2.916,-3.6 -2.88,-4.787 0.107,-1.188 1.764,-1.837 3.168,-2.232 1.26,-0.504 2.556,0.864 4.176,-0.612 1.44,-1.691 3.313,-4.932 5.076,-8.604 1.728,-3.637 3.492,-7.849 5.436,-12.78 l 0,0 c -4.607,0.144 -8.388,0.864 -11.483,2.556 -3.168,1.62 -5.04,5.904 -7.021,7.02 -2.088,0.899 -4.067,0.107 -5.111,-1.26 -1.08,-1.44 -1.765,-5.041 -0.937,-7.344 0.864,-2.412 3.024,-5.076 6.048,-7.02 2.952,-2.088 7.272,-4.284 11.16,-5.076 3.851,-0.829 7.487,-0.685 11.483,0.288 l 0,0 z"
   style="fill:#ffc080;fill-rule:evenodd;stroke:#000000;stroke-width:0.036;stroke-miterlimit:10"
   id="path71"
   inkscape:connector-curvature="0" />
<path
   d="m 307.30477,297.37702 c -3.708,-0.288 -9.18,-0.468 -16.272,-0.936 -7.236,-0.468 -15.876,-1.008 -26.46,-1.62 l 0,0 c -0.936,0.972 -1.44,2.628 -1.908,5.112 -0.468,2.484 -0.684,5.544 -0.648,9.576 l 0,0 c 3.888,1.476 8.64,2.484 14.688,3.168 5.976,0.612 12.852,0.828 21.024,0.648 l 0,0 c -2.556,0.9 -6.516,1.476 -12.42,1.584 -5.904,0.108 -13.32,-0.252 -22.644,-0.936 l 0,0 c 0.612,2.664 1.08,6.12 1.26,10.512 0.036,4.393 -2.376,14.509 -0.288,15.624 2.016,0.937 8.856,-7.164 12.744,-9.576 3.924,-2.52 9.324,-6.624 10.512,-5.111 0.936,1.512 -2.844,6.516 -4.14,14.04 -1.368,7.523 -2.304,27.936 -3.204,30.275 -0.936,1.98 -2.412,-11.124 -1.908,-17.531 0.54,-6.553 6.264,-18.685 5.112,-20.7 -1.26,-1.872 -8.64,6.516 -12.42,9.216 -3.96,2.556 -9.288,6.948 -10.836,6.084 -1.584,-1.08 1.26,-6.912 1.584,-11.808 0.252,-4.896 0.252,-10.584 0,-17.208 l 0,0 c -0.972,3.636 -2.052,8.172 -3.528,14.004 -1.512,5.796 -4.824,13.896 -5.076,20.412 -0.252,6.372 3.132,11.447 3.492,17.855 0.216,6.229 -1.44,19.908 -1.908,20.088 -0.468,0.072 -0.468,-13.752 -0.972,-19.116 -0.684,-5.472 -1.584,-9.647 -2.844,-13.067 l 0,0 c -7.74,25.74 -14.292,47.88 -20.088,67.536 -5.868,19.548 -10.224,35.315 -14.328,49.104 -4.176,13.68 -7.488,24.336 -10.224,32.508 l 0,0 2.88,8.604 0,0 c 1.62,2.016 4.752,3.563 9.252,4.788 4.464,1.151 9.9,1.296 17.82,2.231 7.92,0.9 19.224,1.584 29.34,2.88 10.008,1.188 19.908,2.521 30.276,4.141 l 0,0 10.836,-40.5 0,0 c 0.144,-17.676 0.576,-34.884 1.296,-52.596 0.612,-17.748 1.512,-34.129 2.844,-52.885 1.296,-18.899 3.24,-38.268 5.436,-59.22 l 0,0 c -1.476,23.4 -2.52,43.596 -3.528,61.848 -0.972,18.036 -1.8,30.204 -2.196,46.225 -0.504,15.948 -0.612,37.439 -0.324,49.067 0.36,11.376 1.044,13.141 1.908,19.44 0.72,6.3 1.368,12.06 2.232,17.855 l 0,0 c 8.316,1.656 18.576,2.377 31.211,2.557 12.708,0.107 27,-0.576 43.992,-1.908 l 0,0 8.928,-8.604 0.324,-11.809 0,0 c -6.084,-3.42 -12.708,-9.324 -20.412,-17.855 -7.775,-8.712 -23.399,-29.628 -25.487,-33.156 -2.088,-3.456 7.344,8.1 12.743,12.744 5.328,4.607 17.713,14.363 18.828,14.688 0.792,0.145 -9.396,-8.676 -13.067,-13.392 -3.744,-4.788 -9.864,-15.012 -8.929,-14.977 0.937,0.072 8.173,9.757 14.328,15.301 6.013,5.508 13.141,11.016 21.672,17.208 l 0,0 c -0.972,-10.62 -1.619,-19.08 -2.231,-25.813 -0.648,-6.804 -0.972,-11.448 -1.26,-14.364 l 0,0 c -9.756,-1.439 -19.188,-2.987 -28.692,-4.788 -9.576,-1.836 -22.068,-3.852 -28.044,-6.048 -6.048,-2.304 -6.48,-1.872 -7.668,-7.308 -1.26,-5.724 -0.18,-17.101 0.324,-25.524 0.396,-8.424 1.188,-18.071 2.231,-24.228 0.9,-6.229 0.828,-8.101 3.528,-12.42 2.771,-4.5 8.136,-11.017 12.744,-13.716 4.5,-2.736 9.036,-3.528 14.004,-2.521 l 0,0 c 0.756,-3.384 2.088,-6.048 4.14,-7.992 2.053,-1.979 5.04,-3.204 7.992,-3.815 2.844,-0.685 5.724,-0.685 8.928,0 l 0,0 -0.972,-6.696 0,0 c -1.548,2.556 -3.348,4.212 -5.4,5.112 -2.088,0.828 -5.399,1.151 -7.02,0 -1.8,-1.332 -3.061,-4.752 -3.204,-7.344 -0.18,-2.664 0.612,-5.544 2.232,-7.956 1.512,-2.376 3.672,-4.5 7.02,-6.372 3.313,-2.052 7.272,-3.924 12.42,-5.76 l 0,0 0,-6.696 0,0 c -10.116,1.116 -19.151,1.728 -27.396,2.232 -8.316,0.396 -15.553,0.504 -21.996,0.324 l 0,0 -1.584,16.272 0,0 c 1.656,0.036 4.68,0.036 8.928,0 4.248,-0.072 9.72,-0.18 16.56,-0.324 l 0,0 c 0.433,0.828 -1.691,1.368 -6.371,1.908 -4.824,0.468 -12.024,0.792 -21.996,0.972 l 0,0 c -1.225,1.08 -2.88,2.16 -5.112,2.844 -2.232,0.72 -4.716,1.476 -8.28,1.584 -3.744,-0.072 -10.8,0.972 -13.392,-1.584 -2.592,-2.7 -1.98,-13.068 -1.908,-14.004 0.072,-0.972 1.044,6.192 2.232,8.28 1.08,2.016 0.972,3.24 4.14,3.816 3.132,0.36 10.692,0 14.364,-0.936 3.492,-1.008 5.544,-1.476 6.983,-4.464 1.44,-3.132 1.477,-10.044 1.62,-13.392 0.036,-3.384 0.252,-4.536 -1.296,-6.372 -1.656,-1.872 -5.436,-3.924 -8.28,-4.788 -2.952,-0.936 -6.624,-1.8 -8.928,-0.648 -2.304,1.08 -3.816,4.068 -5.112,7.02 -1.332,2.844 -2.52,6.084 -3.168,9.864 l 0,0 c -0.503,-2.23 -1.043,-4.499 -1.583,-6.767 l 0,0 z"
   style="fill:#808080;fill-rule:evenodd;stroke:#000000;stroke-width:0.036;stroke-miterlimit:10"
   id="path73"
   inkscape:connector-curvature="0" />
<path
   d="m 359.57677,345.90502 c -2.412,0.036 -4.645,0.36 -6.696,0.973 -2.16,0.504 -3.708,0.936 -5.76,2.556 -2.124,1.62 -4.248,4.104 -6.66,7.308 l 0,0 c 6.588,-0.287 14.4,-0.18 23.58,0.324 9.18,0.468 20.088,1.513 31.212,2.557 11.088,0.756 25.632,1.943 34.452,3.168 8.532,1.26 14.04,1.836 17.208,4.788 3.096,2.987 2.16,6.084 1.908,12.743 -0.433,6.588 -2.305,18.54 -3.528,26.137 -1.116,7.38 -2.124,13.571 -3.168,18.18 -1.08,4.464 -2.34,7.488 -3.492,8.928 l 0,0 11.448,-9.864 0,0 c 2.844,-7.416 4.968,-14.544 6.372,-21.384 1.332,-6.876 1.656,-13.464 1.944,-19.764 0.287,-6.516 0.827,-14.437 -0.324,-18.468 -1.296,-3.996 -3.744,-4.141 -7.344,-5.437 -3.708,-1.403 -8.496,-2.556 -14.652,-3.168 l 0,0 c 0.252,1.836 -0.18,3.061 -1.296,3.816 -1.188,0.684 -3.636,0.288 -5.4,0.324 -1.872,-0.036 -4.607,0.252 -5.436,-0.648 -0.9,-1.116 0.468,-3.888 0.647,-5.4 0.072,-1.619 0.685,-2.844 0.324,-3.527 -0.432,-0.721 -1.188,-0.685 -2.556,-0.288 l 0,0 c -2.376,1.943 -4.608,3.275 -6.696,4.14 -2.16,0.828 -4.5,0.937 -6.048,0.612 -1.656,-0.468 -2.88,-1.477 -3.816,-3.168 l 0,0 c -1.224,2.231 -3.096,3.348 -5.76,3.492 -2.7,0.107 -6.048,-0.9 -10.188,-2.88 l 0,0 c -2.699,1.151 -5.147,1.584 -7.344,1.296 -2.376,-0.396 -4.392,-1.332 -6.048,-3.204 -1.656,-1.908 -2.88,-4.716 -3.815,-8.28 l 0,0 c -0.864,1.188 -1.404,2.628 -1.908,4.464 -0.469,1.729 -0.145,5.148 -0.973,6.372 -1.115,1.224 -2.987,0.72 -4.788,0.972 -1.836,0.072 -4.859,0.576 -5.724,0 -1.008,-0.756 0.252,-2.159 0.324,-3.527 0.037,-1.334 0.037,-2.666 0.001,-4.143 l 0,0 z"
   style="fill:#404040;fill-rule:evenodd;stroke:#000000;stroke-width:0.036;stroke-miterlimit:10"
   id="path75"
   inkscape:connector-curvature="0" />
<path
   d="m 362.74477,351.01802 c 1.008,-3.708 1.944,-6.66 3.204,-9.252 1.08,-2.628 1.836,-4.644 3.815,-6.048 1.98,-1.584 5.761,-2.16 8.28,-2.556 2.412,-0.396 4.536,-0.288 6.372,0.323 l 0,0 -2.556,5.112 0,0 c -4.284,-0.468 -7.416,-0.36 -9.54,0.612 -2.16,0.863 -2.484,2.735 -3.204,4.788 -0.864,1.979 -1.296,4.428 -1.584,7.344 l 0,0 c -1.583,-0.108 -3.167,-0.215 -4.787,-0.323 l 0,0 z"
   style="fill:#404040;fill-rule:evenodd;stroke:#000000;stroke-width:0.036;stroke-miterlimit:10"
   id="path77"
   inkscape:connector-curvature="0" />
<path
   d="m 428.08477,342.09002 c 2.988,0.072 4.968,0.504 6.084,1.584 1.044,0.972 0.396,2.088 0.288,4.464 -0.18,2.376 -0.648,5.436 -1.26,9.576 l 0,0 -6.696,-0.324 0,0 c 1.584,-3.852 2.376,-6.516 2.232,-8.28 -0.217,-1.728 -1.225,-2.52 -3.168,-2.231 l 0,0 c 0.827,-1.585 1.656,-3.169 2.52,-4.789 l 0,0 z"
   style="fill:#404040;fill-rule:evenodd;stroke:#000000;stroke-width:0.036;stroke-miterlimit:10"
   id="path79"
   inkscape:connector-curvature="0" />
<path
   d="m 334.70077,376.50602 c 0.756,-5.256 1.439,-10.944 4.14,-13.716 2.664,-2.736 4.572,-2.845 12.132,-2.845 7.633,-0.071 21.492,1.188 32.832,2.232 11.232,0.936 24.912,2.52 34.093,3.492 9,0.828 15.264,0.071 19.764,1.908 4.355,1.836 5.939,2.376 6.696,9.252 0.575,6.947 -1.549,22.104 -2.88,31.571 -1.297,9.288 -2.484,18.828 -5.076,23.904 -2.809,4.896 -3.24,5.184 -11.16,5.724 -8.101,0.396 -24.48,-1.584 -36.36,-3.168 -11.988,-1.548 -25.775,-4.788 -34.416,-6.408 -8.567,-1.764 -13.319,-2.123 -16.884,-4.14 -3.78,-2.088 -4.464,-3.275 -5.112,-8.28 -0.611,-5.184 0.792,-15.768 1.296,-22.319 0.395,-6.659 -0.037,-12.024 0.935,-17.207 l 0,0 z"
   style="fill:#404040;fill-rule:evenodd;stroke:#000000;stroke-width:0.036;stroke-miterlimit:10"
   id="path81"
   inkscape:connector-curvature="0" />
<path
   d="m 344.88777,428.77702 c -5.292,-1.008 -8.855,-2.556 -11.124,-4.788 -2.268,-2.304 -2.088,-2.447 -2.231,-8.604 -0.145,-6.229 0.647,-20.269 1.26,-28.368 0.576,-8.316 0.612,-15.804 1.908,-20.376 1.151,-4.464 2.628,-5.147 5.112,-6.372 2.447,-1.332 6.407,-1.548 9.539,-1.62 3.061,-0.252 5.832,-0.144 8.604,0.324 l 0,0 c -2.088,3.78 -3.78,9.252 -5.076,16.272 -1.404,7.128 -2.268,18.144 -2.88,25.812 -0.72,7.524 -1.08,13.788 -0.936,18.792 0.144,4.752 0.827,8.1 1.907,9.9 l 0,0 c -2.014,-0.323 -4.03,-0.647 -6.083,-0.972 l 0,0 z"
   style="opacity:0.5;fill-rule:evenodd"
   id="path83"
   inkscape:connector-curvature="0" />
<path
   d="m 409.94077,212.05802 c 1.224,3.456 3.132,8.604 5.724,15.588 2.592,7.02 5.652,15.552 9.576,26.172 l 0,0 c -3.744,4.68 -7.236,10.476 -11.16,17.532 -3.96,7.056 -7.668,15.084 -11.808,24.516 l 0,0 -4.141,9.252 0,0 c -3.563,0.072 -6.804,0.396 -9.864,0.972 -3.06,0.468 -5.831,1.08 -8.315,2.232 -2.664,1.08 -5.04,2.52 -6.984,4.464 -1.943,1.98 -3.852,4.536 -4.464,6.984 -0.684,2.196 -0.252,5.076 0.612,6.696 0.828,1.656 2.16,2.988 4.14,2.88 1.836,-0.324 5.076,-2.772 7.344,-4.14 2.196,-1.404 4.068,-3.384 6.049,-4.141 1.836,-0.792 2.951,0.468 5.436,-0.648 2.412,-1.188 4.248,0.972 9.252,-6.696 4.932,-7.956 14.04,-29.484 20.376,-40.14 6.265,-10.656 11.952,-18.288 17.208,-23.292 l 0,0 -14.328,-23.904 0,0 c -3.096,-6.264 -5.651,-10.692 -7.956,-13.716 -2.304,-2.952 -4.68,-4.14 -5.76,-4.14 -1.189,-0.143 -1.406,1.08 -0.937,3.529 l 0,0 z"
   style="opacity:0.5;fill-rule:evenodd"
   id="path85"
   inkscape:connector-curvature="0" />
<path
   d="m 263.63677,121.44602 c -3.636,6.3 -7.92,15.66 -13.392,28.368 -5.544,12.744 -11.736,28.296 -19.116,47.484 l 0,0 c -1.008,1.08 -2.448,2.196 -4.464,3.492 -2.052,1.26 -4.608,2.448 -7.668,3.852 l 0,0 c 3.384,0.54 6.264,1.728 8.928,3.168 2.592,1.404 4.824,3.456 6.696,5.76 l 0,0 c 3.384,-6.048 6.624,-11.232 9.864,-15.948 3.24,-4.716 6.696,-8.712 9.252,-12.132 2.448,-3.528 4.212,-6.3 5.436,-8.604 l 0,0 c -0.468,-1.548 -0.36,-3.456 0.324,-5.724 0.54,-2.304 1.512,-3.204 3.492,-7.956 2.052,-4.896 4.788,-11.628 8.604,-20.736 l 0,0 c -3.6,0.036 -6.156,-0.756 -7.668,-2.232 -1.512,-1.548 -1.62,-3.888 -1.584,-7.02 -0.072,-3.24 0.36,-7.02 1.296,-11.772 l 0,0 z"
   style="fill:#404040;fill-rule:evenodd;stroke:#000000;stroke-width:0.036;stroke-miterlimit:10"
   id="path87"
   inkscape:connector-curvature="0" />
<path
   d="m 231.12877,188.69302 -6.408,3.168 -3.816,9.576 0,0 c 3.6,-0.9 6.264,-2.34 7.992,-4.464 1.764,-2.195 2.376,-4.824 2.232,-8.28 l 0,0 z"
   style="fill:#404040;fill-rule:evenodd;stroke:#000000;stroke-width:0.036;stroke-miterlimit:10"
   id="path89"
   inkscape:connector-curvature="0" />
<path
   d="m 262.34077,252.12502 8.604,11.484 7.02,-7.02 0,0 c -2.52,-3.996 -4.644,-7.452 -6.372,-10.512 -1.764,-3.06 -3.096,-5.616 -4.14,-7.668 l 0,0 c -0.288,2.376 -0.684,4.716 -1.584,7.02 -0.936,2.269 -1.98,4.501 -3.528,6.696 l 0,0 z"
   style="fill:#404040;fill-rule:evenodd;stroke:#000000;stroke-width:0.036;stroke-miterlimit:10"
   id="path91"
   inkscape:connector-curvature="0" />
<path
   d="m 234.62077,219.94102 c 2.7,-4.5 5.544,-9.18 8.928,-14.04 3.384,-5.076 7.416,-11.52 10.836,-15.3 3.24,-3.816 6.624,-6.336 8.604,-7.02 1.872,-0.684 1.908,0.972 2.88,2.88 0.864,1.836 2.952,5.328 2.52,7.956 -0.576,2.52 -2.7,3.672 -5.4,7.344 -2.772,3.528 -6.336,8.244 -10.836,14.004 l 0,0 c 3.672,-3.96 6.732,-6.624 9.576,-8.28 2.808,-1.584 5.004,-1.836 6.984,-1.584 1.836,-0.036 3.78,0.612 4.464,2.232 0.648,1.656 0.396,4.356 -0.612,7.956 l 0,0 c -3.096,0.072 -6.084,1.188 -9.252,3.204 -3.204,2.052 -6.3,4.896 -9.576,8.928 l 0,0 c 4.14,-3.384 7.704,-5.832 10.836,-7.344 3.024,-1.512 5.724,-2.052 7.668,-1.908 1.8,0.036 3.024,0.828 3.816,2.232 0.828,1.332 2.628,3.528 0.972,6.048 -1.836,2.52 -9.612,6.084 -11.808,8.604 -2.268,2.268 -0.756,3.06 -1.584,5.436 -0.864,2.376 -1.296,5.616 -3.528,8.604 -2.34,2.916 -5.688,5.652 -10.188,8.604 l 0,0 c -4.716,-7.2 -8.28,-14.004 -10.836,-20.412 -2.592,-6.443 -4.032,-12.491 -4.464,-18.144 l 0,0 z"
   style="fill:#ffc080;fill-rule:evenodd;stroke:#000000;stroke-width:0.036;stroke-miterlimit:10"
   id="path93"
   inkscape:connector-curvature="0" />
<polygon
   points="103.487,253.063 105.071,246.367 98.375,233.011 98.375,233.011 93.911,236.179 "
   style="fill:#404040;fill-rule:evenodd;stroke:#000000;stroke-width:0.036;stroke-miterlimit:10"
   id="polygon95"
   transform="translate(175.44977,-9.7900312e-4)" />
<path
   d="m 263.63677,170.18902 c 1.98,1.476 3.78,3.24 5.4,5.436 1.512,2.196 3.492,4.644 4.14,7.632 0.468,2.844 -0.108,6.408 -0.612,9.576 -0.612,3.132 -1.332,5.976 -2.556,8.928 l 0,0 -3.528,-0.648 0,0 c 2.34,-2.088 3.672,-4.392 4.14,-7.308 0.324,-2.988 -0.432,-7.164 -1.584,-9.9 -1.188,-2.736 -2.988,-4.86 -5.4,-6.372 l 0,0 c -2.016,-1.98 -2.844,-3.528 -2.88,-4.788 0.036,-1.295 0.864,-2.052 2.88,-2.556 l 0,0 z"
   style="fill:#404040;fill-rule:evenodd;stroke:#000000;stroke-width:0.036;stroke-miterlimit:10"
   id="path97"
   inkscape:connector-curvature="0" />
<path
   d="m 246.42877,150.42602 c -6.336,1.404 -13.032,3.852 -20.088,7.344 -7.128,3.528 -14.472,7.812 -22.32,13.392 l 0,0 c -1.62,8.172 -2.592,15.516 -3.204,22.32 -0.648,6.732 -0.648,12.78 -0.288,18.144 l 0,0 -10.548,11.16 0,0 c -0.324,3.744 -0.54,9.216 -0.936,16.272 -0.396,7.128 -0.828,15.66 -1.296,26.136 l 0,0 c -3.6,2.628 -5.976,5.076 -6.984,7.632 -1.044,2.412 -0.468,2.916 0.612,7.344 1.044,4.356 3.276,14.976 5.436,18.792 1.98,3.744 3.348,2.376 7.02,3.528 3.636,1.008 10.008,3.348 14.652,2.556 4.5,-0.972 3.924,-3.313 12.42,-7.992 8.46,-4.86 20.916,-11.664 37.944,-20.7 l 0,0 c -5.292,-6.192 -9.396,-11.7 -12.744,-17.208 -3.348,-5.508 -4.716,-9.036 -7.02,-15.3 -2.412,-6.336 -4.86,-13.644 -7.344,-22.32 l 0,0 c -1.152,2.592 -1.764,6.48 -2.232,12.096 -0.468,5.652 -0.072,20.448 -0.324,21.06 -0.324,0.288 -0.576,-16.848 -1.584,-18.504 -1.224,-1.62 -3.744,7.704 -5.076,8.928 -1.404,1.008 -3.564,-0.252 -2.88,-2.232 0.684,-2.016 5.796,-8.028 7.02,-9.576 1.152,-1.656 1.152,-1.656 0,0 l 0,0 c -2.052,-3.06 -4.392,-5.472 -7.02,-7.632 -2.844,-2.268 -9.108,-4.716 -8.928,-5.112 0.288,-0.288 7.632,1.62 10.512,3.204 2.7,1.404 4.608,3.204 5.724,5.4 l 0,0 c 0.72,-3.384 1.476,-6.12 2.556,-8.604 1.044,-2.484 2.124,-4.5 3.528,-6.048 l 0,0 c -2.88,-2.196 -5.652,-3.996 -8.604,-5.4 -2.988,-1.512 -5.868,-2.484 -8.928,-3.204 l 0,0 8.604,-16.884 9.252,-3.204 0,0 c 4.356,-11.773 8.712,-23.581 13.068,-35.388 l 0,0 z"
   style="fill:#808080;fill-rule:evenodd;stroke:#000000;stroke-width:0.036;stroke-miterlimit:10"
   id="path99"
   inkscape:connector-curvature="0" />
<path
   d="m 268.13677,110.75402 c 0,1.368 0.252,2.844 0.9,4.86 0.612,1.872 1.476,4.14 2.736,6.66 l 0,0 c -2.376,-1.62 -4.14,-2.628 -5.436,-3.024 -1.332,-0.54 -1.548,-0.396 -2.448,0.576 -1.008,1.044 -2.268,2.772 -3.636,5.472 l 0,0 c -1.656,-0.864 -2.808,-1.872 -3.312,-3.024 -0.576,-1.224 -0.576,-2.772 0,-3.96 0.432,-1.332 1.116,-2.016 3.024,-3.312 1.908,-1.332 4.5,-2.7 8.172,-4.248 l 0,0 z"
   style="opacity:0.5;fill-rule:evenodd"
   id="path101"
   inkscape:connector-curvature="0" />
<path
   d="m 281.16877,141.93002 c -2.196,4.068 -4.068,7.56 -5.76,10.62 -1.692,3.096 -3.06,5.436 -4.248,7.56 l 0,0 c 1.836,5.148 4.104,10.044 6.66,14.544 2.592,4.5 5.472,8.136 8.784,12.42 3.24,4.212 6.048,9.144 10.908,12.708 4.86,3.528 12.384,6.66 17.856,7.848 5.328,0.936 10.08,0.468 14.256,-1.8 l 0,0 c -7.956,-1.332 -13.932,-3.204 -18.504,-5.76 -4.5,-2.628 -5.328,-6.876 -8.46,-9.396 -3.348,-2.52 -7.956,-3.78 -10.908,-5.724 -2.988,-2.088 -4.752,-2.448 -6.948,-6.372 -2.34,-4.032 -4.464,-9.792 -6.66,-17.568 l 0,0 c 1.548,-2.736 3.06,-5.76 4.536,-9.072 1.44,-3.564 4.428,-9.144 4.248,-10.908 -0.324,-1.656 -2.196,-1.405 -5.76,0.9 l 0,0 z"
   style="opacity:0.5;fill-rule:evenodd"
   id="path103"
   inkscape:connector-curvature="0" />
<path
   d="m 385.31677,132.85702 17.567,14.22 0,0 c -1.584,9.648 -7.848,19.512 -18.792,30.276 -11.052,10.764 -26.496,21.744 -46.908,33.624 l 0,0 c 7.129,-5.904 13.5,-11.916 19.656,-18.18 6.084,-6.264 10.62,-11.7 16.668,-19.368 6.013,-7.812 12.276,-16.848 19.08,-27.252 l 0,0 c -1.656,-1.116 -3.744,-2.736 -6.66,-4.86 -2.916,-2.268 -6.443,-4.86 -10.584,-8.172 l 0,0 c 1.584,-0.972 3.097,-1.476 4.824,-1.512 1.693,-0.035 3.313,0.324 5.149,1.224 l 0,0 z"
   style="opacity:0.5;fill-rule:evenodd"
   id="path105"
   inkscape:connector-curvature="0" />
<path
   d="m 275.40877,191.43002 c -0.036,1.368 -0.396,3.24 -1.224,5.472 -0.792,2.16 -2.052,4.824 -3.636,7.848 l 0,0 c 2.664,1.116 4.284,2.736 4.86,4.86 0.54,2.124 0.036,4.752 -1.512,7.884 l 0,0 c 1.836,1.44 3.096,2.844 3.924,4.212 0.828,1.296 1.188,2.34 0.936,3.96 -0.396,1.62 -1.368,3.492 -3.06,5.76 l 0,0 5.472,14.22 -0.9,9.972 -9.396,10.008 -8.172,-7.272 0,0 c 2.664,4.248 3.672,7.992 3.024,11.52 -0.72,3.528 -2.952,6.552 -6.984,9.36 l 0,0 2.736,6.372 0,0 c 4.392,-0.396 7.416,-1.656 9.072,-3.924 1.656,-2.34 1.728,-5.436 0.612,-9.684 l 0,0 14.544,-13.32 3.312,-15.768 -6.048,-10.584 0,0 c 3.384,-3.888 4.752,-7.272 4.248,-10.296 -0.648,-3.132 -3.024,-5.616 -7.56,-7.884 l 0,0 c 2.736,-4.464 4.176,-7.74 3.924,-9.972 -0.288,-2.34 -1.872,-3.276 -5.148,-3.348 l 0,0 c 1.872,-2.088 2.628,-3.852 2.124,-5.436 -0.504,-1.548 -2.268,-2.916 -5.148,-3.96 l 0,0 z"
   style="opacity:0.5;fill-rule:evenodd"
   id="path107"
   inkscape:connector-curvature="0" />
<path
   d="m 224.54077,157.51802 c -2.124,3.204 -4.5,9.468 -7.272,19.08 -2.88,9.612 -5.868,22.14 -9.396,38.16 l 0,0 c -3.924,2.196 -6.696,4.212 -8.46,6.048 -1.764,1.8 -2.52,3.42 -2.124,4.86 l 0,0 c 0.18,5.508 0.18,12.024 0.288,19.692 0.036,7.668 0.036,16.2 0,26.028 l 0,0 c -3.492,0.468 -5.472,2.124 -6.336,4.824 -0.756,2.7 -0.108,6.588 1.512,11.52 1.476,4.896 3.852,10.8 7.272,17.856 l 0,0 -12.744,-3.024 -9.072,-29.052 6.984,-8.784 3.312,-43.308 9.684,-12.096 4.248,-39.384 0,0 c 7.344,-4.14 14.724,-8.28 22.104,-12.42 l 0,0 z"
   style="opacity:0.5;fill-rule:evenodd"
   id="path109"
   inkscape:connector-curvature="0" />
<path
   d="m 266.91277,278.04602 12.42,20.88 0,0 c -0.036,7.164 -0.036,11.772 0,14.22 -0.036,2.34 -0.036,2.34 0,0 l 0,0 c -4.356,18.648 -8.892,38.16 -13.608,59.364 -4.86,21.275 -10.224,46.548 -14.832,66.924 -4.752,20.16 -9.972,39.313 -12.744,53.568 -2.808,14.147 -3.888,24.3 -3.636,30.888 l 0,0 -24.804,-4.536 -4.86,-10.584 0,0 c 0.36,-3.528 2.052,-11.052 5.472,-22.716 3.348,-11.88 8.784,-28.692 14.508,-47.232 5.652,-18.575 11.88,-39.204 19.08,-63 l 0,0 c 1.98,-6.912 4.356,-15.552 7.272,-26.315 2.844,-10.872 6.228,-23.221 10.008,-37.872 l 0,0 c -1.188,-3.492 -1.692,-6.768 -1.224,-9.972 0.432,-3.204 1.548,-6.192 3.636,-9.108 l 0,0 -3.024,-9.072 0,0 c 2.088,-1.801 4.212,-3.601 6.336,-5.437 l 0,0 z"
   style="opacity:0.5;fill-rule:evenodd"
   id="path111"
   inkscape:connector-curvature="0" />
<path
   d="m 307.80877,408.00602 c -2.232,5.796 -3.708,13.464 -4.86,23.292 -1.224,9.864 -2.016,23.472 -1.8,35.136 0.18,11.556 1.188,22.572 3.024,33.624 l 0,0 3.636,-8.784 0,0 c -0.252,-19.584 -0.36,-35.964 -0.324,-49.968 -0.036,-13.932 0.072,-24.985 0.324,-33.3 l 0,0 z"
   style="opacity:0.5;fill-rule:evenodd"
   id="path113"
   inkscape:connector-curvature="0" />
<path
   d="m 335.06077,426.94102 c -4.32,-0.324 -1.44,0.433 8.783,2.7 10.296,2.16 27.433,5.544 52.38,10.296 l 0,0 0.288,13.645 0,0 c -16.308,-2.7 -29.34,-6.192 -39.672,-10.62 -10.295,-4.5 -17.459,-9.792 -21.779,-16.021 l 0,0 z"
   style="opacity:0.5;fill-rule:evenodd"
   id="path115"
   inkscape:connector-curvature="0" />
<path
   d="m 221.19277,206.80202 -3.636,7.272 0,0 c 2.484,-0.072 4.752,0.54 6.66,1.836 1.98,1.224 3.42,3.132 4.86,5.724 l 0,0 5.148,-7.236 0,0 c -1.872,-2.16 -3.888,-3.924 -6.048,-5.148 -2.232,-1.26 -4.464,-2.125 -6.984,-2.448 l 0,0 z"
   style="opacity:0.5;fill-rule:evenodd"
   id="path117"
   inkscape:connector-curvature="0" />
<path
   d="m 216.80077,519.82102 c -0.036,3.492 -0.72,8.172 -2.484,14.725 -1.764,6.443 -5.436,17.279 -7.812,23.76 -2.448,6.372 -4.644,11.268 -6.588,14.688 l 0,0 2.808,19.08 10.008,2.521 0,0 c -1.692,-2.052 -1.116,-8.748 1.584,-20.628 2.772,-11.952 7.488,-28.513 14.688,-50.364 l 0,0 c -4.068,-1.261 -8.136,-2.521 -12.204,-3.782 l 0,0 z"
   style="opacity:0.5;fill-rule:evenodd"
   id="path119"
   inkscape:connector-curvature="0" />
<path
   d="m 340.67677,523.60202 c 1.44,2.88 2.592,8.064 3.456,15.948 0.756,7.92 1.08,21.204 1.548,30.96 0.469,9.612 -0.216,20.916 1.261,26.28 1.296,5.22 3.6,4.392 7.199,5.004 3.564,0.504 8.353,-0.072 14.364,-1.872 l 0,0 c -1.368,-21.564 -2.88,-38.196 -4.68,-51.013 -1.836,-12.743 -3.924,-20.951 -6.264,-25.02 l 0,0 c -5.616,-0.072 -11.232,-0.179 -16.884,-0.287 l 0,0 z"
   style="opacity:0.5;fill-rule:evenodd"
   id="path121"
   inkscape:connector-curvature="0" />
</svg>