<?xml version="1.0" encoding="UTF-8" standalone="no"?>
<!-- Created with Inkscape (http://www.inkscape.org/) -->

<svg
   xmlns:dc="http://purl.org/dc/elements/1.1/"
   xmlns:cc="http://creativecommons.org/ns#"
   xmlns:rdf="http://www.w3.org/1999/02/22-rdf-syntax-ns#"
   xmlns:svg="http://www.w3.org/2000/svg"
   xmlns="http://www.w3.org/2000/svg"
   xmlns:sodipodi="http://sodipodi.sourceforge.net/DTD/sodipodi-0.dtd"
   xmlns:inkscape="http://www.inkscape.org/namespaces/inkscape"
   width="744.09448819"
   height="1052.3622047"
   id="svg27748"
   version="1.1"
   inkscape:version="0.48.4 r9939"
   sodipodi:docname="New document 5">
  <defs
     id="defs27750" />
  <sodipodi:namedview
     id="base"
     pagecolor="#ffffff"
     bordercolor="#666666"
     borderopacity="1.0"
     inkscape:pageopacity="0.0"
     inkscape:pageshadow="2"
     inkscape:zoom="0.35"
     inkscape:cx="375"
     inkscape:cy="367.02225"
     inkscape:document-units="px"
     inkscape:current-layer="layer1"
     showgrid="false"
     inkscape:window-width="896"
     inkscape:window-height="691"
     inkscape:window-x="92"
     inkscape:window-y="92"
     inkscape:window-maximized="0" />
  <metadata
     id="metadata27753">
    <rdf:RDF>
      <cc:Work
         rdf:about="">
        <dc:format>image/svg+xml</dc:format>
        <dc:type
           rdf:resource="http://purl.org/dc/dcmitype/StillImage" />
        <dc:title></dc:title>
      </cc:Work>
    </rdf:RDF>
  </metadata>
  <g
     inkscape:label="Layer 1"
     inkscape:groupmode="layer"
     id="layer1">
    <path
       id="path18896"
       d="m 352.61621,747.14995 -31.36152,-16.67981 -13.33513,20.02458 -90.73997,-20.02458 55.38224,25.32387 -60.02999,5.3428 48.69287,16.02818 -46.69476,13.33513 71.36701,-3.34459 -11.33703,18.67792 38.05079,-9.99054 9.99055,28.66846 26.67035,-32.01314 36.05259,23.36909 9.99055,-25.3672 54.03574,17.33144 -17.33144,-25.32387 62.0714,1.9982 -52.08086,-14.03017 45.3916,-11.33712 -56.72872,-4.64774 21.37099,-14.03018 -54.73061,3.99631 4.69117,-25.32387 z"
       style="fill:#ffcc00;fill-opacity:1;fill-rule:evenodd;stroke:#000000;stroke-width:3.33596253;stroke-linecap:round;stroke-linejoin:round;stroke-miterlimit:10;stroke-opacity:1"
       inkscape:connector-curvature="0"
       inkscape:export-filename="X:\eclipse\soclab\experiment_templates\scudhunt\flavors\original\explosion.png"
       inkscape:export-xdpi="24.0877"
       inkscape:export-ydpi="24.0877" />
    <path
       id="path18898"
       d="m 352.61621,752.49274 -24.67224,-14.6817 -10.03397,16.67982 -67.37077,-16.67982 42.047,22.67413 -45.39169,3.99622 36.7043,12.6836 -36.00926,10.68548 54.68719,-1.9981 -8.64406,14.68179 28.66856,-8.03593 6.68927,24.71575 19.98108,-26.71386 26.71367,18.67793 7.99244,-21.32758 40.04889,14.68171 -12.03206,-21.37097 45.39169,2.69315 -38.70241,-12.68369 34.01124,-8.68738 -42.00368,-3.34469 15.33334,-11.98865 -40.70053,3.34477 3.34476,-21.37107 z"
       style="fill:#ffff00;fill-opacity:1;fill-rule:evenodd;stroke:#000000;stroke-width:3.33596253;stroke-linecap:round;stroke-linejoin:round;stroke-miterlimit:10;stroke-opacity:1"
       inkscape:connector-curvature="0"
       inkscape:export-filename="X:\eclipse\soclab\experiment_templates\scudhunt\flavors\original\explosion.png"
       inkscape:export-xdpi="24.0877"
       inkscape:export-ydpi="24.0877" />
    <path
       id="path18900"
       d="m 353.96269,757.79212 -18.02629,-9.99054 -6.64586,12.68359 -50.03944,-12.68359 30.01495,16.02819 -32.01316,3.34477 26.67036,8.64387 -26.67036,8.03595 40.00558,-1.34667 -6.64594,9.99054 20.67612,-5.3427 5.99423,17.37477 15.33333,-20.02441 19.37296,14.68162 5.34262,-15.33315 30.01502,10.64207 -10.03395,-15.33334 34.7062,1.3465 -29.36341,-8.03577 26.01873,-7.99243 -32.66459,-1.9981 12.64019,-7.99243 -30.01504,2.64964 1.9981,-16.02819 z"
       style="fill:#ff0000;fill-opacity:1;fill-rule:evenodd;stroke:#000000;stroke-width:3.33596253;stroke-linecap:round;stroke-linejoin:round;stroke-miterlimit:10;stroke-opacity:1"
       inkscape:connector-curvature="0"
       inkscape:export-filename="X:\eclipse\soclab\experiment_templates\scudhunt\flavors\original\explosion.png"
       inkscape:export-xdpi="24.0877"
       inkscape:export-ydpi="24.0877" />
    <path
       id="path18902"
       d="m 353.96269,760.48517 -13.33512,-7.99243 -6.03775,8.64407 -37.35584,-8.64407 23.36909,11.98865 -26.01874,2.69315 20.0245,6.64577 -18.67792,5.34278 30.01494,-1.34648 -4.69116,8.03576 16.02819,-4.69116 3.99631,13.33522 11.33702,-13.98684 16.02819,9.99053 3.34477,-11.33703 23.32559,7.99244 -7.99244,-11.33712 26.67036,1.34658 -22.02252,-6.68927 20.0244,-4.64785 -24.67224,-1.9981 8.68747,-6.03765 -23.36908,1.34648 2.64964,-11.33702 z"
       style="fill:#ffcc00;fill-opacity:1;fill-rule:evenodd;stroke:#000000;stroke-width:3.33596253;stroke-linecap:round;stroke-linejoin:round;stroke-miterlimit:10;stroke-opacity:1"
       inkscape:connector-curvature="0"
       inkscape:export-filename="X:\eclipse\soclab\experiment_templates\scudhunt\flavors\original\explosion.png"
       inkscape:export-xdpi="24.0877"
       inkscape:export-ydpi="24.0877" />
    <path
       id="path18904"
       d="m 353.96269,762.48329 -9.99054,-5.34279 -4.69108,6.68927 -28.66854,-6.68927 17.33144,8.68737 -18.67792,1.99821 15.33332,5.99423 -13.98684,3.9963 21.97927,-0.65118 -3.30126,6.68937 11.98865,-3.34477 3.99612,9.99054 7.3409,-11.33703 11.33703,8.68739 3.34468,-10.03386 18.02629,6.68926 -5.99424,-8.68746 19.32946,0 -16.02819,-4.64776 14.68162,-3.99613 -18.67792,-1.34666 6.68927,-5.34269 -16.67981,1.9981 0.65118,-9.99053 z"
       style="fill:#ffff00;fill-opacity:1;fill-rule:evenodd;stroke:#000000;stroke-width:3.33596253;stroke-linecap:round;stroke-linejoin:round;stroke-miterlimit:10;stroke-opacity:1"
       inkscape:connector-curvature="0"
       inkscape:export-filename="X:\eclipse\soclab\experiment_templates\scudhunt\flavors\original\explosion.png"
       inkscape:export-xdpi="24.0877"
       inkscape:export-ydpi="24.0877" />
    <path
       id="path18906"
       d="m 355.30935,765.82787 -8.03593,-4.69106 -3.30127,4.69106 -20.0244,-4.69106 11.98865,6.68927 -13.33513,1.34648 11.33702,4.64775 -11.33702,3.34468 16.6798,-1.34658 -1.99819,4.69118 8.68747,-2.69298 2.64964,8.03576 5.3427,-8.68738 8.68747,6.68937 2.64964,-6.68937 12.03199,3.99622 -4.69108,-6.68928 14.68161,0 -11.33703,-3.30126 9.99055,-3.34459 -13.33513,-0.65208 5.99423,-3.34477 -13.33514,0.65208 0.65118,-6.68928 z"
       style="fill:#ff0000;fill-opacity:1;fill-rule:evenodd;stroke:#000000;stroke-width:3.33596253;stroke-linecap:round;stroke-linejoin:round;stroke-miterlimit:10;stroke-opacity:1"
       inkscape:connector-curvature="0"
       inkscape:export-filename="X:\eclipse\soclab\experiment_templates\scudhunt\flavors\original\explosion.png"
       inkscape:export-xdpi="24.0877"
       inkscape:export-ydpi="24.0877" />
    <path
       id="path18908"
       d="m 352.61621,767.17454 -3.34459,-2.69315 -0.65118,3.34469 -10.6855,-3.34469 6.03766,4.69117 -6.03766,0 4.69117,1.99811 -4.69117,2.64964 8.03585,0 -0.69477,1.9981 3.99622,-1.34648 0,4.69116 3.34468,-4.69116 4.69107,3.34468 1.30317,-3.9963 5.34279,3.34468 -1.99811,-4.69117 6.68927,0 -5.99432,-1.30315 5.99432,-1.99811 -6.68927,-1.34648 1.99811,-1.99821 -5.34279,1.34667 0,-3.34477 z"
       style="fill:#ffff00;fill-opacity:1;fill-rule:evenodd;stroke:#000000;stroke-width:3.33596253;stroke-linecap:round;stroke-linejoin:round;stroke-miterlimit:10;stroke-opacity:1"
       inkscape:connector-curvature="0"
       inkscape:export-filename="X:\eclipse\soclab\experiment_templates\scudhunt\flavors\original\explosion.png"
       inkscape:export-xdpi="24.0877"
       inkscape:export-ydpi="24.0877" />
    <path
       id="path18910"
       d="m 335.9364,427.5409 -1.34658,0 -0.65118,-1.30317 -1.34657,-2.0416 -1.30307,-1.30299 0,-1.9982 -0.69478,-2.69305 -2.64964,-3.99621 -3.34467,-2.64965 -1.99812,-3.34469 -1.9981,-1.99802 -2.69315,-1.9982 -1.99801,-2.69305 -1.99811,-1.99819 -4.64785,-1.34649 -6.68926,-1.99811 -8.64398,-1.99802 -3.34467,0 -1.34649,0.69478 -6.68927,-0.69478 -6.64595,-1.30316 -22.02251,0 -2.69315,1.30316 -0.65119,0.69478 -1.34647,0 -3.30126,3.30117 -3.34469,0 -3.34459,1.34649 -1.34657,1.34657 -0.65118,0 0,1.9982 -1.34648,1.34648 0,0.65208 -1.99812,1.34657 -4.64775,1.99801 -1.9982,1.34666 -1.34649,1.99811 0,9.33892 -1.34647,1.99811 -3.34469,3.34469 -3.34468,1.99809 -1.99802,4.64767 -1.30316,4.69125 -0.69477,5.34279 0,5.29929 0.69477,4.69124 1.30316,4.64768 1.99802,2.0416 2.69306,1.99811 1.9982,2.64965 1.34648,3.34468 0.65208,3.34458 0,3.30119 1.34648,3.34477 1.34648,1.99802 0.65206,3.34459 3.34468,3.34477 3.30118,1.99802 4.69126,3.34459 3.34459,3.34477 5.34279,4.64765 6.64586,3.34478 8.03584,1.99802 6.64587,1.34657 1.9981,-1.34657 3.34469,0 4.69116,-0.65207 6.64585,-2.69315 5.3428,0 2.69297,1.34667 0,1.99802 -1.34649,1.34657 -1.34648,2.64965 -0.65207,1.99809 -1.34649,0 -1.34658,1.34658 -1.99809,0 -6.64586,0.65206 -6.68928,0 -5.34279,-0.65206 -5.99431,-1.34658 -3.99622,-1.30307 -3.34469,0 -3.34459,2.64965 -3.34469,1.99811 -1.30307,1.34649 -1.34657,0.65207 -0.65207,0 -2.69296,1.34666 -1.99812,0 -1.99818,1.34648 -1.34648,0.65208 -1.99812,1.34647 -1.34648,1.99811 -1.9982,1.30307 -2.64964,2.04161 -1.99812,1.30316 -1.34647,1.99803 -0.65206,1.34656 -2.69307,1.99802 0,6.68936 1.34657,1.30307 0,3.34478 1.3465,1.99801 0,3.34459 -1.3465,2.69315 -1.34657,3.30126 -0.65118,1.99803 0,4.69125 0.65118,0.65208 0,1.34656 1.34657,1.99802 1.3465,1.34667 0.65206,1.9981 1.34647,2.64965 0,6.68927 1.34649,1.99811 0,1.34657 1.9982,1.99811 4.64775,1.34649 1.99812,0.65118 3.34466,1.34648 4.69108,3.30117 5.29948,5.3428 8.03574,3.34458 5.3428,2.69315 5.29929,0.65118 4.69125,0 3.34458,-0.65118 3.34469,-1.34648 3.30126,-1.99812 3.34461,-1.34657 1.9981,-1.34656 2.69306,0 1.9981,-0.65208 0,3.3446 -1.34648,0.65117 -0.65207,2.69315 -1.34648,1.99811 -1.34657,1.30316 -1.99812,0.69477 -3.34458,1.30307 -1.99821,3.34469 0.69478,0 0,3.34466 -0.69478,1.99804 -2.64965,1.34657 -1.99809,1.34656 -4.69117,0 -1.9981,0.65208 -1.99811,0 -1.34649,1.34647 -1.9982,1.30318 -1.30307,0.69475 0,2.64965 -1.34657,1.99811 0,1.99802 1.34657,2.69314 -1.34657,1.99812 0,1.9981 -0.65207,2.64964 -1.34649,0 0,3.34469 1.34649,1.9981 0.65207,1.99802 0,4.69125 -0.65207,1.99811 0,2.64964 3.30127,3.34469 0.69477,1.9981 1.30316,1.34649 1.34648,1.99811 0.65118,4.69116 3.34477,3.30128 4.69117,3.34467 1.9981,3.34459 1.34649,1.99812 3.30126,1.34656 4.69116,-1.34656 3.34469,0 8.64397,6.68927 4.69116,-0.69477 3.34468,-1.30307 3.99622,0 2.64964,-1.34658 0,1.34658 -1.30315,1.30307 -1.34649,1.99819 -0.65207,1.34648 0,5.3428 0.65207,1.9981 -0.65207,1.34648 -1.34648,1.99811 -1.34649,2.64964 1.34649,1.99821 0,8.03576 -1.34649,0.65206 0,2.69297 -0.65207,1.99819 0.65207,3.30128 -0.65207,3.34459 0,1.34648 0.65207,1.9982 1.34649,1.34648 1.34648,0 0,13.98676 0.65207,2.69305 1.34649,1.99811 1.30315,1.34649 0,0.65207 0.69478,2.64964 2.64964,3.99622 0.65117,2.69305 1.34667,0.65206 3.3446,1.34632 5.34278,1.9981 6.64577,3.34469 6.68936,4.64774 5.99433,1.34649 5.34278,-1.34649 4.69108,-1.9981 4.64784,-1.30317 7.3409,0 2.69306,-1.34647 1.99801,-0.65208 1.99821,-1.34648 2.64964,-1.34657 3.34459,-0.65207 0.65119,0.65207 2.69304,-0.65207 1.99812,-1.34649 1.34656,-1.34648 0,-1.9981 0.65118,-1.9982 1.34657,-2.64965 1.30307,-1.9981 2.04153,0 1.30316,-1.34648 1.99811,-0.65208 1.34648,-2.69305 1.9982,-1.99811 1.34649,-1.99811 0,-6.68928 -1.34649,-2.64964 0,-3.99631 1.34649,-2.69296 0.65117,-3.34477 2.69314,-3.99613 0,-4.64774 -3.34485,-3.34478 -2.69296,-1.99811 -1.99812,-2.69314 -1.30316,-3.30117 0,-0.69478 -0.69477,-2.64964 -1.30316,-1.99811 -1.34648,-1.34648 0,-1.99811 -0.69478,-1.9982 -2.64964,-2.69306 -0.65207,-1.99802 3.99613,-1.99819 4.64776,0.69477 5.34279,2.64963 5.99431,0 3.3446,-1.34647 1.9981,-1.99811 1.99821,-1.30317 4.69107,-1.34648 1.9982,-1.9981 2.64964,-1.34658 0.69477,-1.99811 1.34649,-1.9981 0,-4.69117 3.30127,-3.30126 1.34647,-2.69315 0.65207,0 0,-1.99802 2.69306,-1.34658 0,-1.99801 0.65119,-1.9981 1.34647,-3.34469 0,-5.99442 1.34657,-3.34458 -1.34657,-1.99803 0,-4.64775 1.34657,-0.69476 0.65207,-1.30317 0,-1.34647 -0.65207,-1.99821 -1.34657,-1.99811 -1.34647,-3.34459 -0.65119,-3.34467 -1.34657,-3.34461 0,-3.30125 1.99819,-3.34469 -3.9963,0 -4.64776,-1.34648 -4.69116,-1.99811 -3.99621,-2.64964 -4.69117,0 -4.64775,-0.69478 -5.34279,0 -5.34278,-1.34666 -4.64775,-3.30118 -4.69117,-5.34269 -5.3428,-4.69117 -5.34269,-3.34476 -4.64784,-1.99804 -1.34649,-2.64964 0,-1.9981 2.64965,-1.34666 -5.99423,-3.99613 -1.9982,-2.64964 -1.99811,-2.04162 0,-9.99045 -1.34649,-3.34459 0,-3.34477 -1.30315,-1.99801 0,-2.64964 -0.69478,-1.99812 -4.64776,-4.69125 -3.34466,-3.99613 -3.3446,-3.34468 -3.34468,-5.99441 -1.30307,-3.34459 -1.99821,-3.99613 0,-5.99433 1.30318,-1.9981 -1.30318,-1.34666 -1.34647,-1.99803 0,-1.99811 -1.34649,-2.64964 0,-3.34459 2.69296,-6.68946 1.99821,-1.99801 0,-12.6836 2.64965,-1.99819 0.65206,-1.99801 0,-2.64965 1.34648,-0.69478 1.99811,-2.64972 1.34649,0 4.64784,-0.69478 3.34459,0 3.34469,-1.30299 0.65206,-1.34665 2.69297,-1.99801 0.65206,-1.34658 1.34649,-1.99821 1.9982,-1.34648 2.64965,-1.9981 -2.64965,1.9981 -3.9963,-0.65206 -5.99425,-1.34658 -6.68927,-1.99802 -5.3427,-3.34459 -4.64776,-3.30118 -1.99818,-3.34459 -1.34648,-3.34468 -1.3465,-2.64964 -0.65117,-1.99812 -2.69306,-3.34466 -1.99811,-1.99812 -1.9981,-2.69315 -1.34649,-1.9981 1.34649,-1.99802 1.9981,-3.3446"
       style="fill:#bdccd7;fill-opacity:1;fill-rule:evenodd;stroke:none"
       inkscape:connector-curvature="0"
       inkscape:export-filename="X:\eclipse\soclab\experiment_templates\scudhunt\flavors\original\explosion.png"
       inkscape:export-xdpi="24.0877"
       inkscape:export-ydpi="24.0877" />
    <path
       id="path18912"
       d="m 375.29035,584.34848 4.03962,1.34649 5.99424,3.30126 5.3428,4.03963 5.34278,5.99434 4.64775,3.34458 5.34279,0.65207 6.68928,1.34649 5.99423,1.99819 5.34278,2.64964 3.3446,0 3.30126,-1.34665 1.9982,-1.30299 2.69296,-0.69477 0.65119,-1.30316 2.69314,0 1.99802,-1.34648 1.99812,-0.65207 2.64964,-1.34657 0.69476,-1.99812 1.30317,-2.69314 1.99811,-1.99802 2.69305,-3.34469 1.99811,-3.30117 3.34459,-3.34468 1.9982,-3.3446 2.64963,-3.34466 0.69478,-1.99812 -0.69478,-3.34458 0,-2.64965 0.69478,-3.34477 1.30307,-3.34468 1.34658,-3.99614 0.65206,-3.34458 2.69297,-2.64965 0.65207,-1.99819 0,-4.69127 1.34648,-1.99801 0,-1.9981 1.34667,-1.34658 0.65207,-1.99802 0,-2.64964 -1.99812,-1.99819 -1.34656,-1.99812 0,-2.69314 -0.65118,-1.99802 0,-4.64775 -1.34648,-0.69477 -1.34649,-1.30316 3.34459,0 3.34468,-1.34649 1.34649,-0.65117 1.9981,-2.69315 1.34657,0 0,-0.65118 -2.04152,-2.69306 -1.30315,-1.99801 1.30315,-1.30316 -1.30315,-3.34469 1.30315,0 0.69478,-1.34657 1.34648,-0.65207 1.99811,-1.34648 2.64964,-1.34666 1.9982,-0.65207 1.9981,-1.34657 1.34649,-1.34658 1.99811,-0.65206 0,-2.64965 2.64963,-4.03972 0,-2.64964 0.69478,-1.99802 1.34657,-1.99811 3.30127,-1.34666 1.34649,-1.99802 3.34459,-1.34657 0.65207,-1.99803 1.34657,-1.30316 0,-1.34656 1.34657,-3.34469 0,-11.98856 0.65207,-3.34459 2.64965,-6.68945 0,-7.99235 -2.64965,-3.34468 -1.9981,-3.34458 -1.34649,-1.9982 -0.65207,-3.34459 -1.34657,-1.99803 -1.34649,-2.64972 -1.9981,-1.99803 -9.99054,-6.68945 -6.68928,-4.64766 -7.99244,-5.34269 -7.34088,-3.34469 -7.99243,-1.34657 -3.3446,0 -1.99811,1.34657 -3.34468,1.34648 -9.99045,0 -3.34468,0.65118 -4.69117,4.69126 0,1.30316 -1.9981,0.69477 -5.99433,-5.34279 -1.99811,0 -1.99811,1.99802 0,1.34666 -1.34657,1.30316 -1.34648,0.69477 0,1.30298 -1.99812,1.99812 -1.30315,-5.29929 -3.34459,-10.03396 -12.03206,-3.34468 -3.30127,-1.99801 -3.34468,-2.64974 -4.69108,-0.69477 -7.3409,0 -3.34467,-1.30307 -4.64776,-1.34657 -5.34279,0 -5.99423,1.34657 -3.34469,1.99801 -1.9981,1.34666 -4.69116,1.30316 -1.99811,0 -1.30317,0.69478 -1.9981,2.64963 0,1.99803 -1.34648,1.99811 0,3.34459 -1.34658,2.64964 0,12.03215 -0.65206,1.99802 -1.34649,2.64965 -1.34649,2.04161 -5.34278,5.29929 0,4.69124 4.69116,4.64768 1.99811,3.34476 1.34649,1.99802 0.65206,1.9981 1.34658,3.34469 2.64964,3.34459 10.68548,6.68945 5.99433,2.64964 5.34271,0.65207 4.69124,1.34649 3.30119,-1.99802 -2.64965,1.99802 -1.99811,1.34656 -3.34467,3.34469 -1.34649,1.99811 -1.99812,1.30307 -3.30126,0.69477 -3.34468,0 -3.34459,1.34658 -1.99811,0 -1.34658,1.9981 -1.34647,1.30307 -0.65119,1.34657 0,3.34469 -1.34648,0 -1.30316,1.9981 -0.69477,1.99802 0,9.99054 -1.30316,2.69315 -2.69297,3.34459 -0.65206,3.30118 0,2.0416 0.65206,3.30119 1.34649,2.69315 1.34648,1.9981 0,3.3446 -1.34648,1.99818 1.34648,3.34461 1.30316,4.64775 1.99811,3.34468 1.9982,5.34279 3.34459,3.34459 3.34468,4.64774 4.69108,3.34469 1.99819,1.9981 0,3.34469 1.30307,2.64964 0,6.68928 1.34658,3.34458 0,6.64595 0.65117,1.99811 3.3446,1.99802 5.99431,4.69125"
       style="fill:#bdccd7;fill-opacity:1;fill-rule:evenodd;stroke:none"
       inkscape:connector-curvature="0"
       inkscape:export-filename="X:\eclipse\soclab\experiment_templates\scudhunt\flavors\original\explosion.png"
       inkscape:export-xdpi="24.0877"
       inkscape:export-ydpi="24.0877" />
    <path
       id="path18914"
       d="m 432.67068,421.54648 0,2.64965 1.34649,2.0416 1.34647,0 0.65119,1.30317 1.34649,-2.64974 1.99819,-0.69477 1.34648,-2.64964 1.99812,0 1.34647,-0.65207 1.99821,0 1.30307,-1.34657 1.9982,1.34657 3.34458,0.65207 2.69315,0 3.99613,2.64964 1.34649,0.69477 3.30125,0 -1.30307,-1.99802 -0.69476,-1.9982 -2.64965,-2.69305 -1.99819,-0.65207 -6.68928,-2.69315 -11.98856,0 -3.34467,2.69315 -2.69307,3.99611"
       style="fill:#000000;fill-opacity:1;fill-rule:evenodd;stroke:none"
       inkscape:connector-curvature="0"
       inkscape:export-filename="X:\eclipse\soclab\experiment_templates\scudhunt\flavors\original\explosion.png"
       inkscape:export-xdpi="24.0877"
       inkscape:export-ydpi="24.0877" />
    <path
       id="path18916"
       d="m 466.03031,417.55035 3.34459,0 4.69117,0.65118 1.9981,2.69315 5.99433,1.9981 3.99622,1.99802 4.69116,3.34477 1.99811,3.30109 1.34647,4.69126 1.30318,3.34467 0,3.3446 0.69475,4.64784 0,3.3446 -0.69475,3.34467 0,1.99811 -1.30318,1.99802 -4.69107,0 -0.65207,-0.69477 0,-2.64965 0.65207,-1.99801 0,-1.34667 1.34649,-0.65206 0,-6.68928 -1.34649,-1.30307 0,-4.69126 -1.99819,-0.65207 -1.99811,-2.69314 -3.34459,-3.34467 -2.64965,-1.99812 -0.69477,-1.99801 -3.34467,-2.64974 -3.30118,-1.99801 -4.69126,-1.34667 -1.34648,-1.99802 -0.65207,-1.34657 0.65207,-0.65207"
       style="fill:#000000;fill-opacity:1;fill-rule:evenodd;stroke:none"
       inkscape:connector-curvature="0"
       inkscape:export-filename="X:\eclipse\soclab\experiment_templates\scudhunt\flavors\original\explosion.png"
       inkscape:export-xdpi="24.0877"
       inkscape:export-ydpi="24.0877" />
    <path
       id="path18918"
       d="m 230.51473,444.2207 0,3.99613 0.69477,2.69315 0,1.9981 1.30316,1.34648 1.34648,1.99821 0.65207,1.99801 1.34667,2.64973 1.34648,3.34461 0,3.34467 0.65206,1.99811 2.69307,1.99802 3.34459,2.64965 3.30126,2.04159 1.99811,1.99812 1.99802,2.64964 2.69314,1.99803 1.99811,1.34665 3.34468,0.65118 1.99812,2.69315 1.34648,1.99811 -1.34648,1.99802 -1.99812,0 -3.34468,-0.69477 -4.69125,-2.64964 -3.30109,-3.34469 -5.3428,-3.34459 -3.34466,-1.9981 -1.3465,-1.30307 -1.99811,0 -1.34666,-1.99812 -0.65206,-1.34665 -2.64965,-3.99614 0,-2.69314 -0.69478,-1.9981 0,-3.3446 -1.30307,-1.99802 -1.34656,-2.64982 -1.9981,-3.3446 0,-5.34279 1.34648,-1.99801 3.30125,-3.34459"
       style="fill:#000000;fill-opacity:1;fill-rule:evenodd;stroke:none"
       inkscape:connector-curvature="0"
       inkscape:export-filename="X:\eclipse\soclab\experiment_templates\scudhunt\flavors\original\explosion.png"
       inkscape:export-xdpi="24.0877"
       inkscape:export-ydpi="24.0877" />
    <path
       id="path18920"
       d="m 323.94775,727.12591 0,1.9981 -1.34648,1.34648 0,1.9982 1.34648,3.3446 0.65118,3.30127 1.34648,1.34648 1.9981,0.65118 1.34658,2.69315 1.30307,0.65116 0.69478,2.69307 2.64964,3.34459 1.9982,0.65207 1.34648,2.64964 3.34459,0 1.99819,0.69477 2.64965,2.64965 0.69476,1.99811 2.64965,1.34657 -7.99243,0 -4.69116,-2.69314 -4.64776,-3.30119 -7.34089,-7.34089 -3.34469,-2.69297 -1.34648,-1.9982 -1.34656,-3.34459 0,-8.64406 1.34656,-1.34647 1.99811,-1.34649 2.69306,-0.65207"
       style="fill:#000000;fill-opacity:1;fill-rule:evenodd;stroke:none"
       inkscape:connector-curvature="0"
       inkscape:export-filename="X:\eclipse\soclab\experiment_templates\scudhunt\flavors\original\explosion.png"
       inkscape:export-xdpi="24.0877"
       inkscape:export-ydpi="24.0877" />
    <path
       id="path18922"
       d="m 352.61621,759.13905 2.69314,1.34648 3.30118,0 3.3446,-1.34648 5.34279,0 3.34459,-3.34468 -1.34649,-1.99811 -1.9981,0 -1.99812,0.69476 -2.64964,1.30317 -3.34467,-1.30317 -3.99614,2.64965 -2.69314,-1.34648 -3.34459,0 1.34648,1.34648 1.34648,0.65208 0.65118,1.34656"
       style="fill:#000000;fill-opacity:1;fill-rule:evenodd;stroke:none"
       inkscape:connector-curvature="0"
       inkscape:export-filename="X:\eclipse\soclab\experiment_templates\scudhunt\flavors\original\explosion.png"
       inkscape:export-xdpi="24.0877"
       inkscape:export-ydpi="24.0877" />
    <path
       id="path18924"
       d="m 365.95143,661.05827 1.34649,4.69117 0,1.99811 1.9981,2.64964 3.34469,0.69477 4.69108,3.30117 5.29945,2.69307 3.3446,1.9982 2.69313,3.34458 -1.34665,1.99812 -1.99811,2.64964 -2.69297,0 -3.30127,-4.64776 -3.34468,-3.34458 -3.99612,-1.9982 -4.69125,-1.34649 -1.99812,-1.99811 -1.34656,-2.64964 0,-1.99811 -1.30308,-2.69314 0,-0.65207 1.30308,-1.34648 1.34656,-1.9982 0.65118,-1.34648"
       style="fill:#000000;fill-opacity:1;fill-rule:evenodd;stroke:none"
       inkscape:connector-curvature="0"
       inkscape:export-filename="X:\eclipse\soclab\experiment_templates\scudhunt\flavors\original\explosion.png"
       inkscape:export-xdpi="24.0877"
       inkscape:export-ydpi="24.0877" />
    <path
       id="path18926"
       d="m 355.30935,547.64418 1.99802,-1.99811 1.99812,0 2.64964,0.65118 0.69476,1.34665 1.30317,3.3446 1.99811,1.99811 1.34648,2.64965 -1.34648,0.69476 0,4.64784 1.34648,1.99803 0,3.34458 1.99819,2.69315 1.34649,1.99811 0,1.30316 1.99811,0.69477 1.34648,0 0,3.34459 -1.34648,1.30317 0,1.99801 -0.65207,1.34665 -1.34657,1.99804 -1.34657,0 -1.99812,-1.99804 -1.34648,-1.99818 -1.9981,-2.64965 -1.30317,-3.34459 0,-1.99811 -0.69476,-1.9982 -1.30317,-2.69305 -2.04152,-0.65118 0,-2.69315 -1.30306,-0.65118 0,-3.34468 1.30306,-3.34458 -1.30306,-3.30128 -1.99804,-2.69314 0,-1.99802"
       style="fill:#000000;fill-opacity:1;fill-rule:evenodd;stroke:none"
       inkscape:connector-curvature="0"
       inkscape:export-filename="X:\eclipse\soclab\experiment_templates\scudhunt\flavors\original\explosion.png"
       inkscape:export-xdpi="24.0877"
       inkscape:export-ydpi="24.0877" />
    <path
       id="path18928"
       d="m 245.89147,507.59518 -8.68746,-3.30117 -3.34461,-3.34459 -3.34467,-4.69125 -4.64776,-3.30118 -1.9981,-2.04162 -3.34469,-2.64964 -2.69305,-1.99801 -1.99802,-1.99812 -1.30316,-2.69315 -1.99811,-1.9981 0,-1.30307 -1.34657,-1.99812 0,-11.38051 -1.99811,-1.99811 -1.9981,-3.30118 -2.69306,-4.69125 -0.65207,-3.3446 0,-7.34081 0.65207,-3.34477 1.34657,-3.30117 1.34649,-2.69306 0.65117,-3.34469 1.34649,-1.9981 0,-6.64577 1.34648,-1.9982 0,-3.34459 0.65118,-1.34666 2.64965,-1.99801 0.69476,-1.34658 2.64965,-1.99802 1.99819,-1.30316 1.34649,-2.04161 1.99811,-2.64965 1.34648,-0.65206 0.65118,-2.69315 1.34658,-1.9981 3.34458,-3.3446 3.30127,-1.99801 3.34469,-2.64983 4.69108,-1.99801 3.9963,-1.34658 4.64775,-0.65119 8.03575,0 1.9982,-1.34647 4.64775,-1.34667 6.68927,0 6.68928,1.34667 5.29937,-1.34667 6.68927,1.34667 7.99244,1.99801 6.68927,4.69125 3.34459,1.30308 3.34468,0.69476 7.29741,1.30308 4.69124,1.99811 3.34469,1.34648 1.9981,1.9982 1.34648,2.69305 1.30317,3.30118 0.69476,2.04161 1.30317,1.99811 1.99801,2.64964 2.69306,-6.68936 0,-2.64965 -1.34649,-3.34458 0,-6.64587 1.34649,-3.34467 0.65118,-1.99803 1.34658,-1.99819 1.9981,0 1.34648,-1.34648 1.34649,1.34648 3.30126,0 1.9982,-1.34648 3.34459,-1.99811 4.69118,-3.34468 5.34278,0 4.64775,0.65207 4.69126,2.69314 5.34261,0 1.99819,-1.34657 3.30127,0 3.34459,1.9981 3.34468,1.34658 2.64964,1.34657 6.68928,0 3.99622,3.3011 3.34468,4.0398 5.99424,5.99423 0,3.34469 0.69476,1.9981 0,5.34279 -0.69476,1.30299 -2.64965,1.9981 -3.34459,1.34657 1.34648,-1.99802 -1.34648,-2.64964 0,-3.34476 -0.65119,-1.99803 -2.69314,-1.9981 -0.65117,-3.34469 -2.69307,-2.69314 -0.65207,-1.9981 -4.64775,-3.30119 -3.34459,-1.34657 -4.69116,-0.69477 -7.34091,0 -3.34467,-1.30307 -4.64776,-1.34657 -5.34279,0 -5.99423,1.34657 -1.9981,1.99802 -6.68928,2.64981 -3.34468,0 -1.30316,0.69478 -1.99811,2.64965 0,1.99801 -1.34648,1.99811 0,5.99424 -1.34649,3.34477 0,8.68738 -0.65117,1.99801 -1.34657,2.64965 -1.34648,2.04162 -1.99812,1.99819 -1.9981,0 -1.34658,-0.69477 -1.30307,-2.64983 0,-0.69476 -0.69477,-2.64964 0,-1.99803 -1.30316,-1.99811 -1.99811,-2.69314 -3.34468,-1.99811 -2.69297,-3.30118 -1.99819,-2.04161 -1.34657,-2.64965 -1.99802,-1.99801 -3.30127,-1.99811 -4.69117,-1.34657 -5.34279,-1.99802 -9.99054,-2.64965 -3.34458,0 -1.3465,1.30299 -6.64594,-1.30299 -6.68928,-0.69476 -3.99621,-1.30317 -5.99433,1.30317 -6.68926,0 -1.99812,-1.30317 -3.34468,1.30317 -1.34656,0 -1.99803,0.69476 -1.30316,1.30299 -0.69477,1.34666 -2.64965,0.65118 -6.68926,2.69305 -0.65119,0.65208 -1.34648,0 0,1.34666 -1.34666,1.99802 0,1.34656 -1.99802,1.30307 -4.64775,2.04162 -1.9981,1.30317 -1.3465,0.69476 0,9.99037 -0.65206,2.64964 -3.34468,2.0416 -3.3446,3.30119 -2.64964,4.69125 -0.69477,3.99612 -1.30316,5.99442 0,5.34269 1.30316,4.69126 0.69477,3.3011 2.64964,3.34477 1.99812,0.69476 1.9981,3.30118 1.34648,3.34459 1.34658,2.69314 0,3.99614 0.65206,3.34477 1.3465,2.64965 1.34648,3.34466 3.30125,3.34461 3.99614,1.99809 3.34477,1.99803 3.34468,4.64784 5.99424,4.69126 6.68927,3.34459 7.34089,1.9981 6.64579,1.30307 3.34476,-1.30307 3.34468,0 3.34459,-1.34657 3.34468,-0.65207 3.30109,-1.34648 6.68945,0 1.34648,1.34648 0,1.99811 -1.34648,1.30308 0,2.04159 -0.65207,0 -3.34467,3.30111 -2.69315,0 -6.64577,1.34665 -6.68928,0 -5.34279,-1.34665 -5.29937,-0.65208 -4.69116,-1.34648 -3.3446,0 -3.34468,1.34648 -3.30126,3.34468 -1.3465,0.65207 -0.65206,1.34657 -1.34648,0 -1.99811,1.34657 -2.69306,0 -1.99811,0.65207 -1.34666,1.34649 -1.99802,1.30315 -1.30307,1.99803 -1.9982,1.34657 -1.99811,1.99811 -2.69295,1.34657 -0.65208,1.9981 -3.34468,3.34461 0,6.64585 0.65117,1.34658 0,0.69476 1.34649,2.64965 0,5.34278 -1.34649,1.99812 -0.65117,3.34467 -1.34649,2.64965 0,3.34459 1.34649,1.99811 0,1.34657 0.65117,1.99812 1.34649,1.34647 1.34658,1.99811 0.65206,1.9982 0,6.64577 1.34648,1.34657 1.3465,1.99803 0.65206,2.69314 4.64775,0.65207 3.34468,1.34647 1.99811,1.30318 4.69117,3.34467 6.64586,5.34271 6.68926,3.34466 5.3428,1.99812 5.99432,1.34649 3.99622,0 3.34468,-1.34649 3.34459,-0.65207 3.34468,-2.69315 3.30108,-0.65206 2.69315,-1.34648 1.99812,0 1.99819,-1.34658 0,4.69126 -0.65206,1.9981 -3.34469,3.34459 -2.69314,1.30308 -3.30109,1.34656 -3.9963,0.69478 -13.37855,0 -4.64775,-0.69478 -3.34469,0 -4.69125,-2.64964 -1.99802,-1.9981 -6.64586,-3.34459 -6.68927,-1.9982 -13.33522,-6.68928 -1.34649,-3.34458 -0.65118,-1.30317 -1.34648,-1.99811 0,-6.68928 -1.99811,-2.64964 -2.64965,-2.0416 -1.99819,-3.30118 -1.99811,-1.99811 -1.34648,-2.69315 -1.9981,-1.99801 0,-1.99811 -1.34658,-3.34468 1.34658,-3.3446 0.65206,-2.64964 1.34647,-1.99811 0,-15.33333 1.3465,-3.34468 0.65206,-1.34648 2.64965,-1.34658 1.99811,-0.65206 1.34658,-2.64965 1.9981,-0.69477 1.34648,-3.34467 0.65118,-4.64776 3.34468,-1.9981 4.69108,-2.69315 4.64784,-1.99803 3.99622,-1.9981 4.69116,0 1.9981,-1.34666 1.3465,0"
       style="fill:#000000;fill-opacity:1;fill-rule:evenodd;stroke:none"
       inkscape:connector-curvature="0"
       inkscape:export-filename="X:\eclipse\soclab\experiment_templates\scudhunt\flavors\original\explosion.png"
       inkscape:export-xdpi="24.0877"
       inkscape:export-ydpi="24.0877" />
    <path
       id="path18930"
       d="m 280.55417,611.01884 0.69477,0 0,1.99802 -0.69477,1.34657 -1.30307,1.99802 -1.34657,1.34666 -1.99812,1.34648 -5.34279,0 -1.34648,0.65207 -1.99811,0 -1.34648,1.34649 -1.9982,1.30315 -1.30307,0.69478 -1.34657,1.30307 0,11.38052 -0.65118,0.65207 -1.34649,2.64965 -1.34647,0 1.34647,1.99801 0,3.34469 1.34649,1.99802 0,1.34666 0.65118,1.99802 -0.65118,1.34657 0,5.34279 0.65118,1.30308 2.64964,1.34657 0.69477,1.99809 1.30316,1.34658 0,1.99811 1.99803,4.69116 6.68935,6.64587 2.69306,3.34468 1.99811,1.9981 3.30127,1.34649 4.69116,-1.34649 3.34459,-0.65207 1.9982,0.65207 7.99235,0 3.9963,-0.65207 9.33892,-9.33892 1.99811,-0.69476 1.34648,0 0,0.69476 0.65206,1.30317 -0.65206,1.99802 0,1.34657 -1.34648,1.34648 -1.30317,0.65118 -0.69476,2.69306 -1.30308,0.65208 -3.34467,3.34458 -3.3446,1.34658 -3.34468,0 -3.34459,1.9981 -5.29947,2.64964 -6.03765,-1.34648 -6.64585,-1.99819 -7.3409,0 -6.68928,-6.64587 -1.34648,-2.69305 -1.9982,-1.99811 -2.64964,-1.99811 -1.9981,-1.34648 -1.99812,-1.99819 -1.34648,-2.64965 -1.9982,-1.99811 -2.69305,-6.68927 0,-5.99425 2.69305,-3.9963 0,-2.69313 -2.69305,-6.64579 0,-1.99809 -0.65118,-3.34469 0,-3.34459 0.65118,-1.34666 1.34657,-0.65207 0,-2.64964 1.34648,-2.04161 0,-4.64767 0.65207,-0.65118 1.34657,-2.69305 1.99812,-0.65207 4.69116,0 3.30127,-1.34657 6.68926,0 4.69108,-1.34658 3.30128,-1.99802"
       style="fill:#000000;fill-opacity:1;fill-rule:evenodd;stroke:none"
       inkscape:connector-curvature="0"
       inkscape:export-filename="X:\eclipse\soclab\experiment_templates\scudhunt\flavors\original\explosion.png"
       inkscape:export-xdpi="24.0877"
       inkscape:export-ydpi="24.0877" />
    <path
       id="path18932"
       d="m 420.68195,504.29401 1.34666,0.65207 3.99613,0 4.64774,-1.99802 3.34469,-1.34657 4.69125,-0.65118 3.99613,0 4.64774,0.65118 3.34469,2.69314 3.34459,3.3011 1.9982,3.34477 3.34459,1.99801 1.34648,2.69315 3.30128,3.34458 1.34657,0.65207 1.99811,1.34658 1.34648,1.30307 0,4.03963 0.65118,2.64964 0,1.99821 1.34648,1.99801 1.34666,1.34657 0.65119,1.34649 -0.65119,1.99819 0,1.30307 -1.34666,1.99802 0,2.04161 -1.34648,2.64965 0,3.99621 -0.65118,2.69306 -2.69297,1.9982 -0.65118,3.30109 -1.34657,3.34477 -1.30307,4.69116 -0.69477,3.34459 0,1.9982 0.69477,3.30109 -0.69477,2.04162 -2.64965,3.30117 -1.9982,3.34468 -3.34459,3.34468 -1.9981,3.34469 -2.69306,2.64963 -1.99812,3.3446 -1.30315,1.9982 -0.69478,1.99802 -2.64963,1.34656 -1.99812,1.34649 -1.99801,0 -2.69315,0.65207 -0.65206,1.34657 -2.69297,1.30307 -1.9982,0.69478 -3.30126,1.30306 -3.34461,0 -5.34278,-3.30117 -5.99424,-1.3465 -6.68927,-0.65206 -5.34279,-1.34648 -4.64775,-3.34468 -5.34278,-5.3428 -5.34279,-4.64775 -5.99423,-3.34459 -4.03963,-1.34666 -2.64965,1.34666 0,1.99811 1.34648,2.64965 3.34459,1.99802 6.64596,2.04161 5.34278,5.99423 4.69108,5.34279 4.64784,3.30118 5.3427,1.34657 5.34279,0 4.64775,0.69477 4.69116,0 3.99631,2.64964 4.69108,1.99821 4.64783,1.34647 6.68936,0 1.99803,-2.69315 1.30315,-1.99801 2.04144,-1.9981 3.30127,0 6.68926,-2.64965 1.99821,-3.34469 0,-1.99809 1.34648,-3.34461 0,-1.34666 1.30315,-1.99801 0.69478,-1.30316 1.34649,-0.69478 4.64774,-4.64775 0.65207,-1.9981 1.34649,-1.34649 1.34657,-3.34467 0,-7.99244 0.65118,-1.99811 0,-1.34648 1.34648,-1.99811 1.34658,-1.34665 0,-0.65208 1.99801,-1.34648 1.30317,-1.99812 2.04152,-1.34657 0,-1.30307 1.30315,-0.69476 0.69477,-2.64964 0,-10.03405 -0.69477,-3.30117 0,-6.68928 0.69477,-3.34477 1.30308,-1.99802 0,-1.99812 -1.30308,-3.34458 -0.69477,-2.64965 -6.64585,-6.68945 -2.69306,-3.34458 -3.34468,-3.30119 -1.99811,-3.34458 -5.3428,-5.3428 -2.64964,0 -3.34459,-1.34665 -5.34278,-1.99804 -3.30128,-2.64964 -12.03205,0 -3.3446,1.30307 -2.64965,1.34657 -3.34467,1.99804 -0.65118,1.99818 -1.34658,2.69306"
       style="fill:#000000;fill-opacity:1;fill-rule:evenodd;stroke:none"
       inkscape:connector-curvature="0"
       inkscape:export-filename="X:\eclipse\soclab\experiment_templates\scudhunt\flavors\original\explosion.png"
       inkscape:export-xdpi="24.0877"
       inkscape:export-ydpi="24.0877" />
    <path
       id="path18934"
       d="m 411.99456,429.53891 -2.64964,-1.99801 -0.69477,-1.30317 -1.30316,-2.0416 1.30316,-2.64965 0.69477,-3.34459 1.34648,-0.65207 1.99821,-2.69315 1.30307,-1.9981 1.99819,-1.30308 1.34648,-0.69477 0,-1.30316 1.34649,-2.0416 0.65118,0 3.34468,-3.3011 1.34649,0 1.30315,-1.34658 0.69478,-1.34656 1.34648,-1.99811 0,-1.34657 1.30316,-0.65207 0.69477,-1.34657 1.30307,0 3.34468,-1.30307 14.68171,0 3.34458,-0.69478 3.34478,0 6.64577,0.69478 7.34089,3.30117 4.69116,1.34648 3.3446,1.34666 1.99819,0.65208 5.99425,2.69314 3.34476,3.3011 3.99613,3.34476 3.34468,1.99802 4.64775,1.99811 1.99812,2.69314 2.69314,3.34469 1.99802,3.99612 1.9981,4.64776 2.64964,4.69125 3.99632,3.99613 1.34647,2.64964 0,5.34279 -1.9981,3.34468 -1.34658,3.34467 0,3.34469 -1.30307,1.99802 0,1.34657 1.30307,1.30316 0,5.3427 -1.30307,4.69126 -0.69476,3.99612 -1.30317,3.34477 -2.04151,3.30109 -4.64776,4.69126 -1.34648,1.99802 -0.65208,2.64964 -1.34656,2.04161 0,1.99819 -1.34649,2.64964 -3.30126,3.34461 -3.3446,1.9981 -3.34468,1.34657 -1.9981,1.99811 -3.34469,1.30298 -1.99811,1.34667 -2.64964,1.9981 -0.69477,1.34649 -1.30316,1.9982 -1.34648,-1.9982 -0.69478,-2.64964 0,-4.69126 0.69478,-0.65207 2.64964,-1.34648 1.99811,-1.34658 1.9982,-0.65118 1.34648,-1.34665 1.9981,-1.34649 1.34649,-0.65117 1.9982,-1.34667 1.34648,-1.99802 1.30316,-2.64973 0,-1.99802 0.69477,-1.99812 1.34648,-2.69313 1.30317,-1.99811 1.9981,-1.34649 1.99811,-1.9982 2.69305,-1.30299 0.65208,-1.99809 1.34648,-1.34667 1.34657,-1.99802 0,-11.33702 0.65118,-3.34477 1.34658,-3.34459 0,-3.34469 1.30307,-3.99611 0,-6.68937 -2.64965,-3.30119 -0.65118,-3.34467 -1.34657,-2.69306 -1.34648,-3.30118 -1.9982,-1.99811 -1.34648,-2.04161 -1.99812,-2.64964 -1.9981,-0.65118 -7.99243,-6.03783 -6.68927,-5.29928 -6.64595,-4.69125 -8.68738,-3.3446 -7.99244,-0.65207 -3.34459,0 -1.99811,0.65207 -3.34469,1.34658 -9.99045,0 -3.34466,1.34657 -3.34469,3.30109 -1.34648,0.69477 0,1.34665 -1.99811,1.30317 -3.34469,1.99801 -3.30117,1.34658 -1.34658,0.65207 -1.34648,1.34648 0,1.34667 -0.65206,0.65207 -1.34658,0 -1.34649,1.34657 -1.99811,1.34657 -1.30315,0.65207 -0.69477,2.64965 0,5.34269"
       style="fill:#000000;fill-opacity:1;fill-rule:evenodd;stroke:none"
       inkscape:connector-curvature="0"
       inkscape:export-filename="X:\eclipse\soclab\experiment_templates\scudhunt\flavors\original\explosion.png"
       inkscape:export-xdpi="24.0877"
       inkscape:export-ydpi="24.0877" />
    <path
       id="path18936"
       d="m 307.91956,692.41979 1.34649,-1.99818 1.9981,-1.34649 1.34657,-1.99812 1.99811,-1.30315 2.64964,-1.34648 1.99811,-0.65208 1.34649,-1.34647 0.65207,-1.34658 0,-0.65207 1.34657,0.65207 0,5.99432 -1.34657,1.99811 0,1.34648 -5.3427,5.34279 -1.30317,0 -1.9981,1.34649 -1.34658,0 -0.65117,1.99819 -1.3465,1.99811 -1.34647,2.64964 1.34647,1.99812 0,8.03574 -1.34647,0.65208 0,2.69306 -0.65119,1.9981 0.65119,3.30127 -0.65119,1.99802 0,2.69315 0.65119,1.9981 1.34647,0 1.3465,1.34648 0,13.98686 0.65117,2.69296 1.34658,0.65207 1.30307,1.34657 0,1.99812 0.69477,2.64963 2.64964,3.99614 0.65207,1.34666 2.69315,1.9981 1.99811,0 5.34278,2.69297 6.64578,3.9963 6.68944,3.34459 5.99424,1.30317 5.34279,0 4.69116,-1.99811 4.64776,-2.64965 3.99622,1.34649 3.34466,0 2.69315,-1.34649 1.99803,-0.65206 1.9981,-1.34649 3.34459,-1.34658 2.64965,-0.65206 3.99631,0 1.34647,-1.34649 1.34667,-1.9981 0.65118,-2.69315 1.34649,-1.99801 1.30315,-1.30316 0.69478,-1.99812 1.34648,0 1.99811,-1.34648 2.64964,-0.65207 0.65207,-2.69306 1.34649,-1.9981 1.9982,-1.99811 0,-6.68927 -0.65119,-2.64964 -1.34658,-1.99812 0,-1.99819 1.34658,-3.3446 0.65119,-2.69314 2.69304,-1.99802 0,-1.99811 0.65208,-3.30126 -0.65208,-1.34649 -2.69304,-4.69116 -1.9982,-0.65118 -1.99812,-2.69315 -2.64964,-3.30117 0,-1.99812 -0.69477,-1.34648 0,-1.99811 -1.30316,-1.99819 -1.34648,-1.34649 -0.69477,-1.99811 -1.30316,-2.69314 -1.99802,-1.99802 3.99622,-1.99811 4.64775,0.69477 5.34279,1.30317 5.99423,1.34648 4.03963,-1.34648 1.30315,-1.99821 1.99812,-1.30307 4.69116,-1.99819 3.34459,-1.34649 1.30316,-1.34648 0.69477,-1.99811 1.34648,-1.99819 1.30317,-1.34649 0,-3.34459 0.69477,-1.30315 1.30316,-0.69478 1.34648,-1.30316 0,-2.69314 0.65207,0 2.69306,-3.99614 0.65118,-1.34648 0,-1.9981 2.69305,-6.64596 0,-6.03773 -1.34657,-1.99802 0,-3.34477 1.99811,-1.99802 0,-4.64776 -0.65118,-1.9981 -2.69314,-3.34468 -0.65118,-3.3446 0,-6.64594 3.9963,3.30127 3.34459,4.03962 2.64964,3.30119 1.99821,3.34458 0,9.3391 -1.30317,0 -0.69476,1.99811 0,1.99802 -1.30316,3.34459 1.30316,3.34477 0,7.99243 -1.30316,1.99802 0,2.69314 -1.34649,0.65207 -1.99811,2.69306 -1.99802,1.9982 -1.34666,2.64965 -1.34648,0.65206 0,8.03585 -0.65118,1.99811 -4.69117,4.64784 -3.30127,1.34648 -3.34459,0.65208 -1.99802,1.34656 -3.34477,1.34657 -3.34468,0.65208 -3.34458,1.34648 -4.64776,0 -8.68746,-1.99811 0.65206,1.99811 1.34658,4.69116 1.99809,1.99811 2.69315,3.30126 5.34262,5.3428 1.9981,2.69297 0,0.65207 1.30316,2.69305 0,1.99811 -1.30316,1.30316 0,3.34459 -0.69477,1.99811 -1.30307,1.9982 0,1.34648 -1.34658,1.34648 0,18.67792 -1.9981,1.9982 -1.34648,2.64964 -1.99811,1.99811 -3.34469,1.34649 -3.34458,0.65117 -1.9982,2.69315 -2.64964,3.99622 -0.69478,2.69305 -1.30307,1.99812 0,1.30315 -1.99801,0.69478 -1.34667,1.30315 -5.34278,0 -4.64776,1.34649 -3.34459,0 -1.34657,0.65207 -3.99622,2.69315 -1.34648,0.65206 -1.9982,1.34648 -2.64964,0 -0.69477,1.34648 -3.34459,0 -6.64596,-2.69296 -5.99423,1.34648 -6.68928,0 -4.69116,-1.99819 -1.99801,-2.69314 -3.30128,-0.65208 -4.69116,-1.34648 -6.68935,-4.64775 -5.29929,-3.34469 -1.99812,-3.99621 0,-2.69315 -2.69304,-3.30117 -0.65208,-1.99812 -2.69296,-1.9981 -1.99821,-2.69305 -1.34656,-1.99812 0,-4.69124 1.34656,-1.99803 0,-1.99811 -1.34656,-2.64964 0,-1.99811 -0.65208,-1.99819 0,-4.69108 0.65208,-1.9982 -0.65208,-1.34648 0,-4.64775 -1.34648,-1.99811 0,-4.69116 1.34648,-0.65118 0.65208,-1.34649 1.34656,-1.34666 -1.34656,-1.99802 0,-1.30316 -0.65208,-1.9981 0,-3.3446 0.65208,-1.34657 2.69296,-1.99856 1.99821,-1.34647 1.34647,-0.65119 0.65119,-1.34648"
       style="fill:#000000;fill-opacity:1;fill-rule:evenodd;stroke:none"
       inkscape:connector-curvature="0"
       inkscape:export-filename="X:\eclipse\soclab\experiment_templates\scudhunt\flavors\original\explosion.png"
       inkscape:export-xdpi="24.0877"
       inkscape:export-ydpi="24.0877" />
    <path
       id="path18938"
       d="m 147.8107,331.45778 229.52109,447.70531 m 1.30315,-41.35205 192.16532,-431.0255 M 413.99268,486.26736 478.71381,175.34514 M 325.94585,575.66065 254.53544,266.08511 M 391.97016,779.16309 665.53647,389.53306 M 320.60307,754.49086 117.75225,478.27493 M 410.6914,761.13681 608.80773,609.71532 m -443.01406,68.02242 82.09591,50.03943 m -233.517385,6.68928 270.178195,9.99054 m 162.8019,11.33702 280.90719,-33.35963"
       style="fill:none;stroke:#000000;stroke-width:3.33596253;stroke-linecap:round;stroke-linejoin:round;stroke-miterlimit:10;stroke-opacity:1"
       inkscape:connector-curvature="0"
       inkscape:export-filename="X:\eclipse\soclab\experiment_templates\scudhunt\flavors\original\explosion.png"
       inkscape:export-xdpi="24.0877"
       inkscape:export-ydpi="24.0877" />
  </g>
</svg>
