<?xml version="1.0" encoding="UTF-8" standalone="no"?>
<!-- Created with Inkscape (http://www.inkscape.org/) -->
<svg xmlns:svg="http://www.w3.org/2000/svg" xmlns="http://www.w3.org/2000/svg" version="1.0" width="491.20059" height="280.23785" id="svg2557">
  <defs id="defs2559"/>
  <g transform="translate(-128.56355,-585.57382)" id="layer1">
    <path d="M 240.04532,853.78959 C 238.98747,851.93737 236.77217,848.19927 235.12243,845.48267 C 228.5277,834.62327 224.31985,826.5605 224.23611,824.62305 C 224.16188,822.90588 224.00617,823.00946 223.25353,825.27665 C 222.76162,826.75841 218.8946,834.23465 214.66013,841.89049 C 208.86396,852.36985 206.46159,855.87946 204.94004,856.09048 C 203.31132,856.31632 202.7924,855.7512 202.26695,853.17933 C 201.10142,847.47467 202.5132,837.19461 206.09887,825.27665 C 208.03073,818.85561 209.60859,812.59175 209.60524,811.35693 C 209.60081,809.72598 206.81547,806.4814 199.4233,799.49618 C 190.31564,790.88992 189.17735,789.45115 188.57941,785.78995 C 187.74735,780.69517 186.88524,780.167 184.30933,783.17393 C 183.19379,784.47614 179.08747,788.66841 175.1842,792.49012 C 171.28093,796.31181 165.44666,802.19075 162.21915,805.55441 C 158.99164,808.91806 153.40007,814.52956 149.79345,818.02438 L 143.23598,824.37859 L 138.43743,820.04502 L 133.6389,815.71143 L 134.06531,809.26846 C 134.47504,803.07792 136.07525,798.1218 140.78493,788.45677 C 141.98836,785.98714 145.17064,778.91503 147.85668,772.74097 C 150.54271,766.5669 155.80955,754.84741 159.56076,746.69763 C 163.31197,738.54787 169.49711,724.80777 173.30553,716.16408 C 177.11394,707.52039 182.71456,694.99265 185.75134,688.32467 C 188.78812,681.65667 194.12499,669.73511 197.61105,661.83231 C 201.09712,653.92951 204.5447,646.25121 205.27236,644.76944 C 209.03919,637.09871 215.52201,621.76263 215.52201,620.52236 C 215.52201,619.74138 216.4478,617.95261 217.57934,616.5473 C 218.71088,615.14198 220.44048,611.82436 221.42289,609.17479 C 223.00282,604.91374 223.21703,604.68336 223.2777,607.17994 C 223.31742,608.81423 223.9639,610.22014 224.81333,610.51944 C 225.67551,610.82322 226.28038,612.1704 226.28038,613.78687 C 226.28038,615.40332 226.88526,616.7505 227.74744,617.05428 C 228.55432,617.33859 229.21746,618.03312 229.22109,618.59768 C 229.22473,619.16224 232.10276,625.88803 235.61671,633.54387 C 239.13068,641.19971 243.78885,651.50479 245.9682,656.44403 C 248.14755,661.38329 250.72786,667.04097 251.70222,669.01667 C 252.67656,670.99237 255.00931,676.04389 256.88608,680.24225 C 258.76285,684.44061 263.2352,694.34157 266.82464,702.24437 C 270.41406,710.14717 275.25671,720.85637 277.58606,726.04259 C 286.53539,745.96793 296.82119,768.43631 304.10306,783.96653 C 310.48121,797.56938 311.7535,801.10571 312.13058,806.27903 L 312.5787,812.42668 L 307.85415,816.83107 C 305.25566,819.25347 302.64099,821.23543 302.04377,821.23543 C 301.08336,821.23543 294.15285,814.62917 280.07226,800.29186 C 277.65162,797.82711 272.84535,793.03609 269.39164,789.64521 C 265.93793,786.2543 262.49692,782.67339 261.74496,781.68762 C 259.81767,779.16106 258.84283,780.13066 258.06075,785.35196 C 257.36714,789.9827 256.27844,791.54625 248.09934,799.65823 C 239.3541,808.33172 238.01709,809.946 238.45579,811.30175 C 238.70535,812.07299 240.6892,819.25278 242.86433,827.25683 C 246.86715,841.98647 247.31899,845.47534 246.19715,852.99072 C 245.39842,858.34152 242.83514,858.67438 240.04532,853.78959 z M 238.56443,832.43269 C 235.58292,823.64845 232.91505,816.25159 232.63584,815.99521 C 232.35663,815.73884 230.81243,816.68656 229.20429,818.10124 C 225.20476,821.61965 225.45272,824.13197 230.71034,833.36118 C 233.14681,837.63816 236.99781,844.43885 239.26814,848.47385 L 243.39598,855.8102 L 243.69069,852.10711 C 243.89455,849.54522 242.31477,843.48203 238.56443,832.43269 z M 213.48891,839.7259 C 222.52513,823.89891 223.10336,821.28245 218.46631,817.2032 C 216.85817,815.78852 215.37103,814.80363 215.16157,815.01459 C 214.62711,815.55286 208.62797,833.39421 208.12492,835.94155 C 207.89714,837.0949 207.04768,839.76427 206.23721,841.87351 C 204.90634,845.33707 204.15925,853.56509 205.17562,853.56509 C 205.40221,853.56509 209.14319,847.33746 213.48891,839.7259 z M 241.5418,834.94934 C 241.2168,834.65093 240.98564,835.18134 241.02811,836.12802 C 241.07504,837.17421 241.30679,837.387 241.619,836.67059 C 241.90153,836.02231 241.86679,835.24775 241.5418,834.94934 z M 240.05587,831.01981 C 239.5405,829.83676 239.09093,829.34093 239.05683,829.91794 C 238.974,831.31944 240.11334,833.97845 240.60371,833.52816 C 240.81778,833.33161 240.57125,832.20284 240.05587,831.01981 z M 236.90658,820.29214 C 235.68946,816.21418 234.52502,813.34214 234.31894,813.90983 C 233.89127,815.08791 238.09799,828.6446 238.71534,828.07773 C 238.93764,827.87361 238.1237,824.3701 236.90658,820.29214 z M 213.22972,814.34103 C 212.97909,814.11091 212.47629,815.16742 212.11238,816.68883 C 211.74847,818.21024 211.10998,819.26165 210.69353,819.02534 C 210.2771,818.789 210.16186,819.67873 210.43745,821.0025 C 210.8883,823.16804 211.07621,822.97575 212.31194,819.08439 C 213.06733,816.70565 213.48033,814.57115 213.22972,814.34103 z M 141.59919,811.81815 L 139.93891,809.49147 L 138.23797,811.99579 C 136.55644,814.4715 136.57198,814.5341 139.59775,817.47937 L 142.65846,820.45867 L 142.95897,817.30175 C 143.1376,815.42519 142.5861,813.20117 141.59919,811.81815 z M 147.05962,817.14123 C 147.05962,816.42949 146.6195,815.84717 146.08159,815.84717 C 145.54366,815.84717 145.10355,816.67925 145.10355,817.69625 C 145.10355,818.71325 145.54366,819.29559 146.08159,818.99033 C 146.6195,818.68505 147.05962,817.85297 147.05962,817.14123 z M 237.62966,816.09038 C 237.30467,815.79197 237.0735,816.32238 237.11597,817.26906 C 237.1629,818.31525 237.39465,818.52804 237.70686,817.81163 C 237.98939,817.16335 237.95465,816.38879 237.62966,816.09038 z M 309.38219,811.8543 C 309.36508,811.33379 308.6829,810.09967 307.86623,809.11181 C 306.39695,807.33458 306.36157,807.33929 304.49596,809.56085 C 303.37958,810.89021 302.60167,813.25144 302.58881,815.3498 L 302.56705,818.89363 L 305.99017,815.84717 C 307.87289,814.17161 309.39929,812.37481 309.38219,811.8543 z M 301.58901,815.28819 C 301.58901,813.3398 301.34572,813.11852 300.1801,814.00677 C 299.4052,814.59728 299.01217,815.65708 299.30671,816.36184 C 300.18823,818.47118 301.58901,817.81222 301.58901,815.28819 z M 225.30235,814.50009 C 226.33432,813.35834 226.11071,813.15303 223.83531,813.15303 C 221.55988,813.15303 221.33627,813.35834 222.36825,814.50009 C 223.03789,815.24099 223.69807,815.84717 223.83531,815.84717 C 223.97253,815.84717 224.6327,815.24099 225.30235,814.50009 z M 161.504,803.9133 C 164.45562,801.0541 166.65352,798.51543 166.38821,798.27183 C 165.94985,797.86932 161.35134,802.05317 152.99328,810.45889 C 151.27434,812.18763 150.30377,812.79381 150.83643,811.80595 C 151.36911,810.81811 154.68776,807.18103 158.2112,803.72355 C 161.73464,800.26607 164.62799,796.95593 164.64085,796.36767 C 164.69297,793.98418 162.28529,794.1167 160.07784,796.61882 C 158.80922,798.0568 157.35749,799.13713 156.8518,799.01958 C 156.34608,798.90202 156.13413,799.30614 156.38081,799.91763 C 156.6275,800.52911 154.87497,803.5956 152.48634,806.73206 C 149.01729,811.28719 148.37875,812.68208 149.31306,813.66405 C 150.27964,814.67992 150.97366,814.39145 153.31009,812.0026 C 154.86512,810.41267 158.55239,806.77249 161.504,803.9133 z M 295.91641,812.07537 C 293.83868,810.16756 294.66861,809.22274 296.86697,810.99324 C 299.12022,812.80796 298.75506,811.86688 295.56045,807.62612 C 293.47004,804.85117 293.25872,803.78742 294.98728,804.74097 C 295.82811,805.20481 295.79351,804.94406 294.87646,803.90582 C 294.14312,803.07556 293.201,802.59039 292.78288,802.82767 C 291.71755,803.43222 288.66095,798.93016 289.39564,797.83863 C 289.72694,797.34642 289.41514,797.05475 288.70277,797.19045 C 287.96766,797.3305 287.47097,796.73171 287.55423,795.80578 C 287.63491,794.90848 287.45057,794.4042 287.14458,794.68518 C 286.83858,794.96615 285.84541,794.57878 284.93752,793.82434 C 283.46369,792.59963 283.1551,792.5984 282.05742,793.81285 C 281.0208,794.95975 281.94476,796.23054 287.94956,801.91685 C 291.86641,805.62596 294.8366,808.87599 294.55,809.13916 C 294.26339,809.40233 290.90256,806.49383 287.08152,802.67582 C 283.26046,798.85782 279.93102,795.92049 279.68277,796.14844 C 279.43452,796.37639 282.71256,799.99259 286.9673,804.18443 C 291.22205,808.37627 294.71211,812.10905 294.723,812.47949 C 294.73388,812.84993 295.27091,813.15303 295.91641,813.15303 C 296.82925,813.15303 296.82925,812.91354 295.91641,812.07537 z M 137.3091,807.43291 C 136.61732,806.7977 136.32069,807.47913 136.36324,809.60575 C 136.42149,812.51694 136.48233,812.57282 137.37108,810.53117 C 137.9974,809.09238 137.97646,808.04569 137.3091,807.43291 z M 161.06878,788.68127 C 170.40634,775.71575 178.31786,764.6681 178.64995,764.13096 C 178.98203,763.59381 177.56831,761.64316 175.50835,759.79617 L 171.76295,756.43801 L 167.96908,762.56888 C 165.88246,765.94086 163.99763,769.10387 163.78058,769.59781 C 163.56354,770.09173 159.77696,776.35559 155.36596,783.51751 C 139.61454,809.0923 140.18743,807.94685 142.02051,810.20087 C 142.9093,811.29377 143.73885,812.20303 143.86394,812.22148 C 143.98904,812.2399 151.73122,801.64681 161.06878,788.68127 z M 228.63854,809.49194 C 231.20819,806.68782 231.9762,802.93966 230.18893,801.92542 C 229.03904,801.27287 230.02619,796.81928 231.51896,795.92489 C 232.08285,795.58704 232.89531,795.50986 233.32443,795.75339 C 233.75355,795.99692 234.10466,795.76819 234.10466,795.24511 C 234.10466,794.72203 233.44448,794.29407 232.63761,794.29407 C 230.68602,794.29407 230.77075,791.69796 232.78919,789.65003 C 234.00561,788.41584 235.82837,788.00775 240.12445,788.00775 C 243.26859,788.00775 245.84107,788.33626 245.84107,788.73778 C 245.84107,790.04373 240.39948,794.29407 238.7275,794.29407 C 237.67669,794.29407 237.3013,794.77537 237.66789,795.65256 C 238.45639,797.53929 236.27041,799.68233 233.55739,799.68233 C 231.49278,799.68233 231.34334,799.97875 231.85949,803.05001 C 232.17078,804.90223 232.5319,806.53895 232.66201,806.68717 C 232.79212,806.83539 234.20843,805.00195 235.80938,802.61287 C 237.41033,800.2238 242.52297,794.75367 247.1708,790.45703 L 255.62141,782.64497 L 255.62141,774.03964 L 255.62141,765.4343 L 252.93182,767.19793 C 251.45253,768.16794 248.52182,770.72123 246.4191,772.87189 L 242.596,776.78217 L 247.88615,777.05813 C 254.36737,777.39621 255.44185,778.22359 253.29917,781.22628 C 251.90891,783.17455 250.93557,783.51751 246.79655,783.51751 L 241.92893,783.51751 L 241.8851,780.14985 L 241.84128,776.78217 L 237.67554,781.04789 C 235.38439,783.39403 233.20354,785.31361 232.8292,785.31361 C 232.45486,785.31361 232.14858,784.10125 232.14858,782.61947 C 232.14858,780.00002 231.79767,779.70082 228.72547,779.70082 C 225.69089,779.70082 225.40753,780.01791 225.11408,783.74203 C 224.70658,788.91356 222.01518,789.09249 221.56186,783.97819 C 221.20243,779.9231 220.32814,779.11944 216.92582,779.71664 C 215.00871,780.05315 214.54397,780.68101 214.54397,782.93464 C 214.54397,785.62758 214.09556,785.32387 202.80756,774.98607 L 191.07115,764.23761 L 191.07115,773.28484 L 191.07115,782.33208 L 199.46788,789.88465 C 207.69055,797.28067 214.23544,804.75521 213.26732,805.64416 C 212.99937,805.8902 211.96667,805.01211 210.97246,803.69287 C 208.08985,799.86788 191.93349,785.1205 191.28152,785.71915 C 190.95599,786.01804 193.63624,788.98909 197.23764,792.32147 C 203.20358,797.84181 205.53849,800.78308 202.65645,799.14756 C 201.97271,798.75955 201.79216,798.90029 202.19876,799.50437 C 202.56805,800.05303 203.48254,800.28619 204.23092,800.0225 C 205.7531,799.48615 207.6728,802.21249 206.99506,803.94805 C 206.75396,804.56547 207.05946,805.07061 207.67394,805.07061 C 208.28845,805.07061 208.51921,804.66649 208.18676,804.17257 C 207.10906,802.57145 209.3001,803.22325 211.08572,805.03497 C 213.42749,807.41096 214.9335,806.96576 215.52201,803.72355 C 215.93764,801.43377 215.57941,800.82723 213.13517,799.68233 C 209.47073,797.9659 208.906,796.34007 211.79802,795.83268 C 213.66964,795.50431 213.56197,795.41582 211.16742,795.31441 C 208.46632,795.2 201.82953,790.51995 201.82953,788.72962 C 201.82953,788.33259 204.41634,788.00775 207.57799,788.00775 C 214.18859,788.00775 215.97598,789.25067 215.31471,793.38779 C 215.03749,795.1221 215.30676,796.09015 216.06641,796.09015 C 217.55037,796.09015 218.62118,800.73122 217.40283,801.88255 C 214.63235,804.50065 219.44121,812.25497 223.83531,812.25497 C 225.17078,812.25497 227.14968,811.11662 228.63854,809.49194 z M 219.08045,798.33527 C 219.44314,797.46744 220.9554,796.98821 223.33116,796.98821 C 225.41601,796.98821 227.54813,797.57372 228.23645,798.33527 C 229.00423,799.18472 229.06979,799.68233 228.41393,799.68233 C 227.84189,799.68233 227.10185,799.27821 226.76941,798.78429 C 226.43695,798.29037 224.87057,797.88625 223.28856,797.88625 C 221.70655,797.88625 220.41217,798.29037 220.41217,798.78429 C 220.41217,799.27821 219.98587,799.68233 219.46483,799.68233 C 218.94381,799.68233 218.77084,799.07615 219.08045,798.33527 z M 193.54922,781.75488 C 190.53443,778.69601 192.24962,777.23119 198.84609,777.23119 C 204.26623,777.23119 204.7733,777.40289 205.3261,779.42527 C 206.2196,782.69414 205.1414,783.51751 199.96733,783.51751 C 196.55816,783.51751 194.81448,783.03864 193.54922,781.75488 z M 203.7856,780.27243 C 203.7856,779.37696 202.4123,779.02729 198.89543,779.02729 C 193.86246,779.02729 192.40859,780.33891 196.06492,781.58086 C 198.97679,782.56993 203.7856,781.75497 203.7856,780.27243 z M 236.06072,808.60979 C 236.06072,808.08671 235.62061,807.90851 235.08269,808.21377 C 234.54477,808.51903 234.10466,808.94701 234.10466,809.16483 C 234.10466,809.38263 234.54477,809.56085 235.08269,809.56085 C 235.62061,809.56085 236.06072,809.13287 236.06072,808.60979 z M 305.80146,805.01121 C 306.07388,804.05467 305.93312,803.47841 305.48865,803.73064 C 305.04418,803.98288 302.36513,800.44738 299.53521,795.87398 C 296.70528,791.30059 292.57239,784.72987 290.35098,781.2724 C 288.12958,777.81493 283.9587,771.14693 281.08234,766.45465 C 273.92038,754.77114 274.69118,755.26813 270.35435,759.5372 L 266.59812,763.23474 L 272.60166,771.21184 C 285.02791,787.72294 286.6175,789.81013 294.18795,799.55515 C 301.37032,808.8006 302.07117,809.43856 303.6263,808.14629 C 304.55021,807.37854 305.52903,805.96776 305.80146,805.01121 z M 310.39133,806.75675 C 310.39133,804.38374 310.16894,804.12211 308.94482,805.05495 C 307.87084,805.87338 307.75375,806.59551 308.49021,807.85906 C 309.89446,810.26831 310.39133,809.98021 310.39133,806.75675 z M 146.31669,796.09015 C 164.32579,766.84732 169.85064,757.79377 176.45816,746.69763 L 183.67753,734.57401 L 185.82462,716.61311 C 187.00552,706.7346 187.85467,698.54424 187.71161,698.41229 C 187.56856,698.28035 185.77535,701.91743 183.72672,706.49469 C 181.6781,711.07198 178.15721,718.85821 175.90254,723.79747 C 173.64786,728.73673 169.55818,737.82943 166.81436,744.0035 C 164.07052,750.17757 156.74277,766.60997 150.53047,780.51995 C 140.41716,803.16461 138.38408,808.04942 139.59593,806.79187 C 139.79426,806.58607 142.8186,801.77029 146.31669,796.09015 z M 138.81967,802.59349 C 137.82628,801.68134 136.02755,803.93746 136.81522,805.10769 C 137.35448,805.90887 137.79802,805.7923 138.48231,804.66956 C 138.99509,803.8282 139.14691,802.89398 138.81967,802.59349 z M 254.81908,786.66067 C 255.51372,785.55784 254.48846,786.04276 252.16285,787.91697 C 246.27139,792.66492 238.41062,800.60441 236.58236,803.65348 C 234.83965,806.55986 252.86355,789.76536 254.81908,786.66067 z M 205.74166,802.37647 C 205.74166,801.88255 205.27558,801.47843 204.70591,801.47843 C 204.13624,801.47843 203.94217,801.88255 204.27462,802.37647 C 204.60707,802.87041 205.07317,803.27453 205.31037,803.27453 C 205.54758,803.27453 205.74166,802.87041 205.74166,802.37647 z M 309.41329,801.92745 C 309.41329,801.18657 308.75312,800.58039 307.94624,800.58039 C 306.41897,800.58039 306.00584,801.64251 307.13121,802.67582 C 308.25656,803.70914 309.41329,803.32982 309.41329,801.92745 z M 295.84184,780.73659 C 287.21498,762.01623 281.06152,748.55244 269.6133,723.34845 C 262.84062,708.43797 258.2568,699.07614 257.89263,699.41053 C 257.68954,699.59702 258.46455,707.18097 259.61485,716.26376 L 261.70634,732.77793 L 267.1464,741.75839 C 283.64607,768.99606 304.74095,802.4758 305.16045,802.09061 C 305.36215,801.90541 301.16876,792.29611 295.84184,780.73659 z M 143.06528,794.36452 C 144.8117,790.57546 145.76938,787.36185 145.28471,786.91682 C 144.2446,785.96177 137.93856,799.3803 138.81533,800.68292 C 139.62748,801.88952 139.53029,802.03402 143.06528,794.36452 z M 216.0153,798.77795 C 216.35009,798.28054 215.91696,797.62443 215.05279,797.31993 C 213.18022,796.66013 212.13658,797.38723 213.0367,798.72454 C 213.84884,799.93114 215.22252,799.95577 216.0153,798.77795 z M 306.33498,794.96759 C 305.19552,792.37449 303.7851,789.14153 303.20072,787.78323 C 302.61634,786.42493 301.57452,785.31361 300.88558,785.31361 C 299.19085,785.31361 299.19956,785.34901 302.77246,792.97839 C 306.42587,800.77965 309.6897,802.60208 306.33498,794.96759 z M 235.57171,797.88625 C 235.90416,797.39233 235.29594,796.98821 234.22009,796.98821 C 233.14426,796.98821 231.99203,797.39233 231.65958,797.88625 C 231.32713,798.38017 231.93535,798.78429 233.01118,798.78429 C 234.08703,798.78429 235.23926,798.38017 235.57171,797.88625 z M 247.79713,796.93519 C 247.79713,796.41213 247.35702,796.23391 246.8191,796.53917 C 246.28118,796.84445 245.84107,797.27241 245.84107,797.49023 C 245.84107,797.70803 246.28118,797.88625 246.8191,797.88625 C 247.35702,797.88625 247.79713,797.45827 247.79713,796.93519 z M 180.69753,784.0436 C 184.40563,780.27379 187.20583,776.97483 186.92024,776.71259 C 186.63464,776.45036 183.82081,778.93557 180.66727,782.23532 C 177.51375,785.53505 173.51343,789.69918 171.77768,791.48896 C 170.04193,793.27872 168.61257,795.14721 168.60135,795.64113 C 168.59014,796.13505 169.79024,795.26988 171.26826,793.71849 C 172.74628,792.16711 176.98944,787.81342 180.69753,784.0436 z M 181.53647,779.64073 C 186.38215,774.57592 187.03979,773.468 186.28401,771.64275 C 185.41543,769.54499 182.51646,766.76952 181.90393,767.44923 C 181.72923,767.6431 178.40247,772.14913 174.51115,777.46264 C 170.61981,782.77615 167.08229,786.92284 166.64995,786.67751 C 166.21763,786.43215 165.26389,786.9342 164.53054,787.79312 C 163.32394,789.20635 163.3599,789.23763 164.90874,788.12229 C 166.89812,786.68971 167.109,787.31358 165.45661,789.7431 C 164.5358,791.09696 164.57931,791.77097 165.66513,792.9723 C 167.16072,794.62697 167.35382,794.46476 181.53647,779.64073 z M 213.81045,793.46472 C 215.05648,793.34801 214.61988,790.97965 213.14518,789.85585 C 212.37583,789.26958 210.06524,788.917 208.0105,789.07234 L 204.27462,789.35481 L 206.84998,791.76037 C 208.30659,793.12093 210.21848,794.02855 211.25113,793.84968 C 212.25531,793.67575 213.40702,793.50252 213.81045,793.46472 z M 276.55622,792.38242 C 275.53148,791.33101 273.36456,789.20939 271.74083,787.66768 C 270.1171,786.12597 267.28476,783.16155 265.44675,781.08006 C 263.60874,778.99858 261.41633,777.05612 260.57473,776.76348 C 259.13175,776.26174 261.0431,778.2825 272.69671,789.57933 C 277.38891,794.12786 280.36165,796.28691 276.55622,792.38242 z M 242.25992,791.073 L 244.05795,788.80642 L 238.8368,789.08062 C 234.27486,789.3202 233.57617,789.60993 233.30311,791.37541 C 233.0252,793.17214 233.40447,793.39289 236.72624,793.36781 C 239.57249,793.3463 240.88996,792.79994 242.25992,791.073 z M 281.59499,790.60305 C 282.46011,789.06689 282.70723,788.0715 282.14416,788.39104 C 281.58108,788.71058 279.93058,787.23961 278.47639,785.12221 C 276.40402,782.10472 270.76057,774.86539 264.62408,767.35269 C 264.14162,766.76203 259.53354,771.69225 259.53354,772.7991 C 259.53354,773.60598 278.86528,793.39601 279.65347,793.39601 C 279.85618,793.39601 280.72985,792.13918 281.59499,790.60305 z M 150.06078,778.58364 C 153.14186,771.87793 153.38915,770.94487 152.08539,770.94487 C 151.35309,770.94487 145.10355,783.45325 145.10355,784.91893 C 145.10355,785.21833 145.57384,785.31933 146.14865,785.14341 C 146.72345,784.96748 148.48391,782.01558 150.06078,778.58364 z M 168.57637,783.51751 C 169.15214,782.52967 169.40317,781.72143 169.13421,781.72143 C 168.86524,781.72143 168.1741,782.52967 167.59833,783.51751 C 167.02256,784.50537 166.77154,785.31361 167.04049,785.31361 C 167.30945,785.31361 168.0006,784.50537 168.57637,783.51751 z M 300.61097,783.34508 C 300.61097,781.03686 295.16129,770.06832 294.00925,770.05789 C 292.24245,770.0419 292.44093,770.89206 295.86644,778.01322 C 298.68707,783.87696 300.61097,786.03902 300.61097,783.34508 z M 209.40669,772.90013 C 207.0451,770.58993 201.95351,765.90564 198.09201,762.49061 L 191.07115,756.28147 L 191.07115,759.3334 C 191.07115,762.02199 192.38105,763.59291 202.07404,772.52877 C 212.97939,782.5823 213.07969,782.64752 213.38871,779.88636 C 213.64139,777.62853 212.88668,776.3044 209.40669,772.90013 z M 244.97429,772.5548 C 254.68524,763.3751 255.62141,762.19339 255.62141,759.1152 L 255.62141,755.74024 L 249.01968,761.78041 C 236.0457,773.65073 233.12662,776.97637 233.12662,779.88685 C 233.12662,781.38979 233.39675,782.61947 233.72689,782.61947 C 234.05702,782.61947 239.11835,778.09037 244.97429,772.5548 z M 252.58464,780.40447 C 253.93242,779.16692 253.51785,779.02729 248.49574,779.02729 C 244.49045,779.02729 242.90697,779.36655 242.90697,780.22468 C 242.90697,780.88325 243.23705,781.72702 243.64048,782.09972 C 244.75284,783.12735 250.88506,781.96507 252.58464,780.40447 z M 171.63523,779.25179 C 172.85178,777.82745 172.81718,777.79568 171.26596,778.91273 C 170.3246,779.59062 169.55441,780.29784 169.55441,780.48431 C 169.55441,781.22343 170.35755,780.74772 171.63523,779.25179 z M 258.48676,773.46751 C 258.52457,771.64443 258.99563,769.90307 259.53354,769.59781 C 260.07147,769.29255 260.51158,768.05633 260.51158,766.85067 C 260.51158,765.25726 259.97734,764.65855 258.55551,764.65855 C 256.74325,764.65855 256.6045,765.23621 256.66819,772.51645 C 256.7139,777.74197 257.01852,779.77267 257.57748,778.57827 C 258.03978,777.59041 258.44896,775.29057 258.48676,773.46751 z M 189.95237,771.39389 C 190.22404,764.69574 190.21169,764.65855 187.71424,764.65855 C 184.8315,764.65855 184.22123,767.28269 186.66999,769.14879 C 187.49175,769.775 188.13705,771.73261 188.13705,773.59929 C 188.13705,776.29481 188.71334,778.12923 189.56016,778.12923 C 189.62563,778.12923 189.80213,775.09833 189.95237,771.39389 z M 221.57372,768.24891 L 221.87923,758.36857 L 218.2116,758.3704 L 214.54397,758.37223 L 214.54397,768.25073 L 214.54397,778.12923 L 217.90608,778.12923 L 221.26818,778.12923 L 221.57372,768.24891 z M 232.14858,768.25073 L 232.14858,758.37223 L 228.48096,758.3704 L 224.81333,758.36857 L 225.11886,768.24891 L 225.42438,778.12923 L 228.78649,778.12923 L 232.14858,778.12923 L 232.14858,768.25073 z M 208.53237,763.17816 C 204.36985,759.30798 202.73798,758.37223 200.15138,758.37223 C 197.16707,758.37223 196.93936,758.1613 196.93936,755.39708 C 196.93936,753.26367 196.10926,751.6917 194.00525,749.84079 L 191.07115,747.25965 L 191.07115,750.78129 C 191.07115,754.06839 191.80396,754.97842 202.07404,764.44538 L 213.07692,774.58784 L 213.38914,771.28596 C 213.66762,768.34061 213.14319,767.46513 208.53237,763.17816 z M 255.62141,750.8876 C 255.62141,746.91561 254.8676,746.79416 251.31965,750.19456 C 249.36905,752.06403 248.70007,753.51331 248.93608,755.35832 C 249.22628,757.62695 248.92526,757.95644 246.33009,758.21097 C 244.36858,758.40335 241.69393,760.03045 238.26131,763.11954 C 233.73918,767.18911 233.12793,768.17256 233.13749,771.36321 L 233.14835,774.98607 L 244.38488,764.5828 C 254.61077,755.11521 255.62141,753.88344 255.62141,750.8876 z M 157.23827,763.11404 C 159.85576,757.34835 160.38225,754.78005 158.94671,754.78005 C 157.87748,754.78005 152.01513,768.46048 152.65967,769.45154 C 153.42595,770.62977 154.50325,769.1386 157.23827,763.11404 z M 290.93571,761.00809 C 289.33882,757.35855 287.55888,754.22767 286.98028,754.05059 C 286.40169,753.87349 286.1465,753.40439 286.41322,753.00812 C 286.8352,752.38118 281.69245,739.80355 280.60636,738.80629 C 280.38418,738.60228 279.75729,738.68798 279.21325,738.9967 C 278.25659,739.53961 283.11821,751.50546 285.06035,753.38807 C 285.54441,753.85731 285.94046,754.76303 285.94046,755.40077 C 285.94046,756.03853 287.32873,759.41119 289.02549,762.89559 C 293.12942,771.32321 294.74895,769.72292 290.93571,761.00809 z M 213.56594,761.96441 C 213.56594,758.37223 213.56594,758.37223 209.6538,758.37223 C 207.50212,758.37223 205.74166,758.6325 205.74166,758.95059 C 205.74166,759.44533 212.62826,765.41323 213.32143,765.51922 C 213.45591,765.53978 213.56594,763.94011 213.56594,761.96441 z M 238.73342,761.52512 C 241.82157,758.97134 241.49954,758.37223 237.03876,758.37223 L 233.12662,758.37223 L 233.12662,762.07437 C 233.12662,766.11078 233.19649,766.10393 238.73342,761.52512 z M 190.09312,759.71931 C 190.09312,755.17624 189.10816,754.63248 186.78249,757.89161 C 184.35457,761.29402 184.71834,763.76051 187.64803,763.76051 C 189.89389,763.76051 190.09312,763.43122 190.09312,759.71931 z M 260.51158,761.65458 C 260.51158,760.49632 259.63135,758.8172 258.55551,757.92321 C 256.62927,756.32255 256.59944,756.35466 256.59944,760.02914 C 256.59944,763.1618 256.91329,763.76051 258.55551,763.76051 C 259.95548,763.76051 260.51158,763.1618 260.51158,761.65458 z M 184.22006,747.82019 C 184.22273,742.75747 183.86355,738.61523 183.42189,738.61523 C 182.65103,738.61523 172.97752,753.71329 172.97752,754.91641 C 172.97752,755.23836 174.48188,757.01976 176.32054,758.87506 L 179.66355,762.24833 L 181.93938,759.63674 C 183.98787,757.28604 184.21568,756.10566 184.22006,747.82019 z M 271.83338,751.84309 C 270.79847,750.2479 268.46458,746.42763 266.64695,743.3536 C 264.82933,740.27956 262.88624,737.50571 262.329,737.18947 C 261.6456,736.80165 261.42369,739.9506 261.64722,746.8636 C 261.90962,754.97854 262.35684,757.64182 263.7949,759.65372 L 265.61119,762.19472 L 269.66312,758.46907 L 273.71505,754.74344 L 271.83338,751.84309 z M 189.90182,749.72587 C 189.61138,746.72223 189.55043,746.68185 187.40353,748.07038 C 185.69,749.17862 185.20295,750.36774 185.20295,753.44308 L 185.20295,757.39254 L 187.70126,755.09857 C 189.59423,753.3604 190.12742,752.05864 189.90182,749.72587 z M 210.63184,754.39449 C 210.63184,752.96525 208.68332,750.3326 204.98209,746.76109 C 201.87472,743.76265 199.01398,741.30937 198.62486,741.30937 C 198.23575,741.30937 197.91739,744.74439 197.91739,748.94275 L 197.91739,756.57615 L 204.27462,756.57615 C 210.35432,756.57615 210.63184,756.4809 210.63184,754.39449 z M 214.19029,755.22907 C 213.88066,754.48819 213.99975,753.88201 214.45491,753.88201 C 214.91008,753.88201 215.83039,754.48819 216.50004,755.22907 C 217.31577,756.13158 219.51634,756.57615 223.16801,756.57615 C 227.75041,756.57615 229.0553,756.19183 231.36155,754.16302 C 232.87027,752.83578 234.10466,751.01724 234.10466,750.1218 C 234.10466,748.64737 233.07863,748.49373 223.23227,748.49373 L 212.35988,748.49373 L 212.87203,750.95379 C 213.15372,752.30683 212.96948,754.12537 212.46262,754.99501 C 211.75672,756.20613 211.9169,756.57615 213.14715,756.57615 C 214.17298,756.57615 214.54986,756.08945 214.19029,755.22907 z M 234.10466,755.15424 C 234.10466,753.56835 231.99919,753.84453 231.39469,755.50971 C 231.18176,756.09625 231.7044,756.57615 232.55611,756.57615 C 233.40781,756.57615 234.10466,755.93629 234.10466,755.15424 z M 247.79432,748.26921 L 247.79152,739.96229 L 241.43711,746.08598 C 237.18797,750.18085 235.08269,752.93302 235.08269,754.39292 C 235.08269,756.48126 235.35896,756.57615 241.43992,756.57615 L 247.79713,756.57615 L 247.79432,748.26921 z M 260.51158,753.57216 C 260.51158,751.7087 259.76893,749.95106 258.55551,748.94275 C 256.63855,747.3498 256.59944,747.3742 256.59944,750.16281 C 256.59944,753.00457 258.36445,756.57615 259.76881,756.57615 C 260.17734,756.57615 260.51158,755.22435 260.51158,753.57216 z M 163.89682,747.81727 C 167.27521,740.10963 167.2918,740.04884 166.16254,739.51327 C 165.64181,739.26631 163.80242,742.09515 162.07502,745.79959 C 158.45811,753.55604 158.37487,753.88301 160.01857,753.87907 C 160.69097,753.87746 162.43618,751.14966 163.89682,747.81727 z M 195.71345,742.49299 C 194.06877,740.98279 191.07115,741.84351 191.07115,743.82592 C 191.07115,744.61042 192.28148,746.41715 193.76074,747.84084 L 196.45035,750.42939 L 196.76237,747.086 C 196.94957,745.08 196.52999,743.24274 195.71345,742.49299 z M 210.63184,734.37546 L 210.63184,718.46109 L 204.27462,724.24649 C 198.31288,729.67199 197.91746,730.28492 197.91844,734.09906 C 197.91941,737.82214 198.42716,738.67901 203.92049,744.22801 C 207.22105,747.56201 210.08131,750.28982 210.27667,750.28982 C 210.47201,750.28982 210.63184,743.12835 210.63184,734.37546 z M 247.76081,734.57401 C 247.77469,731.4973 247.10401,730.3375 243.08699,726.49161 C 234.40649,718.18092 235.07755,717.45256 235.12121,735.13759 L 235.15973,750.73885 L 241.45216,744.45253 C 246.98469,738.92537 247.74654,737.73239 247.76081,734.57401 z M 252.87829,747.87669 C 256.03831,745.0968 256.42874,742.61073 253.80425,741.98056 C 250.58222,741.20688 248.77517,742.91787 248.77517,746.74226 C 248.77517,748.69341 249.08118,750.28982 249.45518,750.28982 C 249.82919,750.28982 251.36959,749.20392 252.87829,747.87669 z M 260.51158,744.0035 C 260.51158,740.11198 260.25077,739.51327 258.55551,739.51327 C 257.01065,739.51327 256.59944,740.11198 256.59944,742.36121 C 256.59944,744.69668 258.81279,748.49373 260.17414,748.49373 C 260.35972,748.49373 260.51158,746.47313 260.51158,744.0035 z M 188.68449,745.39472 C 190.72162,742.53996 190.15673,740.0373 187.39355,739.67532 C 185.39877,739.41401 185.20295,739.75519 185.20295,743.49202 C 185.20295,748.06995 186.33429,748.68825 188.68449,745.39472 z M 222.36825,719.30725 L 222.36825,691.01879 L 217.5921,691.01879 C 213.41271,691.01879 212.76465,691.27126 212.4054,693.03941 C 212.0802,694.63998 212.17005,744.28379 212.50293,746.92215 C 212.54967,747.29259 214.78849,747.59569 217.47807,747.59569 L 222.36825,747.59569 L 222.36825,719.30725 z M 234.10466,719.30725 L 234.10466,691.01879 L 228.72547,691.01879 L 223.34628,691.01879 L 223.34628,719.30725 L 223.34628,747.59569 L 228.72547,747.59569 L 234.10466,747.59569 L 234.10466,719.30725 z M 193.02723,734.57401 C 193.02723,731.42181 193.46734,728.59297 194.00525,728.28769 C 194.54318,727.98243 194.98165,725.43283 194.97963,722.62191 L 194.97598,717.51115 L 193.02357,720.4515 C 191.41483,722.87428 191.07115,724.97813 191.07115,732.40362 C 191.07115,738.18277 191.42198,741.21627 192.04919,740.86034 C 192.5871,740.55507 193.02723,737.72623 193.02723,734.57401 z M 196.93936,740.01529 C 196.93936,738.58504 195.16485,737.25112 194.30838,738.03755 C 193.50381,738.77631 194.75976,741.30937 195.93064,741.30937 C 196.48543,741.30937 196.93936,740.72703 196.93936,740.01529 z M 251.53648,739.21434 C 251.72366,738.32818 251.22472,737.71717 250.31394,737.71717 C 249.40669,737.71717 248.77517,738.48501 248.77517,739.5881 C 248.77517,741.77669 251.06061,741.46733 251.53648,739.21434 z M 255.62141,732.60641 C 255.62141,726.18378 255.25661,724.36889 253.42084,721.65836 L 251.22025,718.40919 L 250.91659,722.8002 C 250.74957,725.21525 251.07966,727.61977 251.65011,728.14358 C 252.22057,728.66737 252.68731,731.57455 252.68731,734.60396 C 252.68731,737.63336 252.96876,740.3704 253.31274,740.68626 C 254.91523,742.15769 255.62141,739.68625 255.62141,732.60641 z M 171.46459,731.09259 C 174.31244,724.5055 174.69691,721.85949 172.51507,723.86288 C 170.49086,725.72154 165.80034,737.61591 166.94313,737.99238 C 168.42334,738.48001 167.97475,739.16456 171.46459,731.09259 z M 190.09312,732.1472 C 190.09312,726.28496 189.96271,725.85764 188.65718,727.44252 C 187.86741,728.4013 187.20723,728.75784 187.19013,728.23484 C 187.17301,727.71182 187.80519,726.49946 188.59497,725.5407 C 190.25783,723.522 190.59053,715.65431 189.05001,714.78009 C 187.35559,713.81852 187.13833,714.59467 186.62496,723.44379 C 186.35577,728.08364 185.88911,733.30441 185.58792,735.0455 C 185.08581,737.94818 185.25017,738.22707 187.56673,738.40312 C 190.06806,738.59321 190.09312,738.53116 190.09312,732.1472 z M 260.11726,734.79853 C 259.78737,732.69935 259.46805,730.17359 259.40764,729.18575 C 259.34723,728.19789 258.47315,719.7359 257.46524,710.38133 C 255.73197,694.29434 255.49184,693.238 253.03231,690.88077 C 251.60208,689.51004 250.0503,688.60509 249.5839,688.86976 C 249.11748,689.13445 247.49549,691.6034 245.97946,694.35633 L 243.22305,699.36165 L 245.82866,705.51092 C 248.91489,712.79445 249.24852,713.17643 251.21497,711.67788 C 252.45923,710.7297 253.05046,710.79921 254.58468,712.07409 C 255.96535,713.2214 256.54103,715.16466 256.81622,719.60691 C 257.02022,722.89957 257.56979,726.36707 258.03752,727.31245 C 258.64641,728.5432 258.56297,728.84695 257.74369,728.38202 C 256.91815,727.91353 256.59944,729.2482 256.59944,733.17395 C 256.59944,738.10703 256.79172,738.61523 258.65824,738.61523 C 260.52242,738.61523 260.66034,738.25443 260.11726,734.79853 z M 277.99241,733.00243 C 276.86419,730.40933 275.50025,727.158 274.96141,725.77727 C 274.42257,724.39652 273.48161,723.41989 272.87035,723.60698 C 271.49967,724.02651 271.3645,723.43248 274.59965,731.20635 C 276.17734,734.99746 277.88031,737.71717 278.67645,737.71717 C 279.76059,737.71717 279.61895,736.74088 277.99241,733.00243 z M 196.93936,732.21895 C 196.93936,728.2317 196.74388,727.76772 195.4723,728.73673 C 193.95696,729.8915 193.56066,732.91427 194.59891,735.39862 C 195.79384,738.25787 196.93936,736.70159 196.93936,732.21895 z M 251.51421,731.57714 C 251.02255,726.30745 248.77517,726.95309 248.77517,732.36402 C 248.77517,736.48555 248.95472,736.90223 250.29168,735.88341 C 251.26476,735.14186 251.70284,733.59876 251.51421,731.57714 z M 247.79713,720.65431 L 247.79713,712.57189 L 241.43992,712.57189 C 235.33608,712.57189 235.08269,712.66008 235.08269,714.78416 C 235.08269,716.25393 237.08983,718.96656 241.06304,722.86656 C 244.35223,726.09515 247.21297,728.73673 247.42026,728.73673 C 247.62755,728.73673 247.79713,725.09963 247.79713,720.65431 z M 210.63184,714.57559 C 210.63184,712.58278 210.34928,712.49856 204.51913,712.75355 L 198.40641,713.02092 L 198.12337,720.65431 L 197.84033,728.28769 L 204.23608,722.47634 C 208.46559,718.6333 210.63184,715.9573 210.63184,714.57559 z M 178.42067,715.26777 C 179.97805,711.59232 180.89325,708.25545 180.45445,707.85255 C 179.63307,707.09833 173.46654,718.96001 173.46654,721.29419 C 173.46654,724.31355 175.78038,721.4989 178.42067,715.26777 z M 272.3305,720.42979 C 269.60541,713.92965 266.34948,708.08167 265.45557,708.08167 C 264.11515,708.08167 264.06176,707.83295 266.72343,713.98864 C 267.98827,716.91387 269.29481,720.01445 269.62684,720.87883 C 269.95888,721.74319 270.89363,722.45041 271.70407,722.45041 C 272.83116,722.45041 272.97844,721.97532 272.3305,720.42979 z M 254.66554,713.50797 C 254.07758,712.4992 253.21898,711.67385 252.75754,711.67385 C 250.81318,711.67385 250.89847,714.72829 252.9408,718.23664 L 255.13239,722.00137 L 255.43347,718.67173 C 255.59906,716.84041 255.2535,714.51673 254.66554,713.50797 z M 193.90727,712.91251 C 192.22329,711.04939 191.09325,712.9201 191.12936,717.51115 L 191.1576,721.10333 L 193.13064,717.66976 C 194.71403,714.91422 194.86741,713.97479 193.90727,712.91251 z M 194.49956,711.67788 C 196.50041,713.20264 196.72022,712.91271 199.37939,705.24097 L 201.66319,698.65219 L 198.6449,693.43486 L 195.6266,688.21753 L 192.89141,690.74072 C 190.49558,692.95086 190.01761,694.34938 189.03899,702.01265 C 188.42451,706.82445 188.19943,711.42583 188.5388,712.23791 C 189.10375,713.58975 189.31777,713.57989 191.0732,712.12118 C 192.65607,710.80585 193.25377,710.72852 194.49956,711.67788 z M 207.20872,707.18363 C 205.8458,704.71399 204.52545,702.69339 204.27462,702.69339 C 204.02378,702.69339 202.70343,704.71399 201.34051,707.18363 L 198.86248,711.67385 L 204.27462,711.67385 L 209.68675,711.67385 L 207.20872,707.18363 z M 244.37402,707.18363 C 243.01109,704.71399 241.72096,702.69339 241.50706,702.69339 C 241.11447,702.69339 236.06072,710.71482 236.06072,711.33794 C 236.06072,711.52269 238.48877,711.67385 241.45639,711.67385 L 246.85205,711.67385 L 244.37402,707.18363 z M 210.63184,704.48949 C 210.63184,700.38414 210.43623,699.99925 208.34976,699.99925 C 207.09461,699.99925 205.82045,700.22628 205.51827,700.50374 C 204.98331,700.99493 209.41865,708.97971 210.22643,708.97971 C 210.44941,708.97971 210.63184,706.95911 210.63184,704.48949 z M 237.99692,705.42331 C 240.55858,700.8127 240.48823,699.99925 237.52778,699.99925 C 235.2457,699.99925 235.08269,700.2986 235.08269,704.48949 C 235.08269,706.95911 235.2938,708.97971 235.55183,708.97971 C 235.80987,708.97971 236.91016,707.37934 237.99692,705.42331 z M 186.23448,697.56143 C 186.75297,696.34799 186.70889,695.35958 186.12139,695.02619 C 184.81138,694.28277 180.04884,704.38478 180.85777,706.19111 C 181.46951,707.55712 183.04148,705.03409 186.23448,697.56143 z M 265.40175,705.86216 C 265.40175,703.69994 260.70477,694.61099 259.58736,694.61099 C 258.05186,694.61099 258.29578,695.73879 261.12844,701.73616 C 263.58685,706.94117 265.40175,708.69351 265.40175,705.86216 z M 213.17789,684.8785 C 220.4047,673.11969 222.49151,669.25709 220.9025,670.58047 C 219.69197,671.58865 217.47807,669.49647 217.47807,667.3443 C 217.47807,665.50759 217.40317,665.51905 215.2775,667.68134 C 214.06719,668.91253 209.44597,673.59483 205.00815,678.08647 C 200.57031,682.57812 196.93936,686.69756 196.93936,687.24076 C 196.93936,687.78399 198.55402,690.75809 200.52747,693.84992 C 203.23972,698.09919 204.3232,699.15221 204.9661,698.16375 C 205.43386,697.44454 209.12919,691.46618 213.17789,684.8785 z M 210.62539,695.73353 L 210.61895,692.36587 L 208.67577,695.06001 C 206.23306,698.44671 206.23306,699.10121 208.67577,699.10121 C 210.28524,699.10121 210.63069,698.50448 210.62539,695.73353 z M 237.52778,696.40707 C 236.69328,694.92529 235.80174,693.71293 235.54659,693.71293 C 235.29145,693.71293 235.08269,694.92529 235.08269,696.40707 C 235.08269,698.5139 235.51459,699.10121 237.06387,699.10121 C 238.95035,699.10121 238.97252,698.97241 237.52778,696.40707 z M 245.28164,693.07743 L 248.76519,687.05363 L 245.60836,683.87245 C 243.87211,682.1228 239.18304,677.58667 235.1882,673.79217 L 227.92487,666.89306 L 225.96251,669.18377 L 224.00016,671.47448 L 227.24838,676.98093 C 234.26309,688.87232 240.80572,699.10121 241.39704,699.10121 C 241.61762,699.10121 243.36569,696.3905 245.28164,693.07743 z M 187.51271,692.36587 C 187.20307,691.62498 186.77677,691.01879 186.56536,691.01879 C 186.35395,691.01879 186.18098,691.62498 186.18098,692.36587 C 186.18098,693.10675 186.60729,693.71293 187.12833,693.71293 C 187.64936,693.71293 187.82233,693.10675 187.51271,692.36587 z M 259.53354,693.00186 C 259.53354,692.61076 257.71889,688.26646 255.50097,683.34786 C 253.28304,678.42925 250.028,671.18212 248.26753,667.24313 C 245.4636,660.96944 241.84018,656.67521 240.43732,657.96333 C 239.39057,658.92446 256.98295,693.71293 258.51574,693.71293 C 259.07553,693.71293 259.53354,693.39295 259.53354,693.00186 z M 197.09936,674.85357 C 201.22175,665.46921 204.22397,657.79111 203.77094,657.79111 C 202.36143,657.79111 200.23543,660.20295 198.89079,663.3274 C 198.18185,664.97472 195.47224,671.06437 192.86943,676.85993 C 188.48759,686.61681 187.07981,691.91741 188.87058,691.91645 C 189.27401,691.91622 192.97697,684.23794 197.09936,674.85357 z M 232.59589,688.26269 C 231.86624,687.17863 212.58791,687.16623 212.58791,688.24982 C 212.58791,689.5551 213.91929,689.68958 223.82949,689.38525 C 229.26034,689.21848 232.9235,688.74941 232.59589,688.26269 z M 252.76994,687.20211 C 252.30409,686.09077 251.2326,683.96913 250.38882,682.48737 C 249.54507,681.00559 246.34934,674.62662 243.28723,668.31186 C 240.22513,661.99712 237.41611,656.65818 237.04497,656.44755 C 236.25472,655.9991 228.23645,663.09082 228.23645,664.23821 C 228.23645,664.97906 252.52063,689.22271 253.26271,689.22271 C 253.45753,689.22271 253.23578,688.31343 252.76994,687.20211 z M 203.78156,677.51779 C 207.81374,673.3361 212.32288,668.70237 213.80189,667.22059 C 215.28089,665.73881 216.49303,664.10544 216.49551,663.59088 C 216.50089,662.48131 207.9226,654.5823 207.33202,655.15298 C 206.70739,655.75653 204.08131,661.63833 198.937,673.95593 C 196.35846,680.12999 193.909,685.98975 193.49374,686.97759 C 192.7493,688.74851 192.76474,688.74807 194.59453,686.94727 C 195.61523,685.94274 199.74939,681.69948 203.78156,677.51779 z M 229.65821,685.69783 C 229.96575,685.2409 229.70102,683.82648 229.06992,682.55467 C 228.04663,680.49245 227.36018,680.24225 222.7254,680.24225 C 217.9595,680.24225 217.40451,680.46207 216.03615,682.89179 C 215.21546,684.34904 214.54397,685.76346 214.54397,686.03495 C 214.54397,686.89239 229.0723,686.56832 229.65821,685.69783 z M 225.77429,678.47152 C 226.43615,677.48819 223.57728,673.05789 222.28088,673.05789 C 221.81864,673.05789 220.77387,674.24148 219.95916,675.68809 C 218.60037,678.10082 218.61851,678.35211 220.17855,678.72709 C 223.20293,679.45401 225.17357,679.36401 225.77429,678.47152 z M 221.39021,657.81929 C 221.39021,647.83588 221.18073,646.24669 219.92317,646.6898 C 218.73453,647.10861 218.45611,649.20524 218.45611,657.73751 C 218.45611,663.52944 218.74953,668.53772 219.10814,668.867 C 220.95713,670.56478 221.39021,668.46818 221.39021,657.81929 z M 225.30235,658.29313 C 225.30235,651.81346 224.89153,646.88743 224.32431,646.56553 C 223.69994,646.21119 223.30208,649.27697 223.22403,655.04397 C 223.02697,669.60434 223.01641,669.4657 224.32431,669.4657 C 224.92393,669.4657 225.30235,665.14281 225.30235,658.29313 z M 234.75351,649.4856 C 229.95305,636.67621 230.10945,636.92669 228.0041,638.6762 C 224.63873,641.47273 224.03446,643.33142 225.72186,645.6961 C 226.80575,647.21505 227.25842,650.03788 227.25842,655.27807 L 227.25842,662.70672 L 231.88968,658.45423 L 236.52094,654.20174 L 234.75351,649.4856 z M 219.44974,645.65452 C 221.31542,644.10421 221.29683,644.02161 218.30175,640.54926 C 215.0753,636.80873 214.42801,636.88302 212.8309,641.17725 C 212.2798,642.65903 210.92291,645.95321 209.81557,648.49766 L 207.80224,653.12392 L 212.39566,657.28679 L 216.98906,661.44968 L 217.27122,654.34002 C 217.49665,648.65987 217.93468,646.9135 219.44974,645.65452 z M 241.96918,653.52539 C 238.32133,645.28033 228.39287,624.04719 225.28757,617.84992 L 222.14862,611.58545 L 219.40323,617.13879 C 217.89327,620.19314 216.34238,623.61833 215.95682,624.75033 C 215.57126,625.88233 212.25926,633.60287 208.59683,641.90707 C 203.36455,653.77073 202.29297,656.94379 203.59526,656.71711 C 205.15598,656.44546 208.92324,648.01746 218.8709,622.54281 C 220.36567,618.71489 221.92344,615.58295 222.33261,615.58295 C 223.03165,615.58295 226.31496,623.65333 234.84403,646.33588 C 238.43794,655.89365 238.66954,656.19385 243.62622,657.7202 C 243.75285,657.7592 243.00719,655.87153 241.96918,653.52539 z M 229.21448,635.79535 C 229.21448,635.24279 227.91554,631.58028 226.32794,627.65646 L 223.44138,620.52221 L 223.39383,631.24226 L 223.34628,641.96231 L 226.28038,639.38117 C 227.89414,637.96153 229.21448,636.34792 229.21448,635.79535 z M 221.33846,630.62522 L 221.28671,620.52221 L 218.2883,627.99522 L 215.28987,635.46822 L 218.03401,638.09822 C 219.54328,639.54473 220.91585,640.72823 221.08417,640.72823 C 221.2525,640.72823 221.36693,636.18187 221.33846,630.62522 z M 338.44575,816.11527 C 338.10047,815.60228 344.55156,813.2364 353.70499,810.51907 C 372.24098,805.01642 375.25953,804.02817 375.91962,803.24619 C 377.1146,801.83055 400.68508,788.00775 401.90404,788.00775 C 403.07741,788.00775 435.72554,790.50593 501.10799,795.59867 C 510.52157,796.33191 522.18463,797.39255 527.02589,797.95566 L 535.8282,798.97948 L 550.0097,794.04834 C 557.80952,791.33621 570.33715,786.84696 577.84889,784.07223 L 591.50656,779.02729 L 602.48652,779.02729 C 616.84512,779.02729 617.08415,779.38269 607.31971,786.21392 C 604.14446,788.43533 597.98285,792.79069 593.62724,795.89246 C 577.97486,807.03909 578.62732,806.74431 565.44737,808.6237 C 537.86788,812.55639 469.71575,815.59886 390.0014,816.45602 C 356.78836,816.81316 338.83564,816.69451 338.44575,816.11527 z M 347.32353,815.23013 C 346.38843,815.00536 344.62797,814.9972 343.41139,815.21201 C 342.19479,815.42682 342.95986,815.61073 345.11154,815.62069 C 347.26321,815.63067 348.2586,815.4549 347.32353,815.23013 z M 434.60166,814.02324 C 447.98159,813.55476 447.59463,813.52263 427.75542,813.45449 C 416.19018,813.4148 398.58556,813.66816 388.63406,814.01752 L 370.54042,814.65274 L 395.4803,814.58625 C 409.19723,814.5497 426.80184,814.29634 434.60166,814.02324 z M 363.99737,810.80032 C 368.90629,807.32142 368.76826,807.33075 356.1889,811.32815 L 348.04564,813.91586 L 353.72801,813.98347 C 358.81648,814.044 359.88979,813.71132 363.99737,810.80032 z M 380.20894,808.1312 C 384.03248,804.26786 384.75945,803.05105 383.84709,802.04164 C 382.89616,800.98954 381.45366,801.53348 375.1566,805.31859 C 371.00395,807.81474 366.55671,810.59865 365.27386,811.50503 L 362.94137,813.15303 L 369.18598,813.05616 L 375.4306,812.95929 L 380.20894,808.1312 z M 392.52012,810.92957 C 393.42606,810.17676 395.01425,809.56085 396.04945,809.56085 C 397.08465,809.56085 400.09825,808.14642 402.74633,806.41769 C 405.3944,804.68895 408.4738,803.2717 409.58944,803.26822 C 410.70507,803.26477 415.13878,802.50256 419.44214,801.57441 C 423.74549,800.64629 432.65526,798.99022 439.24163,797.89429 C 445.82799,796.79836 450.99641,795.5742 450.72699,795.17394 C 450.45758,794.77367 446.98125,794.16602 443.00179,793.82362 C 436.71591,793.28276 433.66859,793.63086 419.78002,796.47629 C 387.61837,803.06543 387.08936,803.22047 382.25438,807.47432 C 379.84609,809.59313 377.87568,811.79606 377.87568,812.36973 C 377.87568,813.89665 390.43598,812.66144 392.52012,810.92957 z M 407.21671,811.35693 C 408.92706,810.85398 407.40147,810.61102 402.13975,810.54841 C 398.00263,810.49917 394.3457,810.86301 394.01324,811.35693 C 393.29011,812.43131 403.56318,812.43131 407.21671,811.35693 z M 480.56927,811.31196 C 499.98913,810.36353 512.00843,809.39193 511.38646,808.82083 C 509.67542,807.24973 439.35787,809.80444 430.68952,811.75263 C 428.13728,812.32624 466.79407,811.98473 480.56927,811.31196 z M 437.04676,809.97419 C 462.67893,808.06037 461.6898,808.40321 454.17191,804.03852 L 447.9549,800.42909 L 434.99952,802.72803 C 425.68904,804.38016 421.0206,805.66476 418.40608,807.29391 C 416.40514,808.54071 414.19524,809.56085 413.49517,809.56085 C 412.7951,809.56085 411.95031,809.96497 411.61785,810.45889 C 410.789,811.69032 415.18451,811.60653 437.04676,809.97419 z M 517.24556,810.41002 C 519.04458,809.95972 517.15277,809.86936 512.35538,810.17646 C 508.05203,810.45192 504.34773,810.83022 504.12359,811.01712 C 503.36043,811.6535 514.29966,811.14739 517.24556,810.41002 z M 523.84728,808.96609 C 523.17489,808.71696 522.0746,808.71696 521.4022,808.96609 C 520.72979,809.21522 521.27995,809.41904 522.62473,809.41904 C 523.96954,809.41904 524.51968,809.21522 523.84728,808.96609 z M 549.27617,808.06803 C 548.60377,807.81892 547.50348,807.81892 546.83109,808.06803 C 546.1587,808.31716 546.70883,808.521 548.05364,808.521 C 549.39842,808.521 549.94858,808.31716 549.27617,808.06803 z M 485.74878,807.18167 C 488.49567,806.76486 489.83111,805.96154 490.88345,804.09299 C 491.66567,802.70404 492.30568,801.1291 492.30568,800.59312 C 492.30568,799.49263 456.97464,799.42454 453.75879,800.51883 C 452.19754,801.05009 452.84455,801.69794 457.67093,804.43601 C 463.25587,807.60444 463.7715,807.71714 472.74499,807.73083 C 477.85523,807.7386 483.70692,807.49149 485.74878,807.18167 z M 524.24969,807.16137 C 523.38485,806.36726 498.17968,799.70709 495.98643,799.69314 C 494.64511,799.68461 491.32764,804.528 491.32764,806.49484 C 491.32764,806.77725 499.05845,807.095 517.65307,807.5768 C 521.64263,807.68017 524.61112,807.49322 524.24969,807.16137 z M 547.3201,806.27195 C 546.64771,806.02282 545.54742,806.02282 544.87502,806.27195 C 544.20261,806.52108 544.75277,806.72492 546.09756,806.72492 C 547.44236,806.72492 547.9925,806.52108 547.3201,806.27195 z M 561.01258,806.23292 C 559.80226,806.01886 557.82174,806.01886 556.61143,806.23292 C 555.40111,806.44697 556.39136,806.62211 558.81201,806.62211 C 561.23264,806.62211 562.2229,806.44697 561.01258,806.23292 z M 536.80624,804.97324 L 544.63051,804.85134 L 538.28653,803.83769 C 533.72715,803.10918 531.85459,802.40466 531.62988,801.33321 C 531.37697,800.12737 529.59835,799.72802 522.3253,799.24407 C 517.37976,798.91499 510.47267,798.77795 506.97619,798.93954 L 500.61897,799.23331 L 512.8444,802.52971 C 519.56839,804.34274 525.95005,805.66164 527.02589,805.46062 C 528.10173,805.2596 532.50289,805.04028 536.80624,804.97324 z M 577.88367,803.6936 C 581.53735,801.36968 589.96546,795.6619 600.3824,788.45677 L 610.7693,781.2724 L 606.38349,781.00154 C 602.59307,780.76745 600.36091,781.51658 589.94068,786.51999 C 583.30933,789.70411 573.62469,794.32877 568.41928,796.79699 C 556.48745,802.45465 554.08409,803.95277 555.95351,804.56738 C 558.05032,805.25675 568.61847,805.73021 572.50448,805.30889 C 574.3872,805.10475 576.80784,804.37787 577.88367,803.6936 z M 554.41085,802.52314 C 556.02461,801.61964 562.62634,798.33376 569.08136,795.22114 C 596.57414,781.96419 601.51564,779.43974 596.46632,781.23119 C 592.29058,782.71272 590.77472,782.91212 591.46313,781.88933 C 592.18423,780.818 589.68945,781.63724 563.21316,791.16628 C 554.06854,794.45751 544.05591,797.95919 540.96289,798.9478 C 535.45242,800.70907 533.58507,802.37647 537.12304,802.37647 C 538.10416,802.37647 542.39529,801.02125 546.65888,799.36487 C 550.92246,797.70848 562.33293,793.26083 572.01546,789.4812 C 588.22123,783.15518 595.16907,780.8958 589.11959,783.91906 C 585.87357,785.54127 553.12545,798.39615 550.07697,799.24476 C 548.76917,799.60882 546.39569,800.63453 544.80257,801.52414 L 541.90598,803.14158 L 545.22432,803.51336 C 547.04939,803.71783 549.20282,803.94829 550.0097,804.02549 C 550.81657,804.10269 552.7971,803.42663 554.41085,802.52314 z M 435.51219,801.36465 C 446.64337,799.48578 452.64582,797.99049 451.8799,797.28721 C 451.42031,796.86521 431.57231,800.09812 423.84329,801.85393 C 415.02312,803.8576 422.63332,803.53851 435.51219,801.36465 z M 391.90965,800.83645 L 394.69622,800.32025 L 390.93439,799.13277 C 387.78224,798.13773 386.95523,798.14485 385.83152,799.17666 C 384.1478,800.72267 385.3512,802.69318 387.51045,801.92579 C 388.39739,801.61056 390.37703,801.12037 391.90965,800.83645 z M 402.32654,798.78429 C 404.24249,798.22087 404.34833,798.0689 402.81555,798.08202 C 401.73972,798.09121 399.53913,798.40724 397.92538,798.78429 C 395.28986,799.40008 395.24009,799.47154 397.43637,799.48658 C 398.78117,799.49576 400.98174,799.17974 402.32654,798.78429 z M 475.6791,797.88033 C 475.6791,797.49453 471.77222,796.89495 466.99715,796.54793 C 459.96724,796.03704 457.78054,796.18771 455.50526,797.3398 C 452.81767,798.70066 453.19575,798.75868 464.1872,798.6722 C 470.50774,798.62249 475.6791,798.26613 475.6791,797.88033 z M 410.02856,797.32497 C 412.52585,796.86635 413.08218,796.3325 413.06994,794.40631 C 413.04418,790.35241 411.93345,789.68192 405.7362,789.97931 C 402.60109,790.12976 399.89011,790.65996 399.7118,791.15755 C 399.51541,791.70563 401.12344,791.93548 403.79118,791.74066 C 406.35849,791.55317 408.19474,791.80063 408.19474,792.33409 C 408.19474,792.83737 408.4608,793.88574 408.78599,794.66386 C 409.18114,795.6094 408.61353,796.35946 407.07443,796.92549 C 404.3539,797.92602 405.73709,798.11306 410.02856,797.32497 z M 494.75077,796.98167 C 487.30698,796.1231 471.77687,795.18884 473.72303,795.71667 C 476.41794,796.44757 489.7952,797.6532 495.23978,797.65587 L 500.61897,797.6585 L 494.75077,796.98167 z M 424.30449,794.43847 C 433.10258,792.63784 432.55291,791.99263 421.43262,791.06735 C 413.67519,790.42188 413.02571,790.76716 414.65661,794.66964 C 415.37192,796.38128 414.73744,796.39647 424.30449,794.43847 z M 442.42593,686.47786 C 407.51776,685.13943 378.256,683.74579 376.09465,683.31872 C 374.84612,683.072 374.00073,682.3799 374.21602,681.78071 C 374.692,680.45598 386.06242,679.5573 403.91584,679.43334 C 410.97603,679.38431 418.03777,679.10817 419.6086,678.81971 C 421.17945,678.53123 425.55818,676.19995 429.33915,673.63907 C 433.12009,671.07818 438.05151,668.22193 440.29782,667.29182 C 442.54411,666.36173 444.38201,665.27044 444.38201,664.86673 C 444.38201,664.46304 443.44743,662.48635 442.30517,660.47412 C 439.45244,655.44866 440.69531,654.97272 444.97214,659.4528 C 446.92877,661.50243 449.29087,663.17937 450.22123,663.17937 C 451.15159,663.17937 453.73548,661.96701 455.9632,660.48525 C 460.48856,657.4752 463.08423,657.10631 464.98005,659.20382 C 465.68233,659.9808 467.9599,661.41425 470.04132,662.38927 L 473.82573,664.16203 L 478.42004,659.99745 C 483.62118,655.28278 485.25083,656.32997 481.46524,661.95425 L 479.27984,665.20108 L 481.63612,666.86441 C 482.93207,667.77923 484.45954,668.5367 485.03052,668.54769 C 485.60148,668.55866 486.93712,669.27487 487.99863,670.13923 C 493.85568,674.90862 498.77655,677.86338 501.95436,678.51898 C 503.92366,678.92527 515.18718,679.70909 526.98441,680.26083 C 547.39099,681.2152 554.17328,682.22673 550.89962,683.82761 C 550.14121,684.19849 538.12866,684.76553 524.20507,685.0877 C 510.28149,685.40987 498.47172,685.91052 497.96118,686.20027 C 496.55452,686.99852 460.68239,687.17783 442.42593,686.47786 z M 461.00858,683.96428 C 461.00858,682.40765 459.89877,682.29476 444.1375,682.24811 C 425.61648,682.19328 427.62835,683.11648 449.27218,684.60426 C 455.45824,685.02949 460.6296,685.43436 460.76408,685.50397 C 460.89856,685.57357 461.00858,684.88072 461.00858,683.96428 z M 490.83864,683.85258 L 497.68487,683.1694 L 489.37158,682.96618 C 463.31801,682.32925 462.96465,682.34347 462.96465,684.02863 C 462.96465,685.47814 463.86224,685.56743 473.47852,685.07459 C 479.26114,684.77825 487.07319,684.22833 490.83864,683.85258 z M 423.84329,682.93639 C 424.81266,682.36117 418.84032,682.12586 406.23868,682.24274 L 387.16701,682.41965 L 403.30458,682.93639 C 412.18023,683.2206 420.10231,683.53273 420.90919,683.63002 C 421.71606,683.72732 423.03641,683.41519 423.84329,682.93639 z M 512.11087,683.17688 C 509.82471,682.98781 506.08374,682.98781 503.79758,683.17688 C 501.51144,683.36594 503.38192,683.52064 507.95422,683.52064 C 512.52655,683.52064 514.39703,683.36594 512.11087,683.17688 z M 518.89599,683.22096 C 518.18996,682.96155 517.34641,682.99345 517.02142,683.29186 C 516.69643,683.59028 517.27408,683.80252 518.30509,683.76354 C 519.44445,683.72044 519.67619,683.50764 518.89599,683.22096 z M 493.03921,680.94807 C 495.86328,680.40211 498.17389,679.79178 498.17389,679.59182 C 498.17389,679.09539 492.57173,674.75535 489.48573,672.86102 C 487.33035,671.53794 486.85725,671.50297 486.17859,672.61648 C 485.70944,673.38628 485.99943,675.00394 486.8901,676.58545 C 487.71699,678.0537 488.39354,679.47714 488.39354,679.74863 C 488.39354,680.02012 486.43542,680.24225 484.04217,680.24225 C 480.23517,680.24225 479.37057,679.85677 477.13131,677.16105 C 474.82939,674.3899 474.67481,673.73749 475.59503,670.67726 C 476.69926,667.00518 476.55424,666.74689 472.50048,665.1653 L 469.81089,664.11593 L 469.81089,668.69687 C 469.81089,672.86832 469.66502,673.16764 468.17889,672.04529 C 466.70438,670.93171 466.60314,671.07276 467.12969,673.50691 C 468.15401,678.24208 469.71982,681.14029 471.25374,681.14029 C 473.18278,681.14029 473.1522,679.37962 471.17819,676.79181 C 470.31644,675.66212 469.84562,674.52273 470.13192,674.25986 C 470.41823,673.99697 471.55934,675.41411 472.66773,677.40905 C 474.4898,680.6885 475.08233,681.06273 478.84867,681.31276 C 481.1398,681.46487 484.11464,681.6684 485.45944,681.76505 C 486.80424,681.86169 490.21513,681.49406 493.03921,680.94807 z M 512.35538,681.11783 C 506.43827,680.7607 500.71677,680.79611 499.64094,681.1965 C 498.50803,681.61814 503.0354,681.89139 510.39932,681.8458 L 523.11376,681.76713 L 512.35538,681.11783 z M 420.62897,680.47567 C 417.5163,680.29692 412.67503,680.29857 409.8706,680.47935 C 407.06616,680.66014 409.61289,680.8064 415.52999,680.80436 C 421.4471,680.80235 423.74164,680.65442 420.62897,680.47567 z M 452.3742,676.20105 C 454.9574,671.83067 456.17733,664.07743 454.28178,664.07743 C 453.80957,664.07743 451.85096,664.68063 449.92934,665.41787 L 446.43546,666.7583 L 447.70594,670.12784 C 448.85371,673.17194 448.77817,673.77864 446.9237,676.40966 C 445.03454,679.08999 444.45635,679.32286 439.66535,679.33309 L 434.45969,679.34421 L 436.50388,676.95798 C 437.83014,675.40981 438.3317,673.91167 437.93199,672.69226 C 437.43031,671.16176 437.55425,671.02122 438.59949,671.93533 C 439.85281,673.03144 447.31611,673.55757 447.31611,672.54983 C 447.31611,672.05445 445.39913,668.44432 444.78911,667.79088 C 444.26435,667.22875 432.33117,673.70338 428.73346,676.50222 L 425.31035,679.16525 L 428.73346,680.08764 C 430.61618,680.59495 436.10839,680.9383 440.93838,680.85064 L 449.72017,680.69127 L 452.3742,676.20105 z M 456.23456,676.19935 C 458.20536,670.05295 456.94856,669.81727 453.68981,675.72217 C 450.762,681.02739 450.7463,681.14078 452.93981,681.13861 C 454.16982,681.1374 455.09681,679.7477 456.23456,676.19935 z M 461.26722,680.60347 C 461.58876,680.30822 461.61072,679.48967 461.316,678.78446 C 460.90486,677.80066 460.46531,677.74218 459.42732,678.53319 C 458.68326,679.10021 458.07448,679.91876 458.07448,680.35221 C 458.07448,681.24237 460.3743,681.42335 461.26722,680.60347 z M 466.37722,676.7271 C 466.0536,671.21967 465.48037,670.36375 462.11558,670.36375 C 459.73852,670.36375 459.23893,670.90057 457.81742,674.98217 L 456.20897,679.60057 L 459.13338,677.02797 C 461.42852,675.00891 462.40587,674.65697 463.67555,675.39235 C 464.56532,675.90771 465.50112,676.90667 465.75509,677.61227 C 466.14858,678.70551 465.97646,678.71297 464.59075,677.66267 C 463.14679,676.5682 462.96465,676.69394 462.96465,678.78523 C 462.96465,680.49023 463.47143,681.14029 464.80061,681.14029 C 466.38263,681.14029 466.60069,680.52992 466.37722,676.7271 z M 485.15714,671.66061 C 485.46144,670.80879 478.7801,667.21701 478.0826,667.85747 C 477.92396,668.00314 477.48361,669.25852 477.10402,670.64719 C 476.42006,673.14943 476.45155,673.16955 480.61614,672.89046 C 482.92738,672.73558 484.97083,672.18215 485.15714,671.66061 z M 459.43858,666.57072 C 460.28573,662.68135 459.80574,662.74801 457.9304,666.78014 C 456.75221,669.31335 456.65827,670.11716 457.57826,669.793 C 458.26837,669.54983 459.10553,668.09981 459.43858,666.57072 z M 463.94269,667.66961 C 463.94269,667.17569 463.06246,666.77157 461.98662,666.77157 C 460.91078,666.77157 460.03055,667.17569 460.03055,667.66961 C 460.03055,668.16353 460.91078,668.56765 461.98662,668.56765 C 463.06246,668.56765 463.94269,668.16353 463.94269,667.66961 z M 446.45945,662.9399 C 445.49352,662.05958 445.38117,662.16272 445.91193,663.44262 C 446.27921,664.3283 446.82609,664.82671 447.12722,664.55021 C 447.42835,664.27372 447.12785,663.54908 446.45945,662.9399 z M 479.72829,662.00681 C 480.84608,660.04991 480.83932,660.0481 478.75551,661.74698 C 477.60142,662.6879 476.65713,663.82309 476.65713,664.26961 C 476.65713,665.53383 478.4814,664.18971 479.72829,662.00681 z" id="path2626" style="fill:#000000"/>
  </g>
</svg>