<?xml version="1.0" encoding="UTF-8" standalone="no"?>
<!-- Created with Inkscape (http://www.inkscape.org/) -->

<svg
   xmlns:dc="http://purl.org/dc/elements/1.1/"
   xmlns:cc="http://creativecommons.org/ns#"
   xmlns:rdf="http://www.w3.org/1999/02/22-rdf-syntax-ns#"
   xmlns:svg="http://www.w3.org/2000/svg"
   xmlns="http://www.w3.org/2000/svg"
   xmlns:sodipodi="http://sodipodi.sourceforge.net/DTD/sodipodi-0.dtd"
   xmlns:inkscape="http://www.inkscape.org/namespaces/inkscape"
   version="1.0"
   width="178.9375"
   height="251.6676"
   id="svg2557"
   inkscape:version="0.48.4 r9939"
   sodipodi:docname="F-117.svg">
  <metadata
     id="metadata8">
    <rdf:RDF>
      <cc:Work
         rdf:about="">
        <dc:format>image/svg+xml</dc:format>
        <dc:type
           rdf:resource="http://purl.org/dc/dcmitype/StillImage" />
        <dc:title></dc:title>
      </cc:Work>
    </rdf:RDF>
  </metadata>
  <sodipodi:namedview
     pagecolor="#ffffff"
     bordercolor="#666666"
     borderopacity="1"
     objecttolerance="10"
     gridtolerance="10"
     guidetolerance="10"
     inkscape:pageopacity="0"
     inkscape:pageshadow="2"
     inkscape:window-width="1314"
     inkscape:window-height="976"
     id="namedview6"
     showgrid="false"
     fit-margin-top="0"
     fit-margin-left="0"
     fit-margin-right="0"
     fit-margin-bottom="0"
     inkscape:zoom="0.58224686"
     inkscape:cx="21.242712"
     inkscape:cy="92.374277"
     inkscape:window-x="195"
     inkscape:window-y="55"
     inkscape:window-maximized="0"
     inkscape:current-layer="svg2557" />
  <defs
     id="defs2559" />
  <path
     style="fill:#000000"
     d="m 89.375,0.00446576 c -0.240208,0.0782 -0.705039,1.19691004 -1.59375,3.59375004 -0.98241,2.64957 -2.68096,5.96968 -3.8125,7.3750002 -1.13154,1.40531 -2.0625,3.18777 -2.0625,3.96875 0,1.24027 -6.48317,16.57927 -10.25,24.25 -0.72766,1.48177 -4.17018,9.1597 -7.65625,17.0625 -3.48606,7.9028 -8.83822,19.832 -11.875,26.5 -3.03678,6.66798 -8.62909,19.200064 -12.4375,27.843754 -3.80842,8.64369 -9.99879,22.38149 -13.75,30.53125 -3.75121,8.14978 -9.03272,19.85718 -11.71875,26.03125 -2.68604,6.17406 -5.85907,13.24912 -7.0625,15.71875 -4.70968,9.66503 -6.30902,14.62196 -6.71875,20.8125 L 0,210.12947 l 4.8125,4.34375 4.8125,4.34375 6.53125,-6.375 c 3.60662,-3.49482 9.20999,-9.1051 12.4375,-12.46875 3.22751,-3.36366 9.06548,-9.24081 12.96875,-13.0625 3.90327,-3.82171 8.00946,-8.01029 9.125,-9.3125 2.57591,-3.00693 3.44919,-2.46978 4.28125,2.625 0.59794,3.6612 1.73609,5.11249 10.84375,13.71875 7.39217,6.98522 10.15225,10.2128 10.15625,11.84375 0.0033,1.23482 -1.56814,7.48521 -3.5,13.90625 -3.58567,11.91796 -4.97803,22.20159 -3.8125,27.90625 0.52545,2.57187 1.02753,3.16334 2.65625,2.9375 1.52155,-0.21102 3.92258,-3.73939 9.71875,-14.21875 4.23447,-7.65584 8.10184,-15.14324 8.59375,-16.625 0.75264,-2.26719 0.9258,-2.34217 1,-0.625 0.08374,1.93745 4.28027,9.98435 10.875,20.84375 1.64974,2.7166 3.8484,6.46028 4.90625,8.3125 2.78982,4.88479 5.35752,4.5383 6.15625,-0.8125 1.12184,-7.51538 0.69032,-10.98911 -3.3125,-25.71875 -2.17513,-8.00405 -4.15669,-15.19751 -4.40625,-15.96875 -0.4387,-1.35575 0.87976,-2.95151 9.625,-11.625 8.1791,-8.11198 9.27514,-9.68176 9.96875,-14.3125 0.78208,-5.2213 1.76021,-6.18281 3.6875,-3.65625 0.75196,0.98577 4.17129,4.54659 7.625,7.9375 3.45371,3.39088 8.26686,8.1915 10.6875,10.65625 14.08059,14.33731 21.00834,20.9375 21.96875,20.9375 0.59722,0 3.21401,-1.98385 5.8125,-4.40625 l 4.71875,-4.40625 -0.4375,-6.125 c -0.37708,-5.17332 -1.6531,-8.70965 -8.03125,-22.3125 -7.28187,-15.53022 -17.55067,-38.01216 -26.5,-57.9375 -2.32935,-5.18622 -7.19183,-15.9097 -10.78125,-23.812504 -3.58944,-7.9028 -8.06073,-17.80164 -9.9375,-22 -1.87677,-4.19836 -4.21316,-9.24305 -5.1875,-11.21875 -0.97436,-1.9757 -3.5394,-7.62324 -5.71875,-12.5625 -2.17935,-4.93924 -6.82978,-15.25041 -10.34375,-22.90625 -3.51395,-7.65584 -6.40225,-14.37294 -6.40625,-14.9375 -0.004,-0.56456 -0.66187,-1.27819 -1.46875,-1.5625 -0.86218,-0.30378 -1.46875,-1.6335502 -1.46875,-3.2500002 0,-1.61647 -0.60657,-2.97747 -1.46875,-3.28125 -0.84943,-0.2993 -1.49155,-1.70946 -1.53125,-3.34375 C 89.62971,0.50595576 89.56183,-0.05637424 89.375,0.00446576 z m -0.84375,6.00000004 3.125,6.2812502 c 3.1053,6.19727 13.03965,27.41119 16.6875,35.65625 1.03801,2.34614 1.78288,4.25775 1.65625,4.21875 -4.95668,-1.52635 -5.18734,-1.84848 -8.78125,-11.40625 -8.52907,-22.68255 -11.80096,-30.75 -12.5,-30.75 -0.40917,0 -1.97398,3.14083 -3.46875,6.96875 -9.94766,25.47465 -13.72053,33.91585 -15.28125,34.1875 -1.30229,0.22668 -0.23228,-2.94884 5,-14.8125 3.66243,-8.3042 6.98944,-16.02425 7.375,-17.15625 0.38556,-1.132 1.92754,-4.57065 3.4375,-7.625 l 2.75,-5.5625002 z m -0.875,8.9375002 0.0625,10.125 c 0.02847,5.55665 -0.08167,10.09375 -0.25,10.09375 -0.16832,0 -1.55323,-1.17849 -3.0625,-2.625 l -2.75,-2.625 3,-7.5 3,-7.46875 z m 2.15625,0 2.875,7.15625 c 1.5876,3.92382 2.90625,7.57244 2.90625,8.125 0,0.55257 -1.32374,2.17411 -2.9375,3.59375 l -2.9375,2.5625 0.0625,-10.71875 0.03125,-10.71875 z m 5.84375,17.3125 c 1.06923,-0.20808 1.8684,2.04921 5.46875,11.65625 l 1.78125,4.71875 -4.65625,4.25 -4.625,4.25 0,-7.40625 c 0,-5.24019 -0.44736,-8.0748 -1.53125,-9.59375 -1.6874,-2.36468 -1.08412,-4.23472 2.28125,-7.03125 0.526337,-0.43738 0.92484,-0.77439 1.28125,-0.84375 z m -14.3125,0.0312 c 0.764768,-0.0878 1.730525,0.81723 3.34375,2.6875 2.99508,3.47235 2.99068,3.57469 1.125,5.125 -1.51506,1.25898 -1.93082,3.00735 -2.15625,8.6875 l -0.28125,7.09375 -4.59375,-4.15625 -4.59375,-4.15625 2,-4.625 c 1.10734,-2.54445 2.48015,-5.86197 3.03125,-7.34375 0.798555,-2.14712 1.360232,-3.22472 2.125,-3.3125 z m 9.25,8.6875 c 0.03723,-0.004 0.05473,0.009 0.09375,0.0312 0.56722,0.3219 1,5.23908 1,11.71875 0,6.84968 -0.40038,11.1875 -1,11.1875 -1.3079,0 -1.29081,0.12287 -1.09375,-14.4375 0.07317,-5.40656 0.441539,-8.43403 1,-8.5 z m -4.0625,0.0937 c 1.059212,-0.15396 1.21875,1.82805 1.21875,11.1875 0,10.64889 -0.43226,12.72903 -2.28125,11.03125 -0.35861,-0.32928 -0.625,-5.33307 -0.625,-11.125 0,-8.53227 0.28011,-10.61244 1.46875,-11.03125 0.0786,-0.0277 0.148136,-0.0522 0.21875,-0.0625 z m -12.75,8.5 c 1.040056,-0.0545 9.098594,7.39385 9.09375,8.46875 -0.0025,0.51456 -1.2085,2.14322 -2.6875,3.625 -1.47901,1.48178 -5.99907,6.09956 -10.03125,10.28125 -4.03217,4.18169 -8.1668,8.43297 -9.1875,9.4375 -1.82979,1.80078 -1.83819,1.80217 -1.09375,0.0312 0.41526,-0.98784 2.85896,-6.85719 5.4375,-13.03125 5.14431,-12.3176 7.78162,-18.1777 8.40625,-18.78125 0.01846,-0.0178 0.02895,-0.0295 0.0625,-0.0312 z m 29.40625,1.3125 c 0.10214,-0.0276 0.16936,-0.028 0.21875,0 0.37114,0.21063 3.1879,5.56026 6.25,11.875 3.06211,6.31476 6.25,12.67447 7.09375,14.15625 0.84378,1.48176 1.9404,3.60741 2.40625,4.71875 0.46587,1.11132 0.66357,2.03125 0.46875,2.03125 -0.74208,0 -25,-24.25915 -25,-25 0,-1.07568 7.03044,-7.36744 8.5625,-7.78125 z m 4.25,1.28125 c 1.67169,0.0448 4.76531,4.01052 7.21875,9.5 1.76047,3.93899 5.00082,11.20639 7.21875,16.125 2.21792,4.9186 4.03125,9.26515 4.03125,9.65625 0,0.39109 -0.47146,0.6875 -1.03125,0.6875 -1.53279,0 -19.10925,-34.78887 -18.0625,-35.75 0.17536,-0.16102 0.38619,-0.22515 0.625,-0.21875 z m -37.28125,0.0625 c 0.45303,0 -2.56511,7.67814 -6.6875,17.0625 -4.12239,9.38437 -7.81532,17.06227 -8.21875,17.0625 -1.79077,9.6e-4 -0.38184,-5.30562 4,-15.0625 2.60281,-5.79556 5.29106,-11.88393 6,-13.53125 1.34464,-3.12445 3.49674,-5.53125 4.90625,-5.53125 z m 13.40625,8.21875 c 0.284434,-0.0436 0.28125,0.42539 0.28125,1.34375 0,2.15217 2.22697,4.22693 3.4375,3.21875 1.58901,-1.32338 -0.49194,2.55369 -7.71875,14.3125 -4.0487,6.58768 -7.75099,12.56204 -8.21875,13.28125 -0.6429,0.98846 -1.72525,-0.0632 -4.4375,-4.3125 -1.97345,-3.09183 -3.59375,-6.08177 -3.59375,-6.625 0,-0.5432 3.62466,-4.6646 8.0625,-9.15625 4.43782,-4.49164 9.07094,-9.17506 10.28125,-10.40625 1.062835,-1.08115 1.621816,-1.61269 1.90625,-1.65625 z m 10.75,0.875 7.25,6.90625 c 3.99484,3.7945 8.67,8.3441 10.40625,10.09375 l 3.15625,3.15625 -3.46875,6.03125 c -1.91595,3.31307 -3.65442,6.03125 -3.875,6.03125 -0.59132,0 -7.14154,-10.23361 -14.15625,-22.125 l -3.25,-5.5 1.96875,-2.28125 1.96875,-2.3125 z m -5.65625,6.15625 c 1.2964,0 4.16186,4.45417 3.5,5.4375 -0.60072,0.89249 -2.56937,0.97692 -5.59375,0.25 -1.56004,-0.37498 -1.57754,-0.61852 -0.21875,-3.03125 0.81471,-1.44661 1.85026,-2.65625 2.3125,-2.65625 z M 87.5,74.660616 c 0.473912,-0.0109 0.998013,0 1.59375,0 4.63478,0 5.32046,0.25028 6.34375,2.3125 0.63109,1.27181 0.90129,2.69932 0.59375,3.15625 -0.58591,0.87049 -15.125,1.20119 -15.125,0.34375 0,-0.27149 0.67931,-1.699 1.5,-3.15625 1.197315,-2.12601 1.776368,-2.57967 5.09375,-2.65625 z m 1.1875,7.21875 c 4.910789,0.003 9.91643,0.27047 10.28125,0.8125 0.32761,0.48672 -3.31915,0.95823 -8.75,1.125 -9.9102,0.30433 -11.25,0.18028 -11.25,-1.125 0,-0.54178 4.807961,-0.81566 9.71875,-0.8125 z M 62,82.660616 l 3.03125,5.21875 3,5.21875 -2.28125,6.5625 c -2.65917,7.671744 -2.87415,7.962264 -4.875,6.437504 -1.24579,-0.94936 -1.85463,-0.84658 -3.4375,0.46875 -1.75543,1.45871 -1.9663,1.44559 -2.53125,0.0937 -0.33937,-0.81208 -0.11448,-5.40695 0.5,-10.218754 0.97862,-7.66327 1.44792,-9.07111 3.84375,-11.28125 l 2.75,-2.5 z m 54.1875,0.59375 c 0.62903,0.0147 1.9673,0.86311 3.21875,2.0625 2.45953,2.35723 2.70423,3.41301 4.4375,19.500004 1.00791,9.35457 1.8771,17.82464 1.9375,18.8125 0.0604,0.98784 0.38886,3.49457 0.71875,5.59375 0.54308,3.4559 0.39543,3.8125 -1.46875,3.8125 -1.86652,0 -2.0625,-0.50442 -2.0625,-5.4375 0,-3.92575 0.33071,-5.24974 1.15625,-4.78125 0.81928,0.46493 0.89014,0.16825 0.28125,-1.0625 -0.46773,-0.94538 -1.01475,-4.42609 -1.21875,-7.71875 -0.27519,-4.44225 -0.83808,-6.38394 -2.21875,-7.53125 -1.53422,-1.27488 -2.13074,-1.35443 -3.375,-0.40625 -1.96645,1.49855 -2.32002,1.12728 -5.40625,-6.156254 l -2.59375,-6.15625 2.75,-5 c 1.51603,-2.75293 3.15858,-5.23531 3.625,-5.5 0.0583,-0.0331 0.12889,-0.0333 0.21875,-0.0312 z m -63.25,2.1876 c 0.21141,0 0.62786,0.60286 0.9375,1.34375 0.30962,0.74088 0.14603,1.34375 -0.375,1.34375 -0.52104,0 -0.9375,-0.60287 -0.9375,-1.34375 0,-0.74089 0.16359,-1.34375 0.375,-1.34375 z m 29.625,0 c 0.418425,-0.0106 0.883826,0 1.40625,0 l 4.78125,0 0,28.281254 0,28.3125 -4.90625,0 c -2.68958,0 -4.92205,-0.31706 -4.96875,-0.6875 -0.33285,-2.63836 -0.41895,-52.274434 -0.09375,-53.875004 0.314344,-1.54713 0.852278,-1.95672 3.78125,-2.03125 z m 7.15625,0 5.375,0 5.375,0 0,28.281254 0,28.3125 -5.375,0 -5.375,0 0,-28.3125 0,-28.281254 z M 77,86.785716 l 0,3.375 c 0.0053,2.77095 -0.32803,3.375 -1.9375,3.375 -2.44271,0 -2.44271,-0.64455 0,-4.03125 L 77,86.785716 z m 24.90625,1.34375 c 0.25515,0 1.1655,1.23697 2,2.71875 1.44474,2.56534 1.41773,2.6875 -0.46875,2.6875 -1.54928,0 -1.96875,-0.58067 -1.96875,-2.6875 0,-1.48178 0.18236,-2.71875 0.4375,-2.71875 z m 24.0625,0.90625 c 1.11741,0 5.8125,9.08778 5.8125,11.250004 0,2.83135 -1.82284,1.08001 -4.28125,-4.125004 -2.83266,-5.99737 -3.06675,-7.125 -1.53125,-7.125 z m -73.59375,0.375 c 0.04741,0.003 0.08406,0.008 0.125,0.0312 0.5875,0.33339 0.61224,1.34906 0.09375,2.5625 -3.193,7.47266 -4.76326,9.991014 -5.375,8.625004 -0.783651,-1.749884 3.686675,-11.300394 5.15625,-11.218754 z m 1.71875,3.4375 c 0.14306,0.13195 -0.72535,8.308994 -1.90625,18.187504 l -2.125,17.96875 -7.21875,12.125 c -6.60752,11.09614 -12.14715,20.16342 -30.15625,49.40625 -3.49809,5.68014 -6.52042,10.4817 -6.71875,10.6875 -1.21185,1.25755 0.82419,-3.63659 10.9375,-26.28125 6.2123,-13.90998 13.53741,-30.32593 16.28125,-36.5 2.74382,-6.17407 6.83907,-15.27949 9.09375,-20.21875 2.25467,-4.93926 5.76388,-12.73521 7.8125,-17.3125 2.04863,-4.577264 3.85695,-8.194444 4,-8.062504 z m 70.1875,1 c 0.36417,-0.33439 4.94607,9.027024 11.71875,23.937504 11.44822,25.20399 17.59189,38.65464 26.21875,57.375 5.32692,11.55952 9.5142,21.1898 9.3125,21.375 -0.4195,0.38519 -21.50033,-33.10608 -38,-60.34375 l -5.4375,-8.96875 L 126,110.69197 c -1.1503,-9.08279 -1.92184,-16.657264 -1.71875,-16.843754 z m -49.5625,0.59375 c 2.08647,0 2.28125,0.3634 2.28125,4.46875 0,2.469624 -0.18327,4.500004 -0.40625,4.500004 -0.80778,0 -5.22246,-7.977564 -4.6875,-8.468754 0.30218,-0.27746 1.55735,-0.5 2.8125,-0.5 z m 28.4375,0 c 0.22286,-0.0164 0.46474,0 0.75,0 2.96045,0 3.03041,0.79564 0.46875,5.40625 -1.08676,1.956034 -2.17946,3.562504 -2.4375,3.562504 -0.25803,0 -0.46875,-2.03038 -0.46875,-4.500004 0,-3.66703 0.12748,-4.35416 1.6875,-4.46875 z m -32.5,2.6875 c 0.25083,0 1.57458,2.03036 2.9375,4.500004 l 2.46875,4.46875 -5.40625,0 -5.40625,0 2.46875,-4.46875 c 1.36292,-2.469644 2.68666,-4.500004 2.9375,-4.500004 z m 37.21875,0 c 0.2139,0 1.51207,2.03036 2.875,4.500004 l 2.46875,4.46875 -5.375,0 c -2.96762,0 -5.40625,-0.159 -5.40625,-0.34375 0,-0.62312 5.04491,-8.625004 5.4375,-8.625004 z M 46.75,102.25447 c 0.03576,-4e-4 0.06808,0.008 0.09375,0.0312 0.4388,0.4029 -0.50512,3.7308 -2.0625,7.40625 -2.64029,6.23113 -4.9375,9.05061 -4.9375,6.03125 0,-2.26124 5.797797,-13.4565 6.90625,-13.46875 z m 84.625,0.25 c 0.12454,-0.005 0.3012,0 0.46875,0 0.89391,0 4.14991,5.84361 6.875,12.34375 0.64794,1.54553 0.47084,2.03125 -0.65625,2.03125 -0.81044,0 -1.73046,-0.69814 -2.0625,-1.5625 -0.33203,-0.86438 -1.64141,-3.98102 -2.90625,-6.90625 -2.32896,-5.38623 -2.59056,-5.8697 -1.71875,-5.90625 z m -12.25,3.59375 c 0.46144,0 1.31829,0.83498 1.90625,1.84375 0.58796,1.00876 0.94684,3.32493 0.78125,5.15625 l -0.3125,3.34375 -2.1875,-3.78125 c -2.04233,-3.50835 -2.13186,-6.5625 -0.1875,-6.5625 z m -60,0.53125 c 0.342187,0.0148 0.735255,0.25297 1.15625,0.71875 0.96014,1.06228 0.80214,1.99446 -0.78125,4.75 l -1.96875,3.4375 L 57.5,111.94197 c -0.02708,-3.44298 0.59844,-5.35707 1.625,-5.3125 z m 48.6875,0.375 6.34375,0 0,8.09375 c 0,4.44532 -0.16771,8.0625 -0.375,8.0625 -0.20729,0 -3.05456,-2.64641 -6.34375,-5.875 -3.97321,-3.9 -5.96875,-6.59273 -5.96875,-8.0625 0,-2.12407 0.23991,-2.21875 6.34375,-2.21875 z m -33.5,0.0625 c 2.539065,0.01 2.6875,0.44289 2.6875,1.9375 0,1.38171 -2.14549,4.06321 -6.375,7.90625 l -6.40625,5.8125 0.28125,-7.625 0.28125,-7.65625 6.125,-0.25 c 1.457538,-0.0637 2.559895,-0.12818 3.40625,-0.125 z m -19.6875,1.8125 c 0.228257,0.0209 0.494796,0.16346 0.8125,0.34375 1.54052,0.87422 1.19411,8.7313 -0.46875,10.75 -0.78978,0.95876 -1.42335,2.16448 -1.40625,2.6875 0.0171,0.523 0.67898,0.17753 1.46875,-0.78125 1.30553,-1.58488 1.4375,-1.17474 1.4375,4.6875 0,6.38396 -0.02992,6.47134 -2.53125,6.28125 -2.31656,-0.17605 -2.47086,-0.47232 -1.96875,-3.375 0.30119,-1.74109 0.76206,-6.9539 1.03125,-11.59375 0.385027,-6.63684 0.606248,-8.74132 1.40625,-8.96875 0.06667,-0.0189 0.142664,-0.0382 0.21875,-0.0312 z m 6.71875,3.0625 0,5.125 c 0.002,2.81092 -0.43082,5.35099 -0.96875,5.65625 -0.53791,0.30528 -0.96875,3.12905 -0.96875,6.28125 0,3.15222 -0.43084,5.97598 -0.96875,6.28125 -0.62721,0.35593 -1,-2.65835 -1,-8.4375 0,-7.42549 0.36001,-9.54597 1.96875,-11.96875 l 1.9375,-2.9375 z m 56.25,0.90625 2.1875,3.25 c 1.83577,2.71053 2.21875,4.51487 2.21875,10.9375 0,7.07984 -0.71001,9.56518 -2.3125,8.09375 -0.34398,-0.31586 -0.625,-3.06435 -0.625,-6.09375 0,-3.02941 -0.46079,-5.94496 -1.03125,-6.46875 -0.57045,-0.52381 -0.91702,-2.9287 -0.75,-5.34375 l 0.3125,-4.375 z M 77,112.87942 l 0,15.9375 c 0,8.75289 -0.14841,15.90625 -0.34375,15.90625 -0.19536,0 -3.07444,-2.7285 -6.375,-6.0625 -5.49333,-5.549 -5.99903,-6.40192 -6,-10.125 -9.8e-4,-3.81414 0.41326,-4.41825 6.375,-9.84375 L 77,112.87942 z m 25.59375,2.40625 c 1.05347,-0.17368 3.07728,1.98907 6.875,5.625 4.01702,3.84589 4.67015,5.01704 4.65625,8.09375 -0.0143,3.15838 -0.77997,4.34784 -6.3125,9.875 l -6.28125,6.28125 -0.0312,-15.59375 c -0.0246,-9.94783 -0.26071,-14.05795 1.09375,-14.28125 z m -62.75,2.375 c 0.993763,-0.23137 0.313878,2.52299 -2,7.875 -3.48984,8.07197 -3.05104,7.36263 -4.53125,6.875 -1.14279,-0.37647 3.53829,-12.26634 5.5625,-14.125 0.409095,-0.37564 0.73942,-0.57161 0.96875,-0.625 z m 99.65625,0.3438 c 0.59748,0.0838 1.37226,1.01059 1.84375,2.21875 0.53884,1.38073 1.90303,4.62565 3.03125,7.21875 1.62654,3.73845 1.77164,4.71875 0.6875,4.71875 -0.79614,0 -2.51606,-2.74014 -4.09375,-6.53125 -3.23515,-7.77387 -3.08943,-7.17422 -1.71875,-7.59375 0.0764,-0.0234 0.16465,-0.0432 0.25,-0.0312 z m -23.1875,4.375 c 0.087,-0.0311 0.16129,-0.0221 0.25,0 0.55199,0.13733 1.0974,1.31951 1.3125,3.625 0.18863,2.02162 -0.24567,3.57095 -1.21875,4.3125 -1.33696,1.01882 -1.5,0.59028 -1.5,-3.53125 0,-2.66319 0.54748,-4.18832 1.15625,-4.40625 z m -53.6875,0.375 c 0.591427,-0.0914 0.6875,0.91581 0.6875,3.90625 0,4.48264 -1.14882,6.0155 -2.34375,3.15625 -1.03825,-2.48435 -0.64034,-5.50148 0.875,-6.65625 0.317895,-0.24225 0.584108,-0.37578 0.78125,-0.40625 z m 65.96875,8.84375 c 0.0391,-0.003 0.051,0.007 0.0937,0.0312 0.55724,0.31624 2.52613,3.08221 4.34375,6.15625 1.81763,3.07403 4.15259,6.90481 5.1875,8.5 l 1.875,2.875 -4.0625,3.75 -4.03125,3.71875 -1.84375,-2.53125 c -1.43806,-2.0119 -1.8626,-4.69756 -2.125,-12.8125 -0.20956,-6.48094 -0.0242,-9.63578 0.5625,-9.6875 z m -11.90625,0.5625 c 0.91078,0 1.40593,0.61384 1.21875,1.5 -0.47587,2.25299 -2.75,2.53234 -2.75,0.34375 0,-1.10309 0.624,-1.84375 1.53125,-1.84375 z m -55.28125,0.0625 c 0.873731,0.0757 1.90625,1.12371 1.90625,2.21875 0,0.71174 -0.44521,1.3125 -1,1.3125 -1.17088,0 -2.42957,-2.54249 -1.625,-3.28125 0.107059,-0.0983 0.213261,-0.18275 0.34375,-0.21875 0.114177,-0.0315 0.250181,-0.0421 0.375,-0.0312 z m -11.625,0.8125 c 0.44166,0 0.8155,4.15603 0.8125,9.21875 -0.0044,8.28547 -0.23276,9.4618 -2.28125,11.8125 l -2.28125,2.625 -3.34375,-3.375 c -1.83866,-1.8553 -3.34375,-3.6468 -3.34375,-3.96875 0,-1.20312 9.66664,-16.3125 10.4375,-16.3125 z m 96.625,0.0937 c 0.2525,-0.0345 0.45141,-0.008 0.5625,0.0937 1.08609,0.99726 6.23448,13.59181 5.8125,14.21875 -0.26672,0.39627 -0.0161,0.85415 0.5625,1.03125 0.5786,0.17708 2.37186,3.31921 3.96875,6.96875 3.81324,8.71483 2.19768,10.30262 -1.90625,1.875 -1.69676,-3.4844 -3.09375,-6.86224 -3.09375,-7.5 0,-0.63774 -0.39094,-1.53076 -0.875,-2 -1.94214,-1.88261 -6.80041,-13.83209 -5.84375,-14.375 0.27202,-0.15436 0.56,-0.27799 0.8125,-0.3125 z M 32.4375,133.94197 c 0.0425,-0.008 0.0612,-0.0154 0.09375,0 1.12926,0.53557 1.12839,0.60486 -2.25,8.3125 -1.46064,3.33239 -3.2026,6.0605 -3.875,6.0625 -1.6437,0.004 -1.58566,-0.3373 2.03125,-8.09375 1.619437,-3.47291 3.362524,-6.16039 4,-6.28125 z m 92.5,0 c 1.69526,0 1.9375,0.60848 1.9375,4.5 0,2.46963 -0.12692,4.46875 -0.3125,4.46875 -1.36135,0 -3.59375,-3.78953 -3.59375,-6.125 0,-2.24923 0.42389,-2.84375 1.96875,-2.84375 z m -72.3125,0.0937 c 0.135784,-0.0189 0.297021,-0.007 0.46875,0 0.196261,0.008 0.438153,0.0298 0.6875,0.0625 2.76318,0.36198 3.31838,2.86399 1.28125,5.71875 -2.3502,3.29353 -3.5,2.67168 -3.5,-1.90625 0,-2.86099 0.112011,-3.74251 1.0625,-3.875 z m 61.53125,0.34375 0,8.3125 0,8.3125 -6.34375,0 c -6.08096,0 -6.34375,-0.0992 -6.34375,-2.1875 0,-1.4599 2.09461,-4.21763 6.34375,-8.3125 l 6.34375,-6.125 z M 65,135.75447 c 0.38912,0 3.23638,2.43906 6.34375,5.4375 3.70123,3.57151 5.65625,6.19576 5.65625,7.625 0,2.08646 -0.26405,2.1875 -6.34375,2.1875 l -6.375,0 0,-7.625 c 0,-4.19836 0.32964,-7.625 0.71875,-7.625 z m -5.09375,0.40625 c 0.767845,-0.0346 1.570745,0.18367 2.1875,0.75 0.81654,0.74975 1.21845,2.58775 1.03125,4.59375 l -0.3125,3.34375 -2.6875,-2.5625 c -1.47926,-1.42369 -2.6875,-3.24675 -2.6875,-4.03125 0,-1.23901 1.189008,-2.03605 2.46875,-2.09375 z m 58.625,0.0625 c 0.50206,-0.0272 1.05212,0.0424 1.65625,0.1875 2.62449,0.63017 2.22252,3.12636 -0.9375,5.90625 -1.5087,1.32723 -3.03224,2.40625 -3.40625,2.40625 -0.374,0 -0.6875,-1.61135 -0.6875,-3.5625 0,-3.10732 1.19943,-4.81967 3.375,-4.9375 z m -63.09375,5.40625 c 0.567529,-0.0632 0.662225,0.65398 0.84375,2.53125 0.2256,2.33277 -0.32578,3.63683 -2.21875,5.375 l -2.5,2.28125 0,-3.9375 c 0,-3.07534 0.50522,-4.26676 2.21875,-5.375 0.805087,-0.5207 1.315733,-0.8371 1.65625,-0.875 z m 2,0.0625 2.9375,2.59375 c 2.10401,1.85091 2.9375,3.39784 2.9375,5.53125 0,2.76422 0.23444,3 3.21875,3 2.5866,0 4.21248,0.91107 8.375,4.78125 4.61082,4.28697 5.12223,5.17965 4.84375,8.125 l -0.3125,3.28125 -11,-10.125 c -10.27008,-9.46696 -11,-10.36915 -11,-13.65625 l 0,-3.53125 z m 63.5,0.5 c 0.0939,-0.0165 0.17101,-0.0127 0.25,0 0.63195,0.10181 0.8125,1.139 0.8125,3.125 0,2.99584 -1.02411,4.21991 -11.25,13.6875 l -11.21875,10.40625 -0.0312,-3.625 c -0.01,-3.19065 0.60287,-4.18043 5.125,-8.25 3.43262,-3.08909 6.13224,-4.71387 8.09375,-4.90625 2.59519,-0.25453 2.88395,-0.57512 2.59375,-2.84375 -0.23601,-1.84501 0.4244,-3.28678 2.375,-5.15625 1.55223,-1.48767 2.59298,-2.32185 3.25,-2.4375 z m 2.40625,0.125 c 0.27378,-0.0183 0.75508,0.36558 1.59375,1.0625 1.21342,1.00831 1.9375,2.76154 1.9375,4.625 0,1.65219 -0.31022,3 -0.71875,3 -1.40436,0 -3.1875,-3.56449 -3.1875,-6.40625 0,-1.56859 0.023,-2.25777 0.375,-2.28125 z m -44.625,0.59375 10.875,0 c 9.84636,0 10.875,0.18182 10.875,1.65625 0,0.89544 -1.21003,2.70401 -2.71875,4.03125 -2.30625,2.02881 -3.63635,2.40625 -8.21875,2.40625 -3.65167,0 -5.84052,-0.44124 -6.65625,-1.34375 -0.66965,-0.74088 -1.57608,-1.34375 -2.03125,-1.34375 -0.45516,0 -0.59088,0.60287 -0.28125,1.34375 0.35957,0.86038 -0.0054,1.34375 -1.03125,1.34375 -1.23025,0 -1.3934,-0.38263 -0.6875,-1.59375 0.50691,-0.86964 0.68794,-2.67821 0.40625,-4.03125 l -0.53125,-2.46875 z m 20.625,5.625 c 0.60193,-0.079 1.125,0.26955 1.125,1.0625 0,0.78205 -0.67955,1.40625 -1.53125,1.40625 -0.85171,0 -1.36918,-0.47596 -1.15625,-1.0625 0.30225,-0.83259 0.96057,-1.32729 1.5625,-1.40625 z m -74.03125,0.6875 c 1.43554,0 0.92999,2.54681 -1.6875,8.3125 -2.73502,6.02456 -3.82747,7.52198 -4.59375,6.34375 -0.64454,-0.99106 5.21202,-14.65625 6.28125,-14.65625 z m 96.6875,0.9375 0,3.375 c 0,3.07819 -0.9453,4.2578 -10.65625,13.4375 -5.85594,5.53557 -10.91987,10.0625 -11.25,10.0625 -0.33014,0 -0.59375,-1.21581 -0.59375,-2.71875 0,-2.91048 2.93227,-6.22343 15.90625,-18.09375 L 122,150.16072 z m -66.53125,0.0937 c 0.686611,0.0596 1,1.35077 1,3.90625 0,3.71191 -0.19164,4.03125 -2.4375,4.03125 -2.92969,0 -3.30292,-2.47259 -0.875,-5.875 1.017481,-1.42587 1.778469,-2.10887 2.3125,-2.0625 z m 1.96875,0.46875 7.03125,6.1875 c 3.8615,3.41503 8.95091,8.09605 11.3125,10.40625 3.47999,3.40427 4.22143,4.74217 3.96875,7 -0.30902,2.76116 -0.40715,2.70978 -11.3125,-7.34375 -9.69299,-8.93586 -11,-10.53016 -11,-13.21875 l 0,-3.03125 z m -19.3125,0.15625 3.75,3.34375 c 2.05996,1.84699 3.48833,3.8066 3.15625,4.34375 -0.33209,0.53714 -8.25619,11.56573 -17.59375,24.53125 -9.33756,12.96554 -17.0624,23.5809 -17.1875,23.5625 -0.12509,-0.0185 -0.95496,-0.93835 -1.84375,-2.03125 -1.83308,-2.25402 -2.40767,-1.11271 13.34375,-26.6875 4.411,-7.16192 8.18921,-13.41233 8.40625,-13.90625 0.21705,-0.49394 2.10088,-3.65927 4.1875,-7.03125 l 3.78125,-6.125 z m 102,0.3125 c 1.46245,-0.16098 2.86753,2.38531 7.34375,9.6875 2.87636,4.69228 7.0286,11.35503 9.25,14.8125 2.22141,3.45747 6.35757,10.05161 9.1875,14.625 2.82992,4.5734 5.52428,8.09599 5.96875,7.84375 0.44447,-0.25223 0.58492,0.32471 0.3125,1.28125 -0.27243,0.95655 -1.26359,2.35725 -2.1875,3.125 -1.55513,1.29227 -2.25513,0.6517 -9.4375,-8.59375 -7.57045,-9.74502 -9.1675,-11.83265 -21.59375,-28.34375 l -6,-7.96875 3.75,-3.6875 c 1.62631,-1.6009 2.52878,-2.68466 3.40625,-2.78125 z m -16.78125,0.15625 c 0.27307,-0.093 0.75102,0.29971 1.59375,1 1.07584,0.89399 1.9375,2.59174 1.9375,3.75 0,1.50722 -0.53753,2.09375 -1.9375,2.09375 -1.64222,0 -1.96875,-0.58609 -1.96875,-3.71875 0,-2.06689 0.0239,-3.00538 0.375,-3.125 z m -38.75,1.4375 3.65625,0 -0.3125,9.90625 -0.28125,9.875 -3.375,0 -3.375,0 0,-9.875 0,-9.875 3.6875,-0.0312 z m 6.59375,0 3.65625,0 3.6875,0.0312 0,9.875 0,9.875 -3.375,0 -3.34375,0 -0.3125,-9.875 -0.3125,-9.90625 z m -15.15625,0.0312 c 3.91214,0 3.90625,0.002 3.90625,3.59375 0,1.9757 -0.11552,3.55185 -0.25,3.53125 -0.69317,-0.10599 -7.5625,-6.06776 -7.5625,-6.5625 0,-0.31809 1.75457,-0.5625 3.90625,-0.5625 z m 23.46875,0 3.90625,0 c 4.46078,0 4.77565,0.57122 1.6875,3.125 -5.5369,4.57881 -5.59375,4.59891 -5.59375,0.5625 l 0,-3.6875 z m -42.0625,5.84375 11.75,10.75 c 11.288,10.3378 11.71875,10.66169 11.71875,7.96875 0,-2.25363 0.48914,-2.88224 2.40625,-3.21875 3.40232,-0.5972 4.26557,0.19491 4.625,4.25 0.45332,5.1143 3.155,4.92153 3.5625,-0.25 0.29345,-3.72412 0.55917,-4.03125 3.59375,-4.03125 3.0722,0 3.4375,0.2868 3.4375,2.90625 0,1.48178 0.31316,2.71875 0.6875,2.71875 0.37434,0 2.5526,-1.93511 4.84375,-4.28125 l 4.15625,-4.25 0.0312,3.34375 0.0625,3.375 4.84375,0 c 4.13902,0 5.14099,-0.33298 6.53125,-2.28125 2.14268,-3.00269 1.04372,-3.84942 -5.4375,-4.1875 l -5.28125,-0.25 3.8125,-3.90625 c 2.10272,-2.15066 5.05196,-4.71749 6.53125,-5.6875 l 2.6875,-1.75 0,8.59375 0,8.59375 -8.46875,7.8125 c -4.64783,4.29664 -9.7428,9.76718 -11.34375,12.15625 -1.60095,2.38908 -3.02614,4.24197 -3.15625,4.09375 -0.13011,-0.14822 -0.50121,-1.80403 -0.8125,-3.65625 -0.51615,-3.07126 -0.34586,-3.375 1.71875,-3.375 2.71302,0 4.88225,-2.11327 4.09375,-4 -0.36659,-0.87719 0.0117,-1.375 1.0625,-1.375 1.67198,0 7.125,-4.25655 7.125,-5.5625 0,-0.40152 -2.57461,-0.71875 -5.71875,-0.71875 -4.29608,0 -6.12733,0.39081 -7.34375,1.625 -2.01844,2.04793 -2.10784,4.65625 -0.15625,4.65625 0.80687,0 1.46875,0.41442 1.46875,0.9375 0,0.52308 -0.35213,0.77478 -0.78125,0.53125 -0.42912,-0.24353 -1.21736,-0.1816 -1.78125,0.15625 -1.49277,0.89439 -2.49364,5.34745 -1.34375,6 1.78727,1.01424 1.00715,4.75838 -1.5625,7.5625 -1.48886,1.62468 -3.44578,2.78125 -4.78125,2.78125 -4.3941,0 -9.20798,-7.7569 -6.4375,-10.375 1.21835,-1.15133 0.14021,-5.78125 -1.34375,-5.78125 -0.7597,0 -1.02722,-0.98444 -0.75,-2.71875 0.66127,-4.13712 -1.1394,-5.375 -7.75,-5.375 -3.16165,0 -5.71875,0.32172 -5.71875,0.71875 0,1.79033 6.6114,6.47934 9.3125,6.59375 2.39455,0.10141 2.52787,0.17163 0.65625,0.5 -2.89202,0.50739 -2.35194,2.12732 1.3125,3.84375 2.44424,1.1449 2.82188,1.77272 2.40625,4.0625 -0.58851,3.24221 -2.09573,3.68849 -4.4375,1.3125 -1.78562,-1.81172 -3.98395,-2.47612 -2.90625,-0.875 0.33245,0.49392 0.11451,0.90625 -0.5,0.90625 -0.61448,0 -0.9286,-0.50758 -0.6875,-1.125 0.67774,-1.73556 -1.25907,-4.47385 -2.78125,-3.9375 -0.74838,0.26369 -1.66196,0.0487 -2.03125,-0.5 -0.4066,-0.60408 -0.21499,-0.76301 0.46875,-0.375 2.88204,1.63552 0.55969,-1.29216 -5.40625,-6.8125 -3.6014,-3.33238 -6.29428,-6.29486 -5.96875,-6.59375 0.65197,-0.59865 16.80489,14.14376 19.6875,17.96875 0.99421,1.31924 2.04455,2.18354 2.3125,1.9375 0.96812,-0.88895 -5.58983,-8.35398 -13.8125,-15.75 l -8.4062,-7.56245 0,-9.03125 0,-9.0625 z m -3.34375,0.4375 c 2.49745,0 2.49042,0.0206 2.21875,6.71875 -0.15024,3.70444 -0.3095,6.75 -0.375,6.75 -0.84682,0 -1.4375,-1.83573 -1.4375,-4.53125 0,-1.86668 -0.64699,-3.84254 -1.46875,-4.46875 -2.44876,-1.8661 -1.82024,-4.46875 1.0625,-4.46875 z m 70.84375,0 c 1.42183,0 1.9375,0.59409 1.9375,2.1875 0,1.20566 -0.43082,2.44474 -0.96875,2.75 -0.53791,0.30526 -0.99345,2.05192 -1.03125,3.875 -0.0378,1.82306 -0.4752,4.10589 -0.9375,5.09375 -0.55896,1.1944 -0.86055,-0.83698 -0.90625,-6.0625 -0.0637,-7.28024 0.094,-7.84375 1.90625,-7.84375 z m 5.9375,2.625 c 0.0602,-0.004 0.0949,0.0256 0.125,0.0625 6.13649,7.5127 11.77138,14.76376 13.84375,17.78125 1.45419,2.1174 3.12442,3.56954 3.6875,3.25 0.56307,-0.31954 0.30262,0.68259 -0.5625,2.21875 -0.86514,1.53613 -1.73479,2.78125 -1.9375,2.78125 -0.78819,0 -20.125,-19.78687 -20.125,-20.59375 0,-1.03767 4.06496,-5.44099 4.96875,-5.5 z m -82.46875,0.0625 c 0.82638,-0.24746 3.435706,2.3146 4.25,4.28125 0.75578,1.82525 0.09568,2.93519 -4.75,8 -14.18265,14.82403 -14.37941,14.99842 -15.875,13.34375 -1.08582,-1.20133 -1.10831,-1.89614 -0.1875,-3.25 1.65239,-2.42952 1.42688,-3.02633 -0.5625,-1.59375 -1.54884,1.11534 -1.5816,1.06948 -0.375,-0.34375 0.73335,-0.85892 1.69268,-1.37036 2.125,-1.125 0.43234,0.24533 3.95241,-3.90524 7.84375,-9.21875 3.89132,-5.31351 7.23155,-9.80613 7.40625,-10 0.03828,-0.0425 0.06991,-0.0772 0.125,-0.0937 z m 111.96875,2.6875 c 1.15204,0.0104 6.625,11.00428 6.625,13.3125 0,2.69394 -1.92937,0.51999 -4.75,-5.34375 -3.42551,-7.12116 -3.6418,-7.98475 -1.875,-7.96875 z m -141.90625,0.9063 c 1.30376,0 1.04983,0.91929 -2.03125,7.625 -1.57687,3.43194 -3.33145,6.38657 -3.90625,6.5625 -0.57481,0.17592 -1.0625,0.0806 -1.0625,-0.21875 0,-1.46568 6.2677,-13.96875 7,-13.96875 z m 34.75,5.75 c 0.03707,-0.005 0.04465,-0.0164 0.0625,0 0.28559,0.26224 -2.51065,3.57394 -6.21875,7.34375 -3.70809,3.76982 -7.92823,8.13612 -9.40625,9.6875 -1.47802,1.55139 -2.6987,2.40017 -2.6875,1.90625 0.01122,-0.49392 1.45175,-2.36649 3.1875,-4.15625 1.73575,-1.78978 5.72148,-5.95027 8.875,-9.25 2.956444,-3.09352 5.631488,-5.4622 6.1875,-5.53125 z m 73.34375,0 c 0.0631,-0.0293 0.19463,-2.2e-4 0.375,0.0625 0.8416,0.29264 3.03699,2.23102 4.875,4.3125 1.83801,2.08149 4.68877,5.05204 6.3125,6.59375 1.62373,1.54171 3.78776,3.66734 4.8125,4.71875 3.80543,3.90449 0.8172,1.73603 -3.875,-2.8125 -10.19691,-9.88473 -12.94151,-12.66989 -12.5,-12.875 z m -61.34375,0.53125 c -6.59647,0 -8.29604,1.47238 -5.28125,4.53125 1.26526,1.28376 2.99708,1.75 6.40625,1.75 5.17407,0 6.23725,-0.82488 5.34375,-4.09375 -0.5528,-2.02238 -1.04861,-2.1875 -6.46875,-2.1875 z M 38.875,172.56692 c 0.05048,0.0463 -0.266725,0.41283 -0.875,1.125 -1.27768,1.49593 -2.0625,1.95787 -2.0625,1.21875 0,-0.18647 0.74614,-0.88461 1.6875,-1.5625 0.77561,-0.55853 1.199516,-0.8276 1.25,-0.78125 z m 26.40625,0.90625 c 3.51687,0 4.875,0.32328 4.875,1.21875 0,1.48254 -4.80688,2.30157 -7.71875,1.3125 -3.65633,-1.24195 -2.18922,-2.53125 2.84375,-2.53125 z m 49.59375,0 c 5.02211,0 5.44153,0.13745 4.09375,1.375 -1.69958,1.5606 -7.85639,2.71513 -8.96875,1.6875 -0.40343,-0.3727 -0.71875,-1.21643 -0.71875,-1.875 0,-0.85813 1.58846,-1.1875 5.59375,-1.1875 z m -79.375,2.6875 c 0.26896,0 0.01327,0.79341 -0.5625,1.78125 -0.57577,0.98786 -1.26229,1.8125 -1.53125,1.8125 -0.26895,0 -0.01327,-0.82464 0.5625,-1.8125 0.57577,-0.98784 1.26228,-1.78125 1.53125,-1.78125 z m 131.21875,3.59375 c 0.15497,-0.0159 0.31941,0 0.53125,0 0.68894,0 1.72812,1.11045 2.3125,2.46875 0.58438,1.3583 2.01679,4.5944 3.15625,7.1875 3.35472,7.63449 0.0909,5.80126 -3.5625,-2 -3.12629,-6.67571 -3.52232,-7.54517 -2.4375,-7.65625 z m -45.4375,0.75 c 0.20111,-0.0225 0.16674,0.18019 -0.0937,0.59375 -1.95553,3.10469 -19.96146,19.90638 -18.21875,17 1.82826,-3.04907 9.67104,-11.00205 15.5625,-15.75 1.45351,-1.17138 2.41482,-1.8062 2.75,-1.84375 z m -109.75,0.78125 c 0.04241,0.003 0.0925,0.0326 0.125,0.0625 0.48467,0.44503 -0.47233,3.64844 -2.21875,7.4375 -3.53499,7.6695 -3.43785,7.5191 -4.25,6.3125 -0.8493709,-1.26191 5.029085,-13.89249 6.34375,-13.8125 z m 98.90625,1.9375 -1.8125,2.28125 c -1.36996,1.72694 -2.685,2.25975 -5.53125,2.28125 -3.32177,0.0251 -3.68416,-0.17202 -3.40625,-1.96875 0.27306,-1.76548 0.96931,-2.07292 5.53125,-2.3125 l 5.21875,-0.2812 z m -34.5,0.25 c 1.55276,0.0611 3.016738,0.3728 3.59375,0.8125 1.4747,1.1238 1.90228,3.50829 0.65625,3.625 -0.40343,0.0378 -1.55832,0.20107 -2.5625,0.375 -1.03265,0.17887 -2.94964,-0.73319 -4.40625,-2.09375 l -2.5625,-2.40625 3.71875,-0.28125 c 0.513685,-0.0388 1.044913,-0.0516 1.5625,-0.0312 z m 73.78125,3.875 c 0.39859,0.002 0.85683,0.2939 1.59375,0.90625 0.90789,0.75444 1.91275,1.15597 2.21875,0.875 0.30599,-0.28098 0.48695,0.19645 0.40625,1.09375 -0.0833,0.92593 0.38989,1.5463 1.125,1.40625 0.71237,-0.1357 1.05005,0.13279 0.71875,0.625 -0.73469,1.09153 2.30967,5.60455 3.375,5 0.41812,-0.23728 1.36041,0.26349 2.09375,1.09375 0.91705,1.03824 0.96583,1.27634 0.125,0.8125 -1.72856,-0.95355 -1.52791,0.1313 0.5625,2.90625 3.19461,4.24076 3.56575,5.15847 1.3125,3.34375 -2.19836,-1.7705 -3.04648,-0.81406 -0.96875,1.09375 0.91284,0.83817 0.91284,1.09375 0,1.09375 -0.6455,0 -1.1766,-0.31706 -1.1875,-0.6875 -0.0109,-0.37044 -3.49525,-4.08941 -7.75,-8.28125 -4.25474,-4.19184 -7.5295,-7.83455 -7.28125,-8.0625 0.24825,-0.22795 3.58519,2.71325 7.40625,6.53125 3.82104,3.81801 7.18214,6.73192 7.46875,6.46875 0.2866,-0.26317 -2.70815,-3.50964 -6.625,-7.21875 -6.0048,-5.68631 -6.91162,-6.94685 -5.875,-8.09375 0.54884,-0.60722 0.88266,-0.90784 1.28125,-0.90625 z m -120.125,1.75 c 0.871334,-0.048 1.4323,0.49576 1.40625,1.6875 -0.01286,0.58826 -2.88281,3.91752 -6.40625,7.375 -3.52344,3.45748 -6.84232,7.07466 -7.375,8.0625 -0.53266,0.98786 0.43731,0.38499 2.15625,-1.34375 8.35806,-8.40572 12.93664,-12.59001 13.375,-12.1875 0.26531,0.2436 -1.92338,2.79705 -4.875,5.65625 -2.95161,2.85919 -6.63247,6.50382 -8.1875,8.09375 -2.33643,2.38885 -3.03342,2.67212 -4,1.65625 -0.93431,-0.98197 -0.28155,-2.38237 3.1875,-6.9375 2.38863,-3.13646 4.12169,-6.20102 3.875,-6.8125 -0.24668,-0.61149 -0.03697,-1.02381 0.46875,-0.90625 0.50569,0.11755 1.95013,-0.96827 3.21875,-2.40625 1.103725,-1.25106 2.284916,-1.88954 3.15625,-1.9375 z m 83.96875,1.71875 c 0.35072,-0.0541 0.59375,0.17021 0.59375,0.5625 0,0.52308 -0.43083,0.9375 -0.96875,0.9375 -0.53792,0 -0.96875,-0.18845 -0.96875,-0.40625 0,-0.21782 0.43083,-0.63222 0.96875,-0.9375 0.13448,-0.0763 0.25809,-0.1382 0.375,-0.15625 z m -23.84375,0.59375 c -2.37576,0 -3.88731,0.47592 -4.25,1.34375 -0.30961,0.74088 -0.14602,1.34375 0.375,1.34375 0.52104,0 0.9375,-0.38108 0.9375,-0.875 0,-0.49392 1.29299,-0.90625 2.875,-0.90625 1.58201,0 3.16754,0.41233 3.5,0.90625 0.33244,0.49392 1.05296,0.875 1.625,0.875 0.65586,0 0.61153,-0.4943 -0.15625,-1.34375 -0.68832,-0.76155 -2.8214,-1.34375 -4.90625,-1.34375 z m 10.875,0 c 1.07585,0 1.6762,0.41233 1.34375,0.90625 -0.33245,0.49392 -1.48665,0.90625 -2.5625,0.90625 -1.07583,0 -1.6762,-0.41233 -1.34375,-0.90625 0.33245,-0.49392 1.48667,-0.90625 2.5625,-0.90625 z m -20.40625,0.0938 c 0.347107,0.004 0.781858,0.085 1.25,0.25 0.86421,0.3045 1.27229,0.97134 0.9375,1.46875 -0.79278,1.17783 -2.15661,1.1441 -2.96875,-0.0625 -0.67509,-1.00298 -0.260071,-1.66742 0.78125,-1.65625 z m 94.125,3.5 c 0.80688,0 1.46875,0.60287 1.46875,1.34375 0,1.40237 -1.1559,1.78332 -2.28125,0.75 -1.12537,-1.03331 -0.71477,-2.09375 0.8125,-2.09375 z m -103.21875,0.90625 c 0.56967,0 1.03125,0.41233 1.03125,0.90625 0,0.49394 -0.20029,0.875 -0.4375,0.875 -0.2372,0 -0.6988,-0.38106 -1.03125,-0.875 -0.33245,-0.49392 -0.13217,-0.90625 0.4375,-0.90625 z M 4.5625,196.81697 c 0.2205284,-0.0237 0.438739,0.0477 0.625,0.21875 0.32724,0.30049 0.16903,1.22114 -0.34375,2.0625 -0.68429,1.12274 -1.11699,1.23868 -1.65625,0.4375 -0.6399819,-0.95081 0.4193768,-2.61606 1.375,-2.71875 z m 171.5625,2.15625 c 0.0681,-0.0179 0.1329,-0.009 0.1875,0 0.36401,0.0575 0.4375,0.73562 0.4375,2.21875 0,3.22346 -0.47075,3.503 -1.875,1.09375 -0.73646,-1.26355 -0.63648,-1.99407 0.4375,-2.8125 0.34429,-0.26236 0.60813,-0.44621 0.8125,-0.5 z M 3.25,201.62947 c 0.1244258,-0.008 0.264555,0.0599 0.4375,0.21875 0.66738,0.61278 0.68882,1.68621 0.0625,3.125 -0.88875,2.04165 -0.9417,1.97369 -1,-0.9375 -0.031912,-1.59498 0.1267227,-2.3829 0.5,-2.40625 z m 169.46875,0.625 c 0.42571,-0.0567 0.79661,0.39263 1.53125,1.28125 0.81667,0.98786 1.4829,2.22949 1.5,2.75 0.0171,0.52051 -1.49228,2.32444 -3.375,4 l -3.4375,3.03125 0.0312,-3.53125 c 0.0129,-2.09836 0.78987,-4.45189 1.90625,-5.78125 0.93281,-1.11078 1.41804,-1.69328 1.84375,-1.75 z m -70.875,0.25 c 0.35072,-0.0541 0.59375,0.13894 0.59375,0.53125 0,0.52308 -0.43083,0.96875 -0.96875,0.96875 -0.53792,0 -1,-0.18845 -1,-0.40625 0,-0.21782 0.46208,-0.66349 1,-0.96875 0.13448,-0.0763 0.25809,-0.10695 0.375,-0.125 z m -95.53125,1.40625 1.65625,2.34375 c 0.98691,1.38302 1.55363,3.59219 1.375,5.46875 l -0.3125,3.15625 -3.0625,-2.96875 C 2.94298,208.96545 2.94347,208.91768 4.625,206.44197 l 1.6875,-2.53125 z m 83.90625,3.6875 c 2.2754,0 2.50072,0.202 1.46875,1.34375 -0.66965,0.7409 -1.33153,1.34375 -1.46875,1.34375 -0.13724,0 -0.79911,-0.60285 -1.46875,-1.34375 -1.03198,-1.14175 -0.80668,-1.34375 1.46875,-1.34375 z M 167.5,207.94197 c 0.35585,0.0192 0.46875,0.56351 0.46875,1.78125 0,2.52403 -1.39973,3.17184 -2.28125,1.0625 -0.29454,-0.70476 0.1001,-1.75324 0.875,-2.34375 0.43711,-0.33309 0.72399,-0.51153 0.9375,-0.5 z m -66.75,0.34375 c 0.30219,-0.1373 1.3902,2.61441 2.53125,6.4375 1.21712,4.07796 2.0348,7.57713 1.8125,7.78125 -0.61735,0.56687 -4.83392,-12.97817 -4.40625,-14.15625 0.0129,-0.0355 0.0423,-0.0533 0.0625,-0.0625 z m -21.25,0.46875 c 0.03844,-0.01 0.06242,0.002 0.09375,0.0312 0.25061,0.23012 -0.15086,2.34001 -0.90625,4.71875 -1.23573,3.89136 -1.42415,4.10304 -1.875,1.9375 -0.27559,-1.32377 -0.16643,-2.23634 0.25,-2 0.41645,0.23631 1.07359,-0.79109 1.4375,-2.3125 0.318421,-1.33123 0.730883,-2.30614 1,-2.375 z m 2.15625,0.65625 c 0.446956,0.0665 1.780378,0.98091 3.1875,2.21875 4.63705,4.07925 4.06747,6.70426 -4.96875,22.53125 -4.34572,7.61156 -8.08591,13.84375 -8.3125,13.84375 -1.01637,0 -0.26837,-8.22394 1.0625,-11.6875 0.81047,-2.10924 1.64722,-4.78415 1.875,-5.9375 0.50305,-2.54734 6.49679,-20.39923 7.03125,-20.9375 0.02618,-0.0264 0.06115,-0.0408 0.125,-0.0312 z m -69.1875,0.875 c 0.53791,0 0.96875,0.56951 0.96875,1.28125 0,0.71174 -0.43084,1.53847 -0.96875,1.84375 -0.53793,0.30526 -1,-0.26425 -1,-1.28125 0,-1.017 0.46207,-1.84375 1,-1.84375 z m 86.375,0.0937 c 0.0721,-0.004 0.12135,-8e-4 0.15625,0.0312 0.27921,0.25638 2.95599,7.65326 5.9375,16.4375 3.75034,11.04934 5.32886,17.12561 5.125,19.6875 l -0.28125,3.71875 -4.125,-7.34375 c -2.27033,-4.035 -6.12603,-10.84802 -8.5625,-15.125 -5.25762,-9.22921 -5.49953,-11.73159 -1.5,-15.25 1.40712,-1.23784 2.7454,-2.12726 3.25,-2.15625 z m 4.9375,0.0625 c 0.0667,-0.0225 0.1375,0.0191 0.21875,0.0937 0.32499,0.29841 0.37628,1.07047 0.0937,1.71875 -0.31221,0.71641 -0.54685,0.48369 -0.59375,-0.5625 -0.0319,-0.71001 0.0811,-1.18234 0.28125,-1.25 z m 1.75,13.65625 c 0.16499,-0.0485 0.51972,0.45646 0.90625,1.34375 0.51534,1.18303 0.74532,2.3347 0.53125,2.53125 -0.49037,0.45029 -1.61405,-2.2235 -1.53125,-3.625 0.009,-0.14425 0.0387,-0.23383 0.0937,-0.25 z m 2.15625,5.21875 c 0.0667,-0.0225 0.1375,-0.0121 0.21875,0.0625 0.32499,0.29841 0.37628,1.07047 0.0937,1.71875 -0.31221,0.71641 -0.54685,0.51494 -0.59375,-0.53125 -0.0319,-0.71001 0.0811,-1.18234 0.28125,-1.25 z"
     id="path2626"
     inkscape:connector-curvature="0" />
  <path
     style="fill:#000000"
     d="m 37.880902,150.61361 c -3.870468,4.80524 -6.620111,10.51228 -9.997491,15.70654 -6.933421,11.82844 -14.662864,23.23287 -20.9172312,35.42888 -0.6770487,2.1127 1.3581077,4.56215 3.3276262,5.09878 2.403307,-1.29829 3.476143,-4.32426 5.329718,-6.30422 10.054238,-13.85088 20.277421,-27.60675 29.851881,-41.78534 0.250783,-2.68083 -2.808864,-4.27283 -4.30713,-6.13196 -1.028615,-0.68478 -1.856782,-2.34401 -3.287373,-2.01268 z"
     id="path3016"
     inkscape:connector-curvature="0" />
  <path
     style="fill:#000000"
     d="m 48.964045,133.50586 c -2.428703,1.44206 -3.42821,4.60439 -5.199448,6.74635 -1.796101,3.06381 -4.182593,5.97507 -5.22622,9.34165 2.267922,2.59328 4.410806,5.45465 7.11146,7.5945 2.308872,-0.15422 3.105491,-3.11237 4.401054,-4.68283 1.869296,-3.49129 0.884353,-7.7244 1.194188,-11.52593 -0.35967,-2.33109 0.614208,-5.31961 -1.033174,-7.21881 -0.354665,-0.24619 -0.823451,-0.36216 -1.24786,-0.25493 z"
     id="path3018"
     inkscape:connector-curvature="0" />
  <path
     style="fill:#000000"
     d="m 53.016235,94.728274 c -2.227539,1.218365 -2.411587,4.42278 -3.757858,6.430376 -14.183369,31.2765 -28.392843,62.55466 -42.0238402,94.06931 -0.2808871,2.47396 2.9186552,1.42767 3.4349692,-0.1476 13.13466,-21.39216 26.386308,-42.75339 39.180117,-64.352 2.248638,-6.01425 2.018603,-12.66039 3.030841,-18.95918 0.493824,-5.34904 1.457256,-10.9411 1.51781,-16.182164 -0.117523,-0.666125 -0.756101,-1.030334 -1.382039,-0.858742 z"
     id="path3020"
     inkscape:connector-curvature="0" />
  <path
     style="fill:#000000"
     d="m 61.536569,82.316764 c -3.388239,2.189031 -5.819751,5.874674 -6.145374,9.929208 -0.716725,4.872497 -1.919942,9.932298 -1.153935,14.840138 1.204375,2.73751 3.755089,-0.48607 5.353721,-0.8319 1.332084,1.01677 3.716885,1.92074 4.42789,-0.26836 1.885642,-4.13778 3.473792,-8.552773 4.67515,-12.906582 -1.793717,-3.603842 -3.916605,-7.474422 -6.23162,-10.708832 -0.201533,0.162145 -0.637997,-0.416332 -0.925832,-0.05367 z"
     id="path3022"
     inkscape:connector-curvature="0" />
  <path
     style="fill:#000000"
     d="m 83.04538,59.962629 c -5.947431,5.179093 -11.269177,11.24132 -16.754169,16.940921 -1.594664,1.805462 -4.685371,4.271151 -2.809054,6.929431 2.065024,3.217119 3.589053,7.125473 6.655253,9.499837 2.469075,0.387454 3.017458,-3.083666 4.376248,-4.469842 4.601964,-7.537943 9.442272,-15.074186 13.5595,-22.846005 -0.438974,-1.663525 -3.771561,-1.878646 -3.323711,-4.283186 -0.02975,-0.907056 -0.594881,-2.067498 -1.704067,-1.771156 z"
     id="path3024"
     inkscape:connector-curvature="0" />
  <path
     style="fill:#000000"
     d="m 73.827318,49.22835 c -2.925157,2.443443 -3.607402,6.706573 -5.393975,9.956044 -2.947066,7.022931 -6.071339,13.988264 -8.828944,21.079439 -0.0053,2.222946 2.713836,1.294719 3.366798,-0.05812 6.811308,-6.851821 13.770902,-13.64052 20.047347,-20.981065 1.252248,-2.578401 -2.362602,-4.212729 -3.595983,-5.930689 -1.754684,-1.287934 -3.28729,-3.929737 -5.595243,-4.065608 z"
     id="path3026"
     inkscape:connector-curvature="0" />
  <path
     style="fill:#000000"
     d="m 81.207135,31.597297 c -2.546634,1.497168 -2.867329,5.069831 -4.266876,7.473742 -1.076728,2.800838 -2.478826,5.524679 -3.139777,8.453244 1.687845,2.871282 4.817195,4.767976 7.178549,7.11146 0.724737,1.143625 2.992585,1.865576 3.072688,-0.02684 0.823922,-4.431676 -0.206619,-9.359729 1.851663,-13.484937 1.429522,-1.127026 2.684193,-3.184982 0.898996,-4.642576 -1.700726,-1.622492 -3.159509,-4.442161 -5.595243,-4.884097 z"
     id="path3028"
     inkscape:connector-curvature="0" />
  <path
     style="fill:#000000"
     d="m 86.775542,17.132857 c -2.429982,2.383 -3.019505,6.264272 -4.553462,9.283968 -1.853886,2.491151 -1.047977,4.904367 1.50761,6.428332 0.988889,1.08897 3.335246,3.518051 4.401054,1.234442 0.614018,-5.26507 0.680657,-10.698063 0.174433,-15.980657 -0.168614,-0.724143 -0.809949,-1.160339 -1.529635,-0.966085 z"
     id="path3030"
     inkscape:connector-curvature="0" />
  <path
     style="fill:#000000"
     d="m 90.009243,17.978181 c -1.430546,2.007552 -0.47611,4.996567 -0.939203,7.365282 0.125071,3.587096 -0.861631,7.473804 0.254893,10.909828 2.044958,0.959435 3.298579,-1.999786 4.749918,-2.978763 1.446492,-1.316935 3.17768,-3.089799 1.636978,-5.1122 -1.437314,-3.367728 -2.078418,-7.246518 -4.387637,-10.130475 -0.412367,-0.253536 -0.880328,-0.30475 -1.314949,-0.05367 z"
     id="path3032"
     inkscape:connector-curvature="0" />
  <path
     style="fill:#000000"
     d="m 95.57765,31.597297 c -2.470301,1.095399 -5.026323,3.668239 -4.951186,6.54791 1.081011,2.472403 2.056205,5.013451 1.838246,7.79577 0.35539,3.59824 -0.26425,7.563032 0.764817,10.962382 2.156467,0.836965 3.530952,-2.217308 5.179289,-3.166612 1.609414,-1.913907 4.508704,-3.250374 5.139034,-5.648914 -2.32401,-5.318057 -3.729816,-11.132117 -6.762593,-16.088 -0.310243,-0.304607 -0.770793,-0.499772 -1.207607,-0.402536 z"
     id="path3034"
     inkscape:connector-curvature="0" />
  <path
     style="fill:#000000"
     d="m 102.93063,50.167599 c -3.488382,2.09932 -6.661941,4.9875 -9.164389,8.104381 3.890852,5.542965 9.295989,9.975253 13.941149,14.920647 3.50678,3.359787 6.80486,6.965264 10.6001,9.996297 2.16362,0.396779 1.30537,-2.305438 0.56355,-3.327626 -4.79717,-9.895747 -9.61925,-19.928937 -14.86196,-29.55193 -0.23161,-0.495689 -0.71539,-0.107071 -1.07845,-0.141769 z"
     id="path3036"
     inkscape:connector-curvature="0" />
  <path
     style="fill:#000000"
     d="m 93.45763,61.170235 c -0.981457,1.901338 -4.338325,3.369354 -3.439316,5.693346 5.388836,8.554383 10.267746,17.378352 16.052096,25.63733 0.7939,1.591705 2.80161,1.361622 3.43497,-0.228103 2.30189,-3.588347 4.83189,-7.23203 6.26613,-11.203904 -6.79791,-6.811331 -13.66768,-13.626882 -20.891588,-19.992594 -0.5425,-0.258465 -0.93737,-0.298957 -1.422292,0.09392 z"
     id="path3038"
     inkscape:connector-curvature="0" />
  <path
     style="fill:#000000"
     d="m 116.17405,82.799807 c -2.67248,1.224601 -3.50138,4.644277 -5.16306,6.904101 -1.36882,2.091468 -2.98961,4.428224 -1.10313,6.781974 1.70578,3.612988 2.88728,7.722258 5.48795,10.788078 1.73799,0.75806 3.42831,-2.1385 4.93777,-0.21468 1.74488,1.05056 1.08327,3.38233 2.28103,4.70966 1.79106,1.37718 3.02191,-1.26313 2.44412,-2.77579 -0.83387,-6.891 -1.1672,-13.935034 -2.96741,-20.651772 -0.93118,-2.534034 -3.14809,-5.156848 -5.91727,-5.541571 z"
     id="path3040"
     inkscape:connector-curvature="0" />
  <path
     style="fill:#000000"
     d="m 124.50653,95.144227 c -1.85945,1.093078 -0.27322,3.928661 -0.42531,5.666793 1.26558,8.7876 1.57473,17.76692 3.59192,26.41528 2.77668,6.33062 7.10327,11.87334 10.50744,17.88758 9.52392,15.13798 18.5717,30.62955 28.55192,45.44467 0.47718,1.43666 3.04465,2.1254 3.04585,0.0939 -7.49252,-17.63059 -15.74147,-34.98761 -23.61395,-52.47238 -6.50917,-13.87356 -12.46716,-28.03821 -19.56468,-41.613571 -0.48646,-0.704659 -1.07253,-1.758082 -2.09319,-1.422292 z"
     id="path3042"
     inkscape:connector-curvature="0" />
  <path
     style="fill:#000000"
     d="m 139.99073,150.53311 c -2.85159,1.63757 -5.40999,4.06739 -7.37982,6.70892 0.32697,2.4943 2.89599,4.23851 4.06411,6.42482 9.62956,12.72555 19.10233,25.70503 29.22943,37.97434 1.08713,1.46446 3.28766,2.87517 4.78632,1.03367 1.54944,-1.29414 3.56765,-4.2049 1.08684,-5.63549 -4.63555,-5.28558 -7.84796,-11.72886 -11.78837,-17.55325 -6.08362,-9.32593 -11.49813,-19.13859 -18.12001,-28.08085 -0.47104,-0.5144 -1.14215,-0.99909 -1.8785,-0.87216 z"
     id="path3044"
     inkscape:connector-curvature="0" />
  <path
     style="fill:#000000"
     d="m 128.22328,131.86888 c -1.56695,1.99849 -0.43964,5.02707 -0.75544,7.39313 0.44015,5.80049 -0.75329,12.56961 3.5084,17.30944 2.10038,1.68973 3.81311,-2.23209 5.61113,-3.18103 1.35415,-1.57478 4.78835,-3.0766 3.29602,-5.62139 -3.1503,-5.39191 -6.2243,-11.00815 -10.25124,-15.77939 -0.39008,-0.35344 -0.95929,-0.37719 -1.40887,-0.12076 z"
     id="path3046"
     inkscape:connector-curvature="0" />
  <path
     style="fill:#333333"
     d="m 29.528436,189.19666 c -2.729311,0.58249 -3.884889,3.79467 -6.579825,4.43082 -0.239096,0.75609 -0.189485,1.66375 -0.666307,2.38162 -1.832282,3.70452 -4.83896,6.68026 -6.719985,10.34634 -0.559484,0.91193 0.250255,2.14249 1.219189,2.22964 1.678487,-0.82551 2.808851,-2.44213 4.212606,-3.64333 3.783305,-3.7484 7.643634,-7.43348 11.209896,-11.39017 0.183875,-0.16652 0.653092,-1.02909 0.04744,-0.5835 -5.294912,4.08179 -9.686652,9.18299 -14.672963,13.61032 -0.354846,0.48953 -0.732501,0.0171 -0.436441,-0.36054 1.94534,-2.765 4.494677,-5.04825 6.779017,-7.52863 2.315568,-2.47217 4.871602,-4.77596 6.807586,-7.56654 0.409558,-0.82094 -0.194145,-2.07315 -1.200213,-1.92603 z"
     id="path3062"
     inkscape:connector-curvature="0" />
  <path
     style="fill:#333333"
     d="m 48.527859,161.89537 c -4.822334,5.97992 -9.021666,12.46615 -14.136899,18.21193 -0.544215,0.65426 -1.252088,1.11695 -2.101559,1.17649 -0.688711,0.37479 -1.457188,1.00277 -1.774228,1.66986 0.781345,-0.33844 1.509811,-1.31859 2.414658,-1.13854 0.04303,1.18411 -1.028454,2.11883 -1.404202,3.21164 -0.612212,1.15624 0.443216,2.50927 1.503824,2.91751 1.54044,-0.11045 2.445843,-1.6655 3.567195,-2.54891 5.04874,-4.99638 10.112025,-9.99773 14.796497,-15.34037 1.074525,-1.19433 1.925208,-3.00986 0.891903,-4.50679 -0.9351,-1.43357 -2.071336,-2.93439 -3.657567,-3.65757 -0.03321,0.002 -0.06692,-0.004 -0.09962,0.005 z"
     id="path3064"
     inkscape:connector-curvature="0" />
  <path
     style="fill:#333333"
     d="m 53.058308,171.30731 c -3.402118,2.46041 -6.118722,5.73461 -9.086372,8.6831 -2.77419,2.99713 -5.77937,5.80266 -8.300116,9.02124 -0.116846,0.27487 -0.736389,0.81316 -0.469649,1.02943 2.119043,-1.29423 3.626483,-3.38169 5.429473,-5.06304 4.059133,-4.30484 8.42169,-8.35139 12.079791,-13.01529 0.03682,-0.13654 0.548316,-0.58702 0.346873,-0.65544 z"
     id="path3066"
     inkscape:connector-curvature="0" />
  <path
     style="fill:#333333"
     d="m 130.83972,161.85741 c -1.91513,1.01412 -3.19456,2.90435 -4.48301,4.59212 -0.79523,0.90607 0.49995,1.71264 0.96458,2.39499 5.9199,6.41927 12.11277,12.58533 18.36691,18.67753 0.46309,0.42295 0.84743,-0.59418 1.13855,-0.84916 0.69395,-1.15828 1.6427,-2.3319 1.80743,-3.69077 -0.33553,-0.15157 -0.84087,-0.10296 -1.14329,-0.46017 -2.1396,-1.70972 -3.49991,-4.16936 -5.21831,-6.26672 -3.72415,-4.84692 -7.43955,-9.72446 -11.36171,-14.40256 -0.0238,8.4e-4 -0.0479,-0.003 -0.0711,0.005 z"
     id="path3068"
     inkscape:connector-curvature="0" />
  <path
     style="fill:#333333"
     d="m 126.77891,171.28359 c -0.13306,0.32485 0.62137,0.78073 0.80421,1.10497 5.01533,5.25005 10.15791,10.39368 15.58131,15.22363 0.28133,0.17657 0.66765,0.67834 0.94879,0.65466 -4.91489,-5.04977 -9.88024,-10.05888 -14.83457,-15.0723 -0.78517,-0.65976 -1.5085,-1.58856 -2.49974,-1.91096 z"
     id="path3070"
     inkscape:connector-curvature="0" />
  <path
     style="fill:#333333"
     d="m 149.62566,187.53628 c -1.03723,0.29796 -1.864,1.66329 -1.06264,2.61865 2.44031,2.98461 5.34841,5.56713 8.02798,8.33866 1.47878,1.6125 3.25757,3.03705 4.38213,4.92536 -0.154,0.52214 -0.85688,-0.20476 -1.11956,-0.36054 -4.65082,-3.76842 -8.56892,-8.36557 -13.25928,-12.08278 -0.47943,-0.20459 0.41509,0.82047 0.32733,0.7021 4.47291,5.15476 9.61858,9.69035 14.04677,14.8817 0.2169,0.65284 1.05215,1.20958 1.69358,0.89185 -0.11236,-1.06086 -1.76309,-1.61635 -1.53229,-2.78942 0.54909,-0.65156 1.43858,0.27076 1.97347,0.5408 0.41001,0.24036 0.86346,0.70786 1.31407,0.75429 -1.19977,-2.32258 -3.12918,-4.23833 -4.20786,-6.62252 -0.21559,-0.79109 0.69516,-0.59794 1.08636,-0.32259 0.60388,0.31917 0.38617,-0.20697 0.0492,-0.41095 -0.69318,-0.63667 -1.42559,-1.5086 -2.4781,-1.22096 -1.17096,-0.43254 -1.90968,-1.64655 -2.55698,-2.67083 -0.56766,-0.84132 -0.73568,-1.82114 -0.59773,-2.8084 -0.37338,-0.45473 -1.46161,0.0476 -1.66038,-0.76852 -0.40424,-0.56118 -0.0143,-1.42344 -0.37951,-1.92129 -1.59743,0.35602 -2.59119,-1.55099 -4.04657,-1.67461 z"
     id="path3072"
     inkscape:connector-curvature="0" />
  <path
     style="fill:#000000"
     d="m 166.77477,179.87225 c -0.96894,0.3739 0.097,1.69951 0.19378,2.3529 1.79456,3.93649 3.38977,8.09754 6.19311,11.44736 0.28492,0.50193 1.03209,0.45896 0.79836,-0.22811 -1.19689,-4.20301 -3.13112,-8.18334 -5.13903,-12.05593 -0.3996,-0.74878 -1.13472,-1.54157 -2.04622,-1.51622 z"
     id="path3076"
     inkscape:connector-curvature="0" />
  <path
     style="fill:#000000"
     d="m 159.85786,164.66312 c -0.89939,0.45453 0.006,1.79477 0.16102,2.50243 1.58638,3.56853 3.17015,7.19042 5.32018,10.45921 0.32556,0.277 1.12661,1.73803 1.43571,0.79836 0.16034,-2.42854 -1.35239,-4.61011 -2.22568,-6.79544 -1.253,-2.35498 -2.15621,-5.09466 -4.20818,-6.88405 -0.14854,-0.0728 -0.31865,-0.10556 -0.48305,-0.0805 z"
     id="path3078"
     inkscape:connector-curvature="0" />
  <path
     style="fill:#000000"
     d="m 146.45343,133.29219 c -1.39022,0.23809 -0.46996,2.10384 -0.29807,2.94881 1.40675,4.52393 3.56902,8.76947 6.04091,12.79033 1.38314,4.5846 3.49424,8.98655 6.1588,12.96835 0.22312,0.60935 1.15691,1.03292 0.94595,0.0268 -0.84043,-4.24301 -2.78065,-8.2216 -4.88409,-11.97543 -0.56823,-1.20673 -2.11923,-1.78945 -1.9523,-3.31421 -1.25395,-4.50404 -3.11295,-8.86144 -5.35372,-12.96164 -0.16854,-0.20423 -0.3215,-0.59244 -0.65748,-0.48304 z"
     id="path3080"
     inkscape:connector-curvature="0" />
  <path
     style="fill:#000000"
     d="m 138.97298,118.17698 c -1.10754,0.28245 -0.008,1.62252 0.0615,2.30108 1.54523,3.74427 2.79637,7.75131 5.35258,10.95576 0.40548,0.78223 1.45534,0.53857 1.12039,-0.38241 -1.42175,-3.9994 -2.93311,-8.00334 -4.84385,-11.79429 -0.38992,-0.53231 -0.9749,-1.1279 -1.69065,-1.08014 z"
     id="path3082"
     inkscape:connector-curvature="0" />
  <path
     style="fill:#000000"
     d="m 131.34494,102.59215 c -0.55611,0.61656 0.34052,1.67664 0.46647,2.39185 1.6122,3.70937 2.8975,7.61062 4.98117,11.08638 0.45496,0.85429 2.46261,0.99145 2.07306,-0.32873 -1.75006,-4.40868 -3.72601,-8.8207 -6.5412,-12.65974 -0.26327,-0.25344 -0.58244,-0.54955 -0.9795,-0.48976 z"
     id="path3084"
     inkscape:connector-curvature="0" />
  <path
     style="fill:#000000"
     d="m 125.60881,89.201141 c -0.99567,0.608617 0.083,2.009735 0.23912,2.836578 1.39035,3.197507 2.73503,6.542486 4.96029,9.252901 0.82436,0.30954 1.16053,-1.0401 0.76482,-1.610139 -1.25286,-3.570523 -2.84577,-7.123416 -5.16587,-10.130476 -0.21152,-0.196607 -0.49196,-0.40289 -0.79836,-0.348864 z"
     id="path3086"
     inkscape:connector-curvature="0" />
  <path
     style="fill:#000000"
     d="m 107.30015,52.315476 c -0.95214,0.395506 0.18024,1.686762 0.24152,2.354832 4.28013,9.956891 9.25276,19.611901 14.50387,29.088444 0.96509,1.387474 1.54941,3.250121 2.99972,4.194529 1.124,0.08327 0.35163,-1.390203 0.16772,-1.952297 -3.65153,-8.802287 -7.56126,-17.502574 -11.62696,-26.121338 -1.45816,-2.807793 -3.02954,-5.938541 -5.89675,-7.523917 -0.12478,-0.03601 -0.25949,-0.05889 -0.38912,-0.04025 z"
     id="path3088"
     inkscape:connector-curvature="0" />
  <path
     style="fill:#000000"
     d="m 69.951572,52.402692 c -2.344969,0.941189 -3.64256,3.454248 -4.653458,5.638461 -3.333774,7.602395 -6.978248,15.093419 -9.735903,22.931221 -0.371964,1.588791 -1.269113,3.346385 -0.692301,4.96823 0.657699,0.965859 0.885685,-1.093918 1.302059,-1.410768 5.06052,-10.134011 9.654243,-20.514709 13.632007,-31.120806 -0.0316,-0.191921 0.465381,-0.948453 0.147596,-1.006338 z"
     id="path3090"
     inkscape:connector-curvature="0" />
  <path
     style="fill:#000000"
     d="m 52.293684,89.576841 c -1.817381,1.368084 -2.574653,3.753037 -3.579601,5.732325 -0.562255,1.683653 -1.725659,3.512456 -1.250825,5.317274 0.497336,0.47486 1.020903,-0.757084 1.301531,-1.080138 1.565004,-2.851866 3.163406,-5.775959 4.005228,-8.929578 -0.01866,-0.304758 0.0012,-1.08231 -0.476333,-1.039883 z"
     id="path3092"
     inkscape:connector-curvature="0" />
  <path
     style="fill:#000000"
     d="m 46.631352,102.50494 c -2.539633,2.9754 -4.084919,6.69595 -5.709295,10.23111 -0.382294,1.22078 -1.329383,2.785 -0.597094,3.99852 1.468297,-0.71109 2.017044,-2.58082 2.831166,-3.91802 1.460832,-3.24324 3.123882,-6.52594 3.649655,-10.07009 -0.01232,-0.081 -0.03734,-0.31567 -0.174432,-0.24152 z"
     id="path3094"
     inkscape:connector-curvature="0" />
  <path
     style="fill:#000000"
     d="m 39.680906,117.87508 c -1.956286,1.55891 -2.783208,4.14634 -3.871049,6.33323 -0.981505,2.56684 -2.293374,5.14729 -2.529265,7.90311 0.771695,0.99214 1.772153,-0.25934 1.992551,-1.07343 1.74154,-4.02291 3.753424,-8.00641 4.776754,-12.28404 0.01207,-0.25958 0.07158,-0.94728 -0.368991,-0.87887 z"
     id="path3096"
     inkscape:connector-curvature="0" />
  <path
     style="fill:#000000"
     d="m 32.388306,134.1979 c -1.520393,1.137 -2.144247,3.17078 -3.129736,4.75524 -1.362813,2.86911 -3.022645,5.70088 -3.713367,8.81691 0.825346,0.97607 1.879511,-0.54445 2.310223,-1.23589 2.07257,-3.50414 3.749764,-7.27156 5.022631,-11.13537 0.13485,-0.41524 0.182215,-1.30529 -0.489751,-1.20089 z"
     id="path3098"
     inkscape:connector-curvature="0" />
  <path
     style="fill:#000000"
     d="m 25.323808,149.44057 c -1.297979,1.20146 -1.772199,3.11994 -2.650025,4.64258 -1.34419,3.12993 -3.034781,6.25913 -3.468513,9.66756 0.490684,0.93552 1.246153,-0.43022 1.509507,-0.88558 2.14312,-3.82417 4.18303,-7.82637 5.139036,-12.12974 0.05154,-0.40582 0.161443,-1.38411 -0.530005,-1.29482 z"
     id="path3102"
     inkscape:connector-curvature="0" />
  <path
     style="fill:#000000"
     d="m 18.541086,165.55541 c -1.820504,2.11491 -2.786278,4.86883 -4.146976,7.29738 -0.943977,2.13379 -2.280107,4.20218 -2.743089,6.48946 1.276354,0.4104 1.89251,-1.42301 2.49572,-2.24078 1.773237,-3.4883 3.791118,-6.95401 4.763336,-10.76783 0.03819,-0.25435 0.03189,-0.84345 -0.368991,-0.77823 z"
     id="path3104"
     inkscape:connector-curvature="0" />
  <path
     style="fill:#000000"
     d="m 11.389373,181.53606 c -2.0104634,2.20803 -3.0954986,5.13325 -4.3909254,7.8005 -0.6595012,1.88191 -1.9346761,3.83766 -1.5464726,5.89242 0.5406393,0.86462 0.9382659,-0.95264 1.2679866,-1.25457 1.9218983,-3.91142 4.1769974,-7.8284 4.9042234,-12.16999 0.0076,-0.13333 -0.05384,-0.37172 -0.234812,-0.26836 z"
     id="path3106"
     inkscape:connector-curvature="0" />
  <path
     style="fill:#000000"
     d="m 4.472472,197.05381 c -1.0823758,0.18869 -1.9605549,2.40725 -0.6038032,2.74395 0.8090804,-0.42115 1.4896075,-1.65985 1.2344421,-2.56281 -0.1469349,-0.1827 -0.4167879,-0.19296 -0.6306389,-0.18114 z"
     id="path3108"
     inkscape:connector-curvature="0" />
  <path
     style="fill:#000000"
     d="m 3.2648657,201.89094 c -0.5898421,1.11372 -0.3023445,2.61805 -0.2549392,3.86434 0.3640197,0.30127 0.5295528,-0.88522 0.711146,-1.14723 0.2498336,-0.79363 0.6118392,-2.38777 -0.4562068,-2.71711 z"
     id="path3110"
     inkscape:connector-curvature="0" />
  <path
     style="fill:#000000"
     d="m 5.0695663,206.01693 c -0.5411241,1.11514 -2.131059,2.42995 -0.9862119,3.67649 1.4120231,1.63162 2.9461855,3.35464 4.783463,4.46143 0.4438888,-1.46665 0.2570838,-3.23943 0.1408874,-4.80359 -0.2734019,-2.01382 -1.6162284,-3.62437 -2.6969876,-5.2665 -0.4137169,0.64406 -0.827434,1.28811 -1.2411509,1.93217 z"
     id="path3112"
     inkscape:connector-curvature="0" />
  <path
     style="fill:#000000"
     d="m 7.5317414,196.66469 c -0.4796758,1.19802 -1.2241113,2.55295 -1.3350759,3.79054 0.7560292,-1.08956 1.7261096,-2.25592 2.0797665,-3.52889 -0.1751475,-0.18222 -0.5009603,-0.2645 -0.7446906,-0.26165 z"
     id="path3114"
     inkscape:connector-curvature="0" />
  <path
     style="fill:#000000"
     d="m 172.79267,202.42095 c -3.09725,1.99135 -3.8953,6.05445 -3.70333,9.50654 -0.37393,2.05267 1.30764,-0.25811 2.07866,-0.73476 1.49639,-1.49602 3.31754,-2.86605 4.30153,-4.75314 -0.0788,-1.63744 -1.40238,-3.02847 -2.60306,-4.01864 l -0.0335,-0.007 -0.0403,0.007 z"
     id="path3116"
     inkscape:connector-curvature="0" />
  <path
     style="fill:#000000"
     d="m 168.98871,191.89464 c -0.32281,0.84887 0.78783,1.75368 1.12813,2.5048 0.12854,0.11238 0.97078,1.58016 0.81075,0.78258 -0.49872,-1.09249 -0.77942,-2.56922 -1.75774,-3.28738 -0.0594,-0.009 -0.12196,-0.0119 -0.18114,0 z"
     id="path3118"
     inkscape:connector-curvature="0" />
  <path
     style="fill:#000000"
     d="m 173.98686,195.12834 c -0.83641,0.0151 -1.42279,1.10711 -0.53001,1.59002 0.51843,0.97803 2.36495,1.05216 2.14686,-0.36899 -0.1258,-0.72922 -0.89021,-1.2776 -1.61685,-1.22103 z"
     id="path3120"
     inkscape:connector-curvature="0" />
  <path
     style="fill:#000000"
     d="m 176.07333,199.26104 c -1.16879,0.38758 -2.00647,1.73962 -1.11368,2.84459 0.35188,0.4604 0.69915,1.68275 1.38875,1.49609 0.37622,-1.33609 0.37387,-2.89546 0.0537,-4.24004 -0.0792,-0.10376 -0.20826,-0.12527 -0.32874,-0.10064 z"
     id="path3122"
     inkscape:connector-curvature="0" />
  <path
     style="fill:#000000"
     d="m 167.4792,208.0967 c -1.19783,0.5214 -2.3999,2.11484 -1.24786,3.29408 0.62354,1.04624 1.59742,-0.0818 1.50951,-0.91242 -0.0281,-0.64494 0.30583,-1.97068 -0.26165,-2.38166 z"
     id="path3124"
     inkscape:connector-curvature="0" />
  <path
     style="fill:#1a1a1a"
     d="m 81.282945,210.30393 c -3.459994,9.12396 -6.19378,18.5057 -9.000969,27.84253 -0.674198,3.20089 -1.478162,6.5544 -0.814187,9.82137 4.807513,-7.70629 9.428935,-15.54908 13.545318,-23.64896 1.266531,-2.92774 3.207967,-6.14211 2.24078,-9.43274 -1.266515,-2.3021 -3.432726,-3.99533 -5.60866,-5.40069 -0.120761,0.27283 -0.241521,0.54566 -0.362282,0.81849 z"
     id="path3126"
     inkscape:connector-curvature="0" />
  <path
     style="fill:#1a1a1a"
     d="m 98.632223,210.579 c -2.154945,1.20425 -4.274058,2.92305 -5.353722,5.19941 -0.939257,3.15802 1.067186,6.20856 2.368396,8.95813 4.522283,8.31209 9.137003,16.59032 14.014793,24.69384 0.94453,-4.74599 -0.89604,-9.50569 -2.14131,-14.04619 -2.5406,-8.14836 -5.26512,-16.25076 -8.351443,-24.2081 -0.145758,-0.1856 -0.225625,-0.64112 -0.536714,-0.59709 z"
     id="path3128"
     inkscape:connector-curvature="0" />
  <path
     style="fill:#1a1a1a"
     d="m 100.85959,208.74746 c 0.54988,4.10177 2.0688,8.02992 3.38196,11.94231 0.12415,0.20541 0.5248,1.83777 0.61655,0.88515 -0.81904,-4.20887 -2.11932,-8.34427 -3.66307,-12.34442 -0.10348,-0.093 -0.18728,-0.49737 -0.33544,-0.48304 z"
     id="path3130"
     inkscape:connector-curvature="0" />
  <path
     style="fill:#1a1a1a"
     d="m 79.478244,209.08962 c -0.990614,1.34428 -0.809352,3.57026 -2.348123,4.48156 -0.760443,0.221 -0.140645,1.5019 -0.114052,2.05293 0.06863,1.05979 0.693033,0.9844 0.804897,-0.0138 0.632857,-2.13283 1.591393,-4.32209 1.690823,-6.52738 l -0.01342,0 -0.02013,0.007 z"
     id="path3132"
     inkscape:connector-curvature="0" />
  <path
     style="fill:#000000"
     d="m 12.476219,210.53203 c -1.025057,0.38281 -1.215466,2.32146 -0.295193,2.81775 0.983729,-0.2221 1.645307,-2.73223 0.295193,-2.81775 z"
     id="path3134"
     inkscape:connector-curvature="0" />
  <path
     style="fill:#000000"
     d="m 37.319365,172.68028 c -0.979078,0.44505 -2.043192,1.34814 -2.234072,2.45547 0.116699,1.33859 1.788785,1.15478 2.361541,0.27507 0.784537,-0.59637 1.772775,-1.91273 0.576968,-2.65674 -0.230008,-0.004 -0.477965,-0.0932 -0.704437,-0.0738 z"
     id="path3136"
     inkscape:connector-curvature="0" />
  <path
     style="fill:#4d4d4d"
     d="m 34.843772,175.59196 c -1.217253,0.94877 -1.972754,2.47977 -2.43534,3.92472 -0.02065,1.3034 1.709641,1.48779 2.200527,0.40253 0.697788,-1.11531 1.799789,-2.25658 1.710776,-3.65636 -0.201259,-0.62855 -0.867874,-0.94822 -1.475963,-0.67089 z"
     id="path3138"
     inkscape:connector-curvature="0" />
  <path
     style="fill:#808080;stroke:#000000;stroke-width:1px;stroke-linecap:butt;stroke-linejoin:miter;stroke-opacity:1"
     d="m 84.100316,41.872229 -8.804726,22.770844 25.50335,0 -8.50112,-22.770844 z"
     id="path3140"
     inkscape:connector-curvature="0"
     sodipodi:nodetypes="ccccc" />
  <path
     style="fill:none;stroke:#000000;stroke-width:1px;stroke-linecap:butt;stroke-linejoin:miter;stroke-opacity:1"
     d="m 88.4398,42.246348 -3.535993,22.129948 7.823384,0 z"
     id="path3142"
     inkscape:connector-curvature="0"
     sodipodi:nodetypes="cccc" />
  <path
     style="fill:#333333;stroke:#000000;stroke-width:1px;stroke-linecap:butt;stroke-linejoin:miter;stroke-opacity:1"
     d="M 54.530136,109.11638 90.167941,208.73049 123.22952,108.48311 z"
     id="path3144"
     inkscape:connector-curvature="0"
     sodipodi:nodetypes="cccc" />
  <path
     style="fill:#000000"
     d="m 83.468761,84.747844 c -1.805989,0.06716 -4.717235,-0.302387 -5.142416,2.058864 -0.961827,5.966534 -0.401059,12.092611 -0.589991,18.121782 0.25615,1.5262 -0.909427,4.69421 1.566958,4.57269 3.313641,-0.0456 6.720455,0.50678 9.974071,0.0984 1.035902,-1.54398 0.188526,-3.81941 0.462848,-5.64832 -0.0737,-6.159507 0.147508,-12.374734 -0.11078,-18.499359 -0.964087,-1.459155 -3.304409,-0.38444 -4.832391,-0.713545 -0.442782,-0.0013 -0.885532,0.0069 -1.328299,0.0095 z"
     id="path3146"
     inkscape:connector-curvature="0" />
  <path
     style="fill:#000000"
     d="m 89.25635,85.013504 c -0.696578,2.64863 -0.09146,5.562198 -0.294123,8.311358 0.07365,5.248679 -0.147434,10.553048 0.11078,15.766848 0.964087,1.45916 3.304409,0.38444 4.832391,0.71355 2.346498,-0.15953 4.816391,0.33399 7.077932,-0.27515 0.69658,-2.64863 0.0915,-5.5622 0.29413,-8.31136 -0.0737,-5.248675 0.14743,-10.553044 -0.11078,-15.766849 -0.96409,-1.459155 -3.304411,-0.38444 -4.832392,-0.713545 -2.332887,0.159624 -4.836664,-0.334057 -7.077938,0.275148 z"
     id="path3148"
     inkscape:connector-curvature="0" />
  <path
     style="fill:#000000"
     d="m 87.036193,73.85579 c -2.528376,-0.249188 -4.700527,1.427286 -5.616808,3.700262 -0.562927,1.088818 -2.195929,3.248777 -0.284636,3.908995 3.899824,0.677275 7.936775,0.08981 11.877742,-0.0062 1.473924,-0.09251 4.276748,-0.158271 3.938507,-2.327773 -0.339056,-2.477495 -2.056155,-5.332633 -4.914707,-5.142416 -1.661737,-0.129468 -3.33386,-0.156454 -5.000098,-0.13283 z"
     id="path3150"
     inkscape:connector-curvature="0" />
  <path
     style="fill:#000000"
     d="m 88.573225,66.83478 c -1.940129,0.786915 -3.049624,2.97395 -3.804628,4.838804 -0.516293,2.227415 2.277134,2.517476 3.814116,2.704038 1.672926,0.477635 4.776674,-0.161476 4.440314,-2.409914 -0.731572,-2.030972 -1.998615,-4.268664 -4.070288,-5.12344 -0.125363,-0.02262 -0.253374,-0.02434 -0.379514,-0.0095 z"
     id="path3152"
     inkscape:connector-curvature="0" />
  <path
     style="fill:#000000"
     d="m 85.992529,81.246827 c -2.388045,0.253415 -5.060759,-0.425963 -7.277182,0.664149 -1.35359,1.06161 0.182831,2.663379 1.489593,2.637623 5.692003,0.691345 11.450851,-0.120938 17.144548,-0.445929 1.212711,0.188329 2.646127,-1.196528 1.41369,-2.191694 -2.266382,-0.972714 -4.940916,-0.395674 -7.362504,-0.64693 -1.802627,-0.01578 -3.605463,-0.03571 -5.408145,-0.01722 z"
     id="path3154"
     inkscape:connector-curvature="0" />
  <path
     style="fill:#000000"
     d="m 76.039773,86.702341 c -1.155777,2.068004 -3.344933,3.919558 -3.453578,6.4043 0.534811,1.831234 3.235059,1.33761 4.3739,0.360538 1.44014,-1.74899 0.807247,-4.346609 0.662428,-6.377345 -0.157146,-0.734768 -1.070415,-0.780022 -1.58275,-0.387493 z"
     id="path3156"
     inkscape:connector-curvature="0" />
  <path
     style="fill:#000000"
     d="m 74.59762,93.609497 c -1.366821,0.01483 -3.962901,0.363201 -3.22587,2.334012 1.195106,2.921739 2.545262,6.044251 4.848292,8.216481 1.905395,-0.28946 1.41829,-2.92796 1.631911,-4.383389 -0.05842,-2.138403 0.404407,-6.105867 -2.704038,-6.176592 -0.183429,0.0029 -0.36726,-0.0075 -0.550295,0.0095 z"
     id="path3158"
     inkscape:connector-curvature="0" />
  <path
     style="fill:#000000"
     d="m 70.460916,96.77844 c -1.946432,0.777039 -2.414262,3.28837 -3.633847,4.81983 -0.559491,1.63367 -2.650209,3.19333 -1.840643,4.98112 2.278019,0.87872 4.904081,0.31274 7.315103,0.48724 1.345041,-0.16696 2.884697,0.25587 4.098783,-0.4398 0.773413,-1.75165 -1.245374,-3.28879 -1.824604,-4.86416 -1.190894,-1.566 -1.722232,-3.868433 -3.450642,-4.927303 -0.210169,-0.08524 -0.44293,-0.09083 -0.66415,-0.05693 z"
     id="path3160"
     inkscape:connector-curvature="0" />
  <path
     style="fill:#000000"
     d="m 72.396438,106.33271 c -2.684866,0.21202 -5.652157,-0.2713 -8.131089,0.92981 -1.240342,1.13425 0.467926,2.43927 1.688838,2.16323 3.785116,0.0395 7.631841,0.27305 11.385422,-0.15181 1.505588,-1.29076 -0.732673,-3.07814 -2.172718,-2.90328 -0.921873,-0.057 -1.847255,-0.049 -2.770453,-0.0379 z"
     id="path3162"
     inkscape:connector-curvature="0" />
  <path
     style="fill:#000000"
     d="m 103.44069,93.543082 c -2.34653,-0.06661 -2.87644,2.583218 -2.79285,4.421065 0.12942,1.812894 -0.27342,3.902813 0.67706,5.522203 1.76265,1.07995 2.68309,-1.59648 3.39665,-2.70404 0.75617,-1.848821 2.50635,-3.640906 2.21067,-5.721172 -0.57286,-1.269195 -2.24202,-1.588108 -3.49153,-1.518056 z"
     id="path3164"
     inkscape:connector-curvature="0" />
  <path
     style="fill:#000000"
     d="m 101.41029,87.480345 c -0.95698,1.814859 -1.17822,4.571383 0.18027,6.280958 1.14496,0.704989 3.14536,0.938775 4.07511,0.0052 0.21293,-1.939635 -1.43473,-3.715969 -2.40111,-5.327735 -0.37901,-0.681766 -1.01587,-1.375332 -1.85427,-0.958401 z"
     id="path3166"
     inkscape:connector-curvature="0" />
  <path
     style="fill:#000000"
     d="m 107.28327,96.759464 c -2.00847,1.912221 -3.14697,4.690146 -4.73444,6.973566 -0.88919,0.84491 -1.24237,2.75568 0.37003,2.90329 3.44395,0.39156 6.99119,0.44417 10.42647,0.32899 1.7335,-0.88215 -0.45491,-2.71959 -0.86272,-3.87745 -1.38544,-2.05061 -2.20366,-4.604181 -4.07029,-6.271469 -0.34934,-0.200086 -0.75864,-0.199999 -1.12905,-0.05693 z"
     id="path3168"
     inkscape:connector-curvature="0" />
  <path
     style="fill:#000000"
     d="m 106.59066,106.30424 c -1.85083,0.23893 -4.61138,-0.46645 -5.69272,1.4896 -0.5962,2.10754 2.19798,2.01496 3.57688,1.98802 3.37729,-0.10908 6.88007,0.35346 10.17102,-0.25175 0.7481,-1.30369 0.36997,-3.78944 -1.61293,-3.23536 -2.14739,0.006 -4.29496,-0.012 -6.44225,0.009 z"
     id="path3170"
     inkscape:connector-curvature="0" />
  <path
     style="fill:#000000"
     d="m 118.8205,105.73497 c -2.24149,-0.19414 -2.87213,4.44876 -0.36054,4.07029 1.20406,0.0174 3.94931,0.37856 3.53897,-1.6414 -0.50504,-1.25911 -1.746,-2.45984 -3.17843,-2.42889 z"
     id="path3172"
     inkscape:connector-curvature="0" />
  <path
     style="fill:#000000"
     d="m 53.22149,109.11265 c -0.892194,2.46261 -0.601803,5.28865 -0.985002,7.89031 -0.247505,5.04462 -1.131676,10.07492 -1.130789,15.11773 0.63667,1.76343 3.183302,1.946 4.715463,1.42317 1.900101,-1.4458 1.097403,-4.28525 1.385226,-6.34737 -0.128076,-2.05775 0.375922,-4.28379 -0.322587,-6.243 -1.146865,-0.70973 -1.530256,-0.57559 -0.631241,-2.0159 1.669589,-2.83593 -0.119882,-5.94033 -0.962718,-8.73384 -0.260483,-0.89793 -1.07329,-1.86054 -2.068352,-1.0911 z"
     id="path3174"
     inkscape:connector-curvature="0" />
  <path
     style="fill:#000000"
     d="m 53.08866,133.2782 c -2.267225,0.028 -2.485691,2.64142 -2.324523,4.34544 0.216047,1.6073 -0.423564,4.41774 1.698325,4.9242 2.529606,-0.17902 3.973677,-3.03183 4.497242,-5.2373 0.50616,-2.22735 -1.764282,-4.16291 -3.871044,-4.03234 z"
     id="path3176"
     inkscape:connector-curvature="0" />
  <path
     style="fill:#000000"
     d="m 54.957767,141.02978 c -2.884627,0.89113 -4.501021,3.99198 -4.236641,6.90711 0.23813,1.45173 -0.775202,3.80209 0.953844,4.44036 3.020871,-1.73082 6.118035,-5.05173 5.379612,-8.87114 -0.100555,-1.14098 -0.667744,-2.67927 -2.096815,-2.47633 z"
     id="path3178"
     inkscape:connector-curvature="0" />
  <path
     style="fill:#000000"
     d="m 55.280354,149.57833 c -2.37318,0.85245 -3.699972,3.4758 -4.487754,5.73067 -0.655471,2.42881 2.067813,4.20005 4.250558,3.63384 2.436817,-0.20817 1.967912,-3.28387 2.087327,-4.99061 -0.162286,-1.39924 0.36644,-4.46117 -1.850131,-4.3739 z"
     id="path3180"
     inkscape:connector-curvature="0" />
  <path
     style="fill:#000000"
     d="m 54.113348,158.24074 c -2.039033,0.0157 -4.380634,2.23081 -2.969697,4.25056 1.127676,1.5799 2.536572,3.11717 2.466841,5.18037 0.407072,1.72341 -0.05652,4.23341 1.650886,5.29422 1.939587,0.28562 1.565362,-2.47627 1.726789,-3.70975 0.0033,-3.28321 0.760469,-6.76083 -0.246684,-9.94327 -0.537329,-0.87367 -1.660115,-1.17391 -2.628135,-1.07213 z"
     id="path3182"
     inkscape:connector-curvature="0" />
  <path
     style="fill:#000000"
     d="m 56.760459,158.68667 c -0.534211,3.95505 -0.134482,8.22234 -0.25906,12.28676 0.199343,2.12564 -0.399934,4.45151 0.353938,6.44226 7.320535,6.38376 14.52711,13.02736 20.84481,20.37991 1.471867,1.15541 -0.294919,1.23648 -0.15852,2.4968 0.816771,1.81694 3.723705,1.95565 4.456517,-0.0394 1.32838,-2.17708 0.998548,-5.43341 -1.556008,-6.53713 -0.936228,-0.75774 -2.553885,-1.08739 -3.112015,-2.14426 0.525613,-0.79034 2.529732,-0.45504 2.201182,-1.95449 -0.767063,-1.21004 -2.50284,-0.37164 -3.57692,-1.27137 -2.415216,-1.12365 -5.029913,-2.69267 -6.556106,-4.75342 3.268894,-0.16788 6.716239,-0.35767 9.943269,0.28464 1.260113,0.764 2.461837,-0.86422 1.56855,-1.96605 -0.851692,-2.47685 -1.644382,-5.22289 -4.015786,-6.67967 -6.311061,-5.52943 -12.41353,-11.41255 -18.786576,-16.89558 -0.585501,-0.18287 -0.913178,-0.0702 -1.347275,0.35105 z m 10.161489,13.98509 c 1.322688,0.20226 3.560343,-0.53575 3.852068,1.31882 0.26303,0.89958 0.767015,2.61158 -0.654662,2.7325 -3.009453,0.22093 -6.379431,0.74178 -9.155777,-0.73057 -0.697767,-0.54297 -2.245169,-2.1546 -1.005712,-2.84635 2.267995,-0.4439 4.646725,-0.42472 6.964083,-0.4744 z"
     id="path3184"
     inkscape:connector-curvature="0" />
  <path
     style="fill:#000000"
     d="m 56.646605,150.20453 c -0.462314,1.98472 -0.12598,4.27833 0.635686,6.19557 2.630189,4.2807 6.813696,7.24207 10.288793,10.80197 2.905022,2.53053 5.495697,5.49432 8.68691,7.66139 1.464496,0.60429 1.908197,-1.33396 1.242908,-2.30555 -0.929619,-2.42196 -1.396343,-5.14107 -2.827379,-7.30565 -5.482907,-5.23612 -11.122496,-10.38075 -16.919067,-15.21359 -0.396628,-0.30168 -0.733981,0.0159 -1.107851,0.16586 z"
     id="path3186"
     inkscape:connector-curvature="0" />
  <path
     style="fill:#000000"
     d="m 57.301266,141.38083 c -1.587809,0.91592 -0.55235,3.19951 -0.590371,4.67411 0.376638,3.85652 3.962728,6.19625 6.349497,8.85557 3.0065,2.7729 5.838745,5.82267 9.174753,8.17852 1.956675,0.215 1.208049,-2.19528 0.768516,-3.21638 -1.081298,-2.41031 -1.239066,-5.59673 -3.519993,-7.23923 -1.549625,-0.93924 -3.729538,-0.23199 -5.161391,-1.15752 0.04099,-2.543 -0.789065,-5.08725 -2.666087,-6.88818 -1.307974,-1.06303 -2.452576,-3.32685 -4.354924,-3.20689 z"
     id="path3188"
     inkscape:connector-curvature="0" />
  <path
     style="fill:#000000"
     d="m 63.620175,138.55345 c -0.202432,4.10969 -0.227339,8.33869 -0.0492,12.4361 0.968412,1.45777 3.295779,0.38624 4.821591,0.71406 2.400406,-0.20985 0.51005,-2.88691 0.198775,-4.19559 -1.278699,-3.09267 -1.965904,-6.53857 -3.652353,-9.39101 -0.595722,-0.14097 -0.916145,-0.0194 -1.318812,0.43644 z"
     id="path3190"
     inkscape:connector-curvature="0" />
  <path
     style="fill:#000000"
     d="m 59.701693,135.46041 c -2.387531,-0.077 -3.835932,2.8846 -2.29606,4.72495 1.37848,1.74695 2.794753,3.702 4.734438,4.81983 2.082747,0.12032 1.71135,-2.69119 1.755252,-4.05131 0.157033,-2.0721 -0.280569,-4.66336 -2.618647,-5.28474 -0.498951,-0.18717 -1.044991,-0.24573 -1.574983,-0.20873 z"
     id="path3192"
     inkscape:connector-curvature="0" />
  <path
     style="fill:#000000"
     d="m 56.978679,120.07112 c -0.509981,4.94007 -0.675894,10.05563 0.26566,14.95285 0.520557,1.40124 2.466245,0.622 2.419402,-0.71159 0.644963,-3.67508 1.05848,-7.60434 0.218221,-11.25259 -0.567287,-1.20244 -1.05824,-4.843 -2.903283,-2.98867 z"
     id="path3194"
     inkscape:connector-curvature="0" />
  <path
     style="fill:#000000"
     d="m 61.352579,131.54193 c -2.065842,0.045 -1.866902,2.68469 -0.88237,3.87104 0.751693,1.65623 3.580808,1.29683 3.368187,-0.67364 -0.216859,-1.30916 -0.775744,-3.37536 -2.485817,-3.1974 z"
     id="path3196"
     inkscape:connector-curvature="0" />
  <path
     style="fill:#000000"
     d="m 64.587936,172.74767 c -1.590509,0.16129 -4.499791,-0.13917 -4.705974,1.99245 0.638442,2.33526 3.736001,2.39809 5.74015,2.42889 1.858574,-0.0425 4.849002,-0.20464 5.208831,-2.5048 -0.320152,-2.14547 -3.147984,-1.76196 -4.753414,-1.92603 -0.496519,0.004 -0.993275,-0.009 -1.489593,0.009 z"
     id="path3198"
     inkscape:connector-curvature="0" />
  <path
     style="fill:#000000"
     d="m 57.72822,180.20512 c -0.926705,1.65543 1.43663,2.69315 2.182034,3.89695 3.018847,3.2338 6.324331,6.21233 9.184412,9.58529 -0.792473,1.3472 0.91093,1.8007 1.907058,1.556 1.326882,0.56363 1.837413,1.99355 1.593959,3.3587 -0.255732,1.68393 2.460906,2.40162 2.723013,0.56927 0.09172,-0.77053 1.058206,0.77362 1.518057,0.88237 1.215667,0.98627 2.488872,-0.84866 1.470617,-1.84064 -3.657561,-4.87859 -8.528993,-8.69553 -12.922454,-12.89399 -2.250194,-1.77947 -4.160681,-4.09165 -6.726887,-5.37961 -0.334373,-0.0985 -0.618246,0.19533 -0.929809,0.26566 z"
     id="path3200"
     inkscape:connector-curvature="0" />
  <path
     style="fill:#000000"
     d="m 70.650674,195.26234 c -1.975488,0.36908 -0.649262,2.80491 0.730564,2.97918 2.015513,0.35525 2.050873,-2.95552 0.09488,-2.95072 -0.272101,-0.0497 -0.550442,-0.0462 -0.825443,-0.0285 z"
     id="path3202"
     inkscape:connector-curvature="0" />
  <path
     style="fill:#000000"
     d="m 73.810128,182.72889 c -1.232543,0.21228 -3.944874,-0.53745 -3.708198,1.38141 1.650399,1.96103 3.709174,4.05099 6.288894,4.78569 1.763814,0.19474 4.749798,0.41451 5.256269,-1.82167 0.155574,-2.64848 -2.520481,-4.36109 -4.94317,-4.27902 -0.962702,-0.0748 -1.92868,-0.0865 -2.893795,-0.0664 z"
     id="path3204"
     inkscape:connector-curvature="0" />
  <path
     style="fill:#000000"
     d="m 80.081598,190.78407 c -1.810439,-0.009 -2.258611,2.57323 -0.66415,3.27331 1.28033,1.20273 3.764827,0.78741 3.890019,-1.17649 -0.182127,-1.40238 -1.932546,-2.22523 -3.225869,-2.09682 z"
     id="path3206"
     inkscape:connector-curvature="0" />
  <path
     style="fill:#000000"
     d="m 84.341643,194.39894 c -1.600598,0.87252 -2.097016,3.15334 -2.011424,4.85778 0.687833,3.15726 2.70639,6.31705 5.711686,7.6567 1.771738,0.17487 1.408965,-2.02287 0.767113,-2.97962 -1.284469,-3.07752 -1.982346,-6.4872 -3.613468,-9.37356 -0.242398,-0.20714 -0.564594,-0.15708 -0.853907,-0.1613 z"
     id="path3208"
     inkscape:connector-curvature="0" />
  <path
     style="fill:#000000"
     d="m 95.508845,193.61145 c -1.581422,1.20755 -1.566777,3.61748 -2.395466,5.32678 -0.721822,2.32523 -1.656295,4.6247 -2.035361,7.01692 0.455935,1.9008 2.486285,0.53965 3.225869,-0.39849 2.384905,-2.1652 4.933175,-5.60052 3.510506,-8.95653 -0.808526,-0.66101 -0.778162,-1.69009 -1.100591,-2.59019 -0.372723,-0.39024 -0.668975,-0.50497 -1.204957,-0.39849 z m 1.783716,2.33401 c 0.0099,0.0315 0.01751,-0.013 0,0 z"
     id="path3210"
     inkscape:connector-curvature="0" />
  <path
     style="fill:#000000"
     d="m 97.643611,187.58667 c -1.348944,0.35855 -1.513794,2.16273 -1.584471,3.32074 0.962874,1.69815 2.520679,-0.48261 3.890019,0.15181 2.023941,0.0116 1.491561,-3.11856 -0.313099,-3.02662 -0.65586,-0.16673 -1.285823,-0.51935 -1.992449,-0.44593 z"
     id="path3212"
     inkscape:connector-curvature="0" />
  <path
     style="fill:#000000"
     d="m 108.27949,182.51067 c -2.74621,0.18328 -5.74896,-0.003 -8.2734,1.20495 -1.618052,1.24157 -1.782937,4.54741 0.68312,4.81983 3.09701,0.21933 6.79325,0.0235 8.75729,-2.77045 1.04955,-0.77236 2.58459,-3.18351 0.29413,-3.26219 -0.48705,0.003 -0.97409,0.005 -1.46114,0.008 z"
     id="path3214"
     inkscape:connector-curvature="0" />
  <path
     style="fill:#000000"
     d="m 100.29072,190.70817 c -1.371678,-0.10506 -3.883216,0.88009 -2.874817,2.60916 1.401175,1.02938 3.769177,0.75295 5.028557,-0.41747 1.12024,-1.40795 -0.78494,-2.51369 -2.15374,-2.19169 z"
     id="path3216"
     inkscape:connector-curvature="0" />
  <path
     style="fill:#000000"
     d="m 121.50556,159.43621 c -3.02826,1.29928 -5.31188,3.92628 -7.85471,5.97083 -1.6272,1.73885 -3.95666,3.10882 -4.87799,5.35767 -1.70868,-0.71057 -2.61825,1.83034 -3.87942,2.61081 -2.4939,2.48475 -5.440578,4.91007 -6.101799,8.57536 -0.966449,1.15141 0.159536,2.9237 1.537029,2.17272 3.02642,-1.13912 6.41942,-0.54292 9.60114,-0.60764 1.49653,-0.19806 0.9322,0.49163 0.0863,1.11242 -1.79438,1.64314 -3.87531,2.97907 -6.17689,3.67936 -1.25367,1.18478 0.16495,3.85521 -1.94501,4.41185 -1.51957,0.77161 -4.574798,0.22138 -4.677512,2.56172 0.278659,1.94358 0.10661,4.2647 1.337787,5.87298 1.859635,0.78528 2.723245,-1.88153 3.771275,-2.9022 5.82696,-7.77972 13.40165,-14.05525 20.31668,-20.77816 0.4499,-3.59344 0.0683,-7.37812 0.18773,-11.04516 -0.22382,-2.20801 0.35552,-4.63671 -0.45169,-6.71741 -0.29179,-0.068 -0.56157,-0.32695 -0.87288,-0.27515 z m -12.05906,12.44806 c 3.40196,0.70851 7.15469,0.1178 10.37022,1.52755 -0.41308,1.86288 -2.05442,3.56868 -4.12722,3.42511 -2.16681,0.18424 -4.34575,0.16152 -6.51815,0.2372 0,-1.81218 0,-3.62436 0,-5.43654 l 0.22606,0.20267 0.0491,0.044 z"
     id="path3218"
     inkscape:connector-curvature="0" />
  <path
     style="fill:#000000"
     d="m 114.34223,172.72869 c -1.81179,0.28895 -4.30388,-0.32032 -5.61681,1.19547 -0.70943,1.89986 1.02083,4.45036 3.21638,3.77617 2.88135,-0.31789 6.52321,-0.60877 8.25443,-3.25434 0.23913,-2.01281 -2.46843,-1.54507 -3.72855,-1.70844 -0.70814,-0.0246 -1.4171,-0.0232 -2.12545,-0.009 z"
     id="path3220"
     inkscape:connector-curvature="0" />
  <path
     style="fill:#000000"
     d="m 120.40497,180.16717 c -3.82395,2.19634 -6.81983,5.61267 -10.08559,8.54855 -2.64807,2.6552 -5.39177,5.34121 -7.56182,8.37777 -0.73199,1.4413 1.44411,2.15383 2.16323,0.94879 5.77106,-5.20418 11.76602,-10.33205 16.72709,-16.30962 0.51918,-0.8241 -0.34204,-1.83417 -1.24291,-1.56549 z"
     id="path3222"
     inkscape:connector-curvature="0" />
  <path
     style="fill:#000000"
     d="m 121.0027,149.92938 c -5.32075,5.17423 -11.10874,9.92282 -16.09139,15.40828 -1.94677,2.67498 -2.58938,6.0623 -3.50102,9.17475 0.0577,1.53843 2.02682,1.33324 2.64746,0.255 5.77815,-5.38778 11.78357,-10.60177 16.9829,-16.55513 1.95812,-2.23792 2.15479,-5.58123 1.3283,-8.2829 -0.5139,-0.28839 -0.85288,-0.30663 -1.36625,0 z"
     id="path3224"
     inkscape:connector-curvature="0" />
  <path
     style="fill:#000000"
     d="m 120.80346,141.42827 c -2.25743,0.82823 -3.92309,2.90072 -5.37961,4.73444 -1.12596,1.49713 -0.79405,3.54137 -1.09111,5.18036 -2.31446,0.74402 -5.44987,0.87562 -6.43276,3.61488 -0.92934,2.46762 -2.03317,4.99946 -2.46684,7.59976 0.39039,1.79973 2.39013,0.59929 3.04183,-0.34733 4.57685,-4.43768 9.6063,-8.50433 13.45754,-13.6093 1.07117,-1.91904 1.28532,-4.55868 0.30361,-6.54661 -0.30263,-0.46794 -0.88995,-0.69404 -1.43266,-0.6262 z"
     id="path3226"
     inkscape:connector-curvature="0" />
  <path
     style="fill:#000000"
     d="m 113.21318,139.19862 c -1.47514,3.5761 -2.61279,7.3461 -3.81412,11.03438 0.17888,2.22946 3.11289,1.24447 4.54468,1.47061 1.85141,-0.63075 0.65159,-3.16092 0.9834,-4.63953 -0.16865,-2.59891 0.3213,-5.33162 -0.31925,-7.83699 -0.51555,-0.33169 -0.86189,-0.32194 -1.39471,-0.0285 z"
     id="path3228"
     inkscape:connector-curvature="0" />
  <path
     style="fill:#000000"
     d="m 120.26265,118.41074 c -1.16418,2.03505 -1.86727,4.43317 -2.31503,6.70732 0.39294,3.35456 0.054,6.88808 1.03417,10.13362 0.73649,1.64948 3.10449,0.91242 3.22587,-0.74954 0.76333,-4.76615 0.54731,-9.67843 0.18976,-14.47846 -0.043,-1.07383 -0.9042,-2.49988 -2.13477,-1.61294 z"
     id="path3230"
     inkscape:connector-curvature="0" />
  <path
     style="fill:#000000"
     d="m 123.50749,111.16202 c -2.00803,0.45308 -0.95246,3.04272 -0.98739,4.43543 0.1566,2.14171 0.65884,4.50342 1.01586,6.45663 -1.85138,1.13488 -1.09565,3.76172 -1.3283,5.57885 0.25381,1.90323 -0.65866,4.87355 1.51806,5.90145 1.55281,0.77278 4.33535,0.0645 3.79273,-2.11556 -0.62394,-6.23672 -1.3473,-12.47791 -2.1039,-18.71028 -0.12765,-0.96715 -0.87176,-1.74317 -1.90706,-1.54652 z"
     id="path3232"
     inkscape:connector-curvature="0" />
  <path
     style="fill:#000000"
     d="m 124.74092,133.13589 c -2.77191,0.16088 -3.07243,3.70531 -2.18221,5.73066 0.72588,1.72948 1.64056,4.07003 3.64333,4.55417 1.832,-0.47242 1.15266,-3.00181 1.45165,-4.40237 0.0764,-2.03537 0.37353,-5.56281 -2.42889,-5.88246 -0.16019,-0.0144 -0.32378,-0.0158 -0.48388,0 z"
     id="path3234"
     inkscape:connector-curvature="0" />
  <path
     style="fill:#000000"
     d="m 123.20388,141.70342 c -1.86802,0.66189 -0.88897,3.15909 -0.80646,4.61109 0.46244,2.0245 1.26863,4.65861 3.42009,5.37769 2.14969,-0.17823 1.92578,-3.04768 1.77925,-4.61866 -0.23773,-2.25299 -1.96416,-5.13786 -4.39288,-5.37012 z"
     id="path3236"
     inkscape:connector-curvature="0" />
  <path
     style="fill:#000000"
     d="m 123.4221,150.73585 c -1.96787,0.74617 -1.1842,3.39504 -1.22393,5.01907 -0.12615,1.73494 1.09909,3.57283 3.02663,3.2069 2.50237,-0.0827 3.04169,-3.2441 1.84064,-5.0001 -0.79674,-1.29643 -1.96942,-3.1619 -3.64334,-3.22587 z"
     id="path3238"
     inkscape:connector-curvature="0" />
  <path
     style="fill:#000000"
     d="m 124.66501,158.24074 c -2.5893,0.31314 -2.37051,3.55315 -2.50901,5.49344 0.0415,3.10469 -0.0871,6.27217 0.50708,9.32659 0.6806,1.49368 2.4807,0.30003 2.40042,-0.98674 0.73851,-2.8851 0.38789,-6.09829 2.14426,-8.62446 0.96447,-2.09946 0.42603,-5.46181 -2.54275,-5.20883 z"
     id="path3242"
     inkscape:connector-curvature="0" />
  <path
     style="fill:#000000"
     d="m 118.48842,135.46041 c -2.94216,0.0112 -4.20398,3.21636 -4.02285,5.74015 0.078,1.40898 -0.42011,4.20509 1.77423,4.07029 2.49332,-1.2319 4.90509,-3.22048 6.18608,-5.76861 1.28859,-2.48903 -1.74284,-4.40744 -3.93746,-4.04183 z"
     id="path3244"
     inkscape:connector-curvature="0" />
  <path
     style="fill:#000000"
     d="m 116.95139,131.51346 c -1.74338,0.31846 -2.94634,2.94748 -1.84064,4.34544 2.40111,1.7098 5.31116,-3.12761 2.47633,-4.28851 -0.20512,-0.0598 -0.423,-0.0802 -0.63569,-0.0569 z"
     id="path3246"
     inkscape:connector-curvature="0" />
  <path
     style="fill:#000000"
     d="m 58.506224,105.8678 c -0.878264,0.79333 -2.31757,2.84169 -0.512344,3.47256 1.267817,0.44448 3.918179,0.24446 3.377675,-1.69833 -0.544315,-0.92082 -1.660355,-2.58262 -2.865331,-1.77423 z"
     id="path3248"
     inkscape:connector-curvature="0" />
  <path
     style="fill:#000000"
     d="m 88.771383,206.76859 c -1.078607,-0.0608 -1.994706,1.17451 -1.185981,2.06835 0.650135,0.7561 1.228331,1.87458 2.310292,2.01143 1.039762,-0.0418 1.237075,-1.25831 0.763772,-1.98771 -0.329434,-0.90987 -0.604462,-2.27808 -1.888083,-2.09207 z"
     id="path3250"
     inkscape:connector-curvature="0" />
  <path
     style="fill:#000000"
     d="m 81.21431,186.47408 c -0.802178,0.79664 -0.392303,2.0704 -0.455417,3.08355 -0.143289,1.32676 1.517637,2.36408 2.655096,1.83275 1.10555,-0.71255 0.166451,-2.06959 -0.07914,-2.99027 -0.363824,-0.7931 -0.530681,-2.21905 -1.681395,-2.06884 -0.14638,0.0476 -0.29276,0.0952 -0.439139,0.14281 z"
     id="path3252"
     inkscape:connector-curvature="0" />
  <path
     style="fill:#000000"
     d="m 101.71756,201.62618 c -0.95326,0.18452 -1.748466,0.96615 -2.205929,1.78371 -0.07737,1.25513 1.647489,1.743 2.623389,1.35202 1.02787,-0.43083 1.71518,-1.89968 0.72582,-2.7325 -0.30145,-0.29153 -0.72196,-0.45796 -1.14328,-0.40323 z"
     id="path3254"
     inkscape:connector-curvature="0" />
  <path
     style="fill:#000000"
     d="m 91.375799,206.74962 c -1.360974,0.0992 -1.892909,1.98237 -1.356763,3.05983 0.456435,0.87531 1.705225,0.65692 2.167974,-0.12809 0.608801,-0.6034 1.465748,-1.6039 0.726078,-2.39705 -0.370079,-0.42359 -1.002421,-0.5357 -1.537289,-0.53469 z"
     id="path3256"
     inkscape:connector-curvature="0" />
  <path
     style="fill:#000000"
     d="m 105.06677,223.44824 c -1.0411,0.87319 -0.25468,2.36369 0.0122,3.42608 0.26007,0.99743 1.11827,2.39801 2.24411,1.86666 1.176,-0.78572 0.36876,-2.41881 -0.0124,-3.46159 -0.39986,-0.87754 -0.94051,-2.53036 -2.24388,-1.83115 z"
     id="path3258"
     inkscape:connector-curvature="0" />
  <path
     style="fill:#000000"
     d="m 107.49091,228.4768 c -1.17313,0.40846 -0.99885,1.93595 -0.84441,2.91751 0.27166,1.17028 1.99494,1.00029 2.24387,-0.0949 0.4539,-1.04565 0.0982,-3.04812 -1.39946,-2.82263 z"
     id="path3260"
     inkscape:connector-curvature="0" />
  <path
     style="fill:#000000"
     d="m 103.63885,209.66713 c -1.28619,0.37307 -1.14643,2.09512 -0.84917,3.11202 0.3958,1.16101 2.06908,0.77867 2.20119,-0.35105 0.42625,-1.06449 0.22076,-2.99537 -1.35202,-2.76097 z"
     id="path3262"
     inkscape:connector-curvature="0" />
  <path
     style="fill:#000000"
     d="m 113.58686,189.90394 c -1.15092,0.21281 -2.73108,1.47058 -1.94975,2.6898 1.00949,1.26286 3.42383,0.47918 3.42985,-1.18123 -0.0369,-0.79913 -0.60037,-1.61175 -1.4801,-1.50857 z"
     id="path3264"
     inkscape:connector-curvature="0" />
  <path
     style="fill:#333333;stroke:#000000;stroke-width:1px;stroke-linecap:butt;stroke-linejoin:miter;stroke-opacity:1"
     d="m 75.998693,64.032411 -20.609815,45.083969 66.730372,0.0997 -21.74612,-45.283393 z"
     id="path3266"
     inkscape:connector-curvature="0"
     sodipodi:nodetypes="ccccc" />
  <path
     style="fill:#000000"
     d="m 88.070638,5.2665255 c -0.82008,0.8080464 -1.106344,2.0089736 -1.695731,2.986466 -2.221157,4.4315715 -4.285862,8.9411345 -6.118672,13.5443845 -3.523153,8.380647 -7.367508,16.641779 -10.716496,25.083712 -0.441573,1.381062 -1.233989,2.833469 -0.874264,4.315933 0.307416,1.040781 1.716561,1.090227 2.36785,0.354372 1.555764,-1.581866 2.361691,-3.711518 3.357817,-5.655623 4.614752,-10.093964 8.454032,-20.517996 12.655283,-30.78715 0.501032,-1.182455 1.049769,-2.346483 1.654852,-3.485389 2.442467,5.186658 4.383552,10.590551 6.488913,15.926502 2.529646,6.498259 4.86764,13.078155 7.54105,19.51658 0.87651,2.269321 2.47212,4.44835 4.8584,5.251967 0.89734,0.251302 1.82349,0.934865 2.77811,0.59838 0.82874,-0.419417 0.56102,-1.455599 0.20418,-2.10305 C 106.98668,42.41232 103.05911,34.147067 99.192036,25.862121 95.977982,19.089144 92.755972,12.307422 89.37461,5.6224141 89.090591,5.1681169 88.546585,5.0748375 88.070638,5.2665255 z"
     id="path3268"
     inkscape:connector-curvature="0" />
  <path
     style="fill:#000000"
     d="m 89.428984,14.312208 c -0.943912,0.589218 -0.480194,1.840275 -0.594748,2.764075 -0.06011,0.756252 -0.0611,1.912204 0.939049,1.979592 0.488156,0.03072 0.826,-0.402364 1.316128,-0.406883 0.764147,-0.257705 0.850562,-1.240455 0.458131,-1.860812 -0.396167,-0.794727 -0.51543,-1.81777 -1.20201,-2.404672 -0.296842,-0.185522 -0.592076,-0.146768 -0.91655,-0.0713 z"
     id="path3270"
     inkscape:connector-curvature="0" />
  <path
     style="fill:#000000"
     d="m 87.251938,14.536957 c -0.838091,0.363104 -0.926584,1.397897 -1.281405,2.136792 -0.334576,1.402697 2.071558,1.971918 2.49572,0.650766 0.167298,-0.723166 0.182485,-1.547727 -0.03019,-2.270971 -0.22081,-0.431249 -0.729766,-0.592804 -1.184125,-0.516587 z"
     id="path3272"
     inkscape:connector-curvature="0" />
</svg>
