<?xml version="1.0" encoding="UTF-8" standalone="no"?>
<!-- Created with Inkscape (http://www.inkscape.org/) -->
<svg xmlns:svg="http://www.w3.org/2000/svg" xmlns="http://www.w3.org/2000/svg" version="1.1" width="200" height="338">
  <path d="m 0,17.497341 c 67.626466,-23.6339906 134.31367,-21.907768 200.2534,0 l 0,59.791302 C 136.95308,51.599252 70.880132,46.55054 0,77.288643 L 0,17.497341 z" id="rect2942" style="fill:#000000;stroke:none"/>
  <path d="m 167.88904,22.28073 0,27.407 14.8125,5.06025 0,-5.8065 -9.15625,-2.9375 0,-5.28125 5.15625,1.5625 0,-6.0625 -5.15625,-1.5625 0,-5.40625 9.15625,2.9375 0,-5.4375 -14.8125,-4.47325 z m -23.9375,-4.52675 0,26.375 5.53125,1.1875 0,-14.89274 8.46875,16.67399 5.68375,1.52675 -0.0618,-27.209 -5.81776,-1.189 0,11.66423 -7.50708,-13.06628 -6.29716,-1.07045 z m -21.19173,-1.91471 0,25.21875 5.19596,0.5 0,-9.34375 3.24577,0.72721 3.09375,9.0625 5.875,0.53125 -4.4375,-10.65625 c 9.18675,-5.649 3.2105,-15.73874 -4.25,-15.84375 -1.63313,-0.023 -8.72298,-0.25302 -8.72298,-0.19596 z m 12.14907,8.42041 c -0.12138,3.08732 -2.06884,4.26258 -7.10936,3.61084 l -0.0611,-6.74144 c 3.49098,-0.12909 6.46824,-0.3898 7.17043,3.1306 l 3e-5,0 z m -28.48859,-10.6932 c -7.66619,0 -13.875,6.33249 -13.875,14.15625 0,7.82375 6.20881,14.1875 13.875,14.1875 7.66619,0 13.875,-6.36375 13.875,-14.1875 0,-7.82376 -6.20881,-14.15625 -13.875,-14.15625 z m -0.0312,4.625 c 5.03595,0 9.125,4.11977 9.125,9.21875 0,5.09897 -4.08905,9.25 -9.125,9.25 -5.03595,0 -9.125,-4.15103 -9.125,-9.25 0,-5.09898 4.08905,-9.21875 9.125,-9.21875 z m -22.9063,-3.0625 c -3.15484,0.0853 -10.15625,0.60223 -10.15625,0.6875 l 0,26.25 c 0.50681,-0.15595 5.85668,-0.27916 10.0625,-0.6875 9.12467,-0.88592 9.46239,-11.06391 4.6875,-14.21875 3.83475,-4.19714 1.13983,-12.18621 -4.59375,-12.03125 z m -5.46875,4.84375 3.84375,0 c 1.36425,0 3.25,0.26569 3.25,3.25 0,2.98431 -2.81744,3 -4.4375,3 l -2.65625,0 0,-6.25 z m 0,10.9375 3.84375,0 c 1.36425,0 3.25,0.26569 3.25,3.25 0,2.98431 -2.81744,2.96875 -4.4375,2.96875 l -2.65625,0 0,-6.21875 z m -18.46875,-13.25 c -3.94489,0.0839 -8.90625,1.46875 -8.90625,1.46875 l 0,26.53125 5.21875,-0.875 0,-9.5 4.3125,-0.4375 4.46875,8.46875 5.46875,-0.90625 -5.65625,-9.125 c 0,0 3.84375,-2.82508 3.84375,-6.40625 0,-4.7749 -1.8791,-7.33173 -5.375,-8.78125 -0.87398,-0.36238 -2.06004,-0.46548 -3.375,-0.4375 z m 3.81985,8.30922 c -0.29996,3.1999 -2.42363,4.15772 -4.8511,4.53453 l -0.0312,0 -2.625,0.1933 0,-7.91205 c 0.0639,0 2.64567,-0.49716 3.98887,-0.51712 1.82736,-0.19786 3.69263,1.84304 3.51843,3.70134 z m -23.11405,21.89574 5.71282,-1.53479 0,-26.43245 -5.88336,1.44953 0.17054,26.51771 z m -13.3933,-23.20496 -4.5,1.21875 -7.9375,30.09375 5.84375,-1.90625 1.1875,-4.9375 8.9375,-3.3125 1.84375,4.34375 5.21875,-1.6875 -10.59375,-23.8125 z m -1.6875,8.875 3.125,7.3125 -5.34375,2.03125 2.21875,-9.34375 z" id="path3780" style="fill:#d90033;stroke:none"/>
  <path d="M 9.1743269,25.406242 C 70.207768,5.5319936 130.04546,4.7897052 188.54823,25.406242 l 0,37.013661 c -59.35677,-22.160945 -119.173674,-20.855315 -179.3739031,0 l 0,-37.013661 z" id="rect2945" style="fill:none;stroke:#b3b3b3;stroke-width:1.2;stroke-linecap:round;stroke-linejoin:miter;stroke-miterlimit:4"/>
  <path d="m 99.59375,330.875 c 15.57868,0 21.15044,9.15763 32.96875,0.5625 11.81831,-8.59513 2.15321,-23.65349 -3.21875,-40.84375 -5.37195,-17.19027 4.28443,-28.45381 20.9375,-24.15625 13.37314,3.45113 30.6279,2.13053 24.71875,-32.25 C 167.71461,191.7998 152.23894,112.25678 99.59375,58 46.948558,112.25678 31.472886,191.7998 24.1875,234.1875 c -5.909154,34.38053 11.314366,35.70113 24.6875,32.25 16.653071,-4.29756 26.340709,6.96598 20.96875,24.15625 -5.371958,17.19026 -15.037058,32.24862 -3.21875,40.84375 11.818309,8.59513 17.39007,-0.5625 32.96875,-0.5625 z" id="path2890" style="fill:#d90033;stroke:none"/>
  <path d="M 99.46875,72.4375 C 55.983661,125.44488 41.687551,190.03664 35.125,228.21875 c -5.34359,31.09002 2.23168,30.99786 14.46875,28.5 29.5714,-6.03621 34.94112,21.69251 29.1875,38.3125 -5.3279,15.39022 -11.29385,21.64249 -4.34375,29.0625 3.38381,3.61261 10.535276,-2.125 24.96875,-2.125 14.43347,0 17.21587,5.64612 25.09375,2.125 6.9501,-7.42001 0.98415,-13.67228 -4.34375,-29.0625 -5.75362,-16.61999 -0.41515,-44.34871 29.15625,-38.3125 12.23707,2.49786 19.84359,2.59002 14.5,-28.5 C 157.24995,190.03664 142.95384,125.44488 99.46875,72.4375 z" id="path2916" style="fill:none;stroke:#000000;stroke-width:0.90429121px;stroke-linecap:butt;stroke-linejoin:miter"/>
  <path d="m 107.03906,222.96876 15.67969,-0.18751 0,-4.25 -13.28125,0 C 108.06883,169.90174 108.78428,83.710593 99.46875,75 90.153217,83.71059 90.868667,169.90174 89.5,218.53125 l -12.25,0 0,4.25 14.468758,-0.0625 c 0.456194,3.17603 1.031296,8.3367 -0.187508,13.68749 -1.612942,7.08114 -4.494238,18.93838 -1.84375,33.125 3.38334,18.10917 5.280233,23.07168 2.625,31.84375 -2.567703,8.4829 0.904054,14.06794 7.0625,14.0625 6.15845,-0.005 9.59616,-5.58882 7.03125,-14.0625 -2.65524,-8.77207 -0.75834,-13.73458 2.625,-31.84375 2.65049,-14.18662 -0.23081,-26.04386 -1.84375,-33.125 -1.19135,-5.23026 -0.59369,-10.26113 -0.14844,-13.43749 z" id="path2921" style="fill:#000000;stroke:none"/>
  <path d="m 91.962946,308.66028 14.639224,0 m -14.529155,-85.96417 15.134535,0 m -17.721165,-4.07257 19.702415,0 m -9.966748,-142.723581 0,142.746831" id="path2940" style="fill:none;stroke:#cccccc;stroke-width:1px;stroke-linecap:butt;stroke-linejoin:miter"/>
</svg>