<?xml version="1.0" encoding="UTF-8" standalone="no"?>
<!-- Created with Inkscape (http://www.inkscape.org/) -->

<svg
   xmlns:osb="http://www.openswatchbook.org/uri/2009/osb"
   xmlns:dc="http://purl.org/dc/elements/1.1/"
   xmlns:cc="http://creativecommons.org/ns#"
   xmlns:rdf="http://www.w3.org/1999/02/22-rdf-syntax-ns#"
   xmlns:svg="http://www.w3.org/2000/svg"
   xmlns="http://www.w3.org/2000/svg"
   xmlns:xlink="http://www.w3.org/1999/xlink"
   xmlns:sodipodi="http://sodipodi.sourceforge.net/DTD/sodipodi-0.dtd"
   xmlns:inkscape="http://www.inkscape.org/namespaces/inkscape"
   width="524.35284"
   height="147.55765"
   id="svg2"
   version="1.1"
   inkscape:version="0.48.4 r9939"
   sodipodi:docname="logo.svg">
  <sodipodi:namedview
     id="base"
     pagecolor="#ffffff"
     bordercolor="#666666"
     borderopacity="1.0"
     inkscape:pageopacity="0.0"
     inkscape:pageshadow="2"
     inkscape:zoom="2.1760157"
     inkscape:cx="262.17642"
     inkscape:cy="118.62062"
     inkscape:document-units="px"
     inkscape:current-layer="layer1"
     showgrid="false"
     inkscape:window-width="1301"
     inkscape:window-height="794"
     inkscape:window-x="1126"
     inkscape:window-y="766"
     inkscape:window-maximized="0"
     showborder="true"
     fit-margin-top="0"
     fit-margin-left="0"
     fit-margin-right="0"
     fit-margin-bottom="0" />
  <defs
     id="defs4">
    <linearGradient
       id="linearGradient5430">
      <stop
         style="stop-color:#ff0000;stop-opacity:1;"
         offset="0"
         id="stop5432" />
      <stop
         style="stop-color:#8fff00;stop-opacity:1;"
         offset="1"
         id="stop5434" />
    </linearGradient>
    <linearGradient
       osb:paint="solid"
       id="linearGradient5329">
      <stop
         id="stop5331"
         offset="0"
         style="stop-color:#000000;stop-opacity:1;" />
    </linearGradient>
    <linearGradient
       inkscape:collect="always"
       xlink:href="#linearGradient5430"
       id="linearGradient5436"
       x1="305"
       y1="31.647896"
       x2="305.71426"
       y2="100.21932"
       gradientUnits="userSpaceOnUse" />
    <linearGradient
       inkscape:collect="always"
       xlink:href="#linearGradient5430"
       id="linearGradient2999"
       gradientUnits="userSpaceOnUse"
       x1="305"
       y1="31.647896"
       x2="305.71426"
       y2="100.21932" />
    <linearGradient
       inkscape:collect="always"
       xlink:href="#linearGradient5430"
       id="linearGradient3001"
       gradientUnits="userSpaceOnUse"
       x1="305"
       y1="31.647896"
       x2="305.71426"
       y2="100.21932" />
    <linearGradient
       inkscape:collect="always"
       xlink:href="#linearGradient5430"
       id="linearGradient3003"
       gradientUnits="userSpaceOnUse"
       x1="305"
       y1="31.647896"
       x2="305.71426"
       y2="100.21932" />
    <linearGradient
       inkscape:collect="always"
       xlink:href="#linearGradient5430"
       id="linearGradient3005"
       gradientUnits="userSpaceOnUse"
       x1="305"
       y1="31.647896"
       x2="305.71426"
       y2="100.21932" />
    <linearGradient
       inkscape:collect="always"
       xlink:href="#linearGradient5430"
       id="linearGradient3007"
       gradientUnits="userSpaceOnUse"
       x1="305"
       y1="31.647896"
       x2="305.71426"
       y2="100.21932" />
    <linearGradient
       inkscape:collect="always"
       xlink:href="#linearGradient5430"
       id="linearGradient3009"
       gradientUnits="userSpaceOnUse"
       x1="305"
       y1="31.647896"
       x2="305.71426"
       y2="100.21932" />
    <linearGradient
       inkscape:collect="always"
       xlink:href="#linearGradient5430"
       id="linearGradient3011"
       gradientUnits="userSpaceOnUse"
       x1="305"
       y1="31.647896"
       x2="305.71426"
       y2="100.21932" />
    <linearGradient
       inkscape:collect="always"
       xlink:href="#linearGradient5430"
       id="linearGradient3013"
       gradientUnits="userSpaceOnUse"
       x1="305"
       y1="31.647896"
       x2="305.71426"
       y2="100.21932" />
    <linearGradient
       inkscape:collect="always"
       xlink:href="#linearGradient5430"
       id="linearGradient3015"
       gradientUnits="userSpaceOnUse"
       x1="305"
       y1="31.647896"
       x2="305.71426"
       y2="100.21932" />
    <linearGradient
       inkscape:collect="always"
       xlink:href="#linearGradient5430"
       id="linearGradient3017"
       gradientUnits="userSpaceOnUse"
       x1="305"
       y1="31.647896"
       x2="305.71426"
       y2="100.21932" />
  </defs>
  <metadata
     id="metadata7">
    <rdf:RDF>
      <cc:Work
         rdf:about="">
        <dc:format>image/svg+xml</dc:format>
        <dc:type
           rdf:resource="http://purl.org/dc/dcmitype/StillImage" />
        <dc:title />
      </cc:Work>
    </rdf:RDF>
  </metadata>
  <g
     inkscape:label="Layer 1"
     inkscape:groupmode="layer"
     id="layer1"
     transform="translate(-47.142857,-43.505114)">
    <g
       id="g5372"
       style="fill:url(#linearGradient5436);fill-opacity:1">
      <g
         id="text2993"
         style="font-size:118.23743439px;font-style:normal;font-weight:normal;line-height:125%;letter-spacing:0px;word-spacing:0px;fill:url(#linearGradient3017);fill-opacity:1;stroke:none;font-family:Bitstream Vera Sans"
         transform="scale(0.65754516,1.5208081)">
        <path
           id="path3002"
           style="font-variant:normal;font-weight:bold;font-stretch:normal;fill:url(#linearGradient2999);fill-opacity:1;font-family:Tekton Pro Ext;-inkscape-font-specification:Tekton Pro Ext Bold"
           d="m 115.84368,46.574545 c 0,0 25.07344,-5.793994 25.07344,-5.793994 0.4673,0.232092 1.00217,0.428329 1.60458,0.588728 0.60227,0.159433 1.34707,0.217635 2.23441,0.175377 2.09688,-0.178853 3.66147,-0.877973 4.69377,-2.089428 1.03215,-1.1996 1.54701,-2.588652 1.5446,-4.175972 0.005,-1.695489 -0.51494,-3.103308 -1.5596,-4.232341 -1.04479,-1.14063 -2.64438,-1.737611 -4.79873,-1.782842 -0.71989,0.0077 -1.40971,0.08429 -2.06946,0.230381 -0.6599,0.147169 -1.28974,0.318277 -1.88951,0.513459 0,0 -26.753,4.840374 -26.753,4.840374 -1.15723,-0.764872 -2.77181,-1.009026 -4.84373,-0.723599 -2.07199,0.289793 -3.77655,1.235546 -5.11366,2.846835 0,0 -22.554095,5.456532 -22.554095,5.456532 -0.512379,-0.388864 -1.047239,-0.728604 -1.604583,-1.019019 -0.557363,-0.291515 -1.302166,-0.426226 -2.234413,-0.403253 -1.662073,0.138408 -3.04671,1.078702 -4.153915,2.830363 -1.107211,1.765329 -1.68206,3.920437 -1.724545,6.455793 0.01749,2.640788 0.582345,4.615157 1.694557,5.914992 1.112204,1.288844 2.666796,1.832004 4.663778,1.637704 0.664816,-0.07578 1.314645,-0.289793 1.94949,-0.641182 0.634825,-0.349902 1.22467,-0.793235 1.769536,-1.329543 0,0 20.75456,-6.132769 20.75456,-6.132769 0,0 0,65.672879 0,65.672879 -0.23996,0.68957 -0.41991,1.51501 -0.53985,2.47612 -0.12001,0.96202 -0.17999,1.93077 -0.17995,2.9056 0.0125,2.32396 0.55732,3.80338 1.63457,4.4317 1.07718,0.61939 2.61178,0.52724 4.6038,-0.26947 3.15163,-1.27605 5.42603,-2.84662 6.8232,-4.70088 1.39709,-1.83879 2.08191,-3.76814 2.05447,-5.79993 -0.0225,-0.81618 -0.15751,-1.46339 -0.40489,-1.9424 -0.24748,-0.48015 -0.47242,-0.8569 -0.67483,-1.12981 0,0 0,-64.810405 0,-64.810405"
           inkscape:connector-curvature="0" />
        <path
           id="path3004"
           style="font-variant:normal;font-weight:bold;font-stretch:normal;fill:url(#linearGradient3001);fill-opacity:1;font-family:Tekton Pro Ext;-inkscape-font-specification:Tekton Pro Ext Bold"
           d="m 171.22229,72.34346 c 0,0 37.33344,-7.039933 37.33344,-7.039933 0.56761,0.190743 1.19587,0.320109 1.88478,0.388286 0.68879,0.06772 1.37653,0.06859 2.06324,0.003 2.19557,-0.216069 3.97665,-0.820269 5.34322,-1.807486 1.36645,-0.980332 2.05708,-2.317744 2.07192,-4.017031 -0.0634,-1.460759 -0.77657,-2.672244 -2.13961,-3.640463 -1.36318,-0.976461 -3.14042,-1.419317 -5.33173,-1.322809 -0.87098,0.06907 -1.73959,0.277155 -2.60584,0.625259 -0.86637,0.349612 -1.6699,0.775389 -2.41057,1.277679 0,0 -36.35284,5.851892 -36.35284,5.851892 0,0 -0.25917,-17.426921 -0.25917,-17.426921 0,0 44.35586,-3.884096 44.35586,-3.884096 1.3431,0.610391 2.98811,0.874509 4.93503,0.796235 2.30778,-0.103191 4.1375,-0.73115 5.48914,-1.877455 1.35149,-1.137226 2.02808,-2.613971 2.02977,-4.436696 -0.0209,-1.197383 -0.65412,-2.246658 -1.89964,-3.152833 -1.24566,-0.91273 -3.09863,-1.395326 -5.5589,-1.44331 -0.87099,0.01011 -1.7396,0.156012 -2.60584,0.438718 -0.86638,0.284253 -1.6699,0.64699 -2.41057,1.088562 0,0 -44.48044,2.681678 -44.48044,2.681678 0.0473,-1.12101 -0.55657,-2.103642 -1.81178,-2.952218 -1.25525,-0.853831 -3.17316,-1.305273 -5.75374,-1.350727 -2.08777,0.01844 -3.83983,0.396693 -5.25619,1.138527 -1.41638,0.747194 -2.14509,1.74637 -2.18615,2.993888 0.005,0.381668 0.0716,0.706691 0.19847,0.974949 0.12683,0.268231 0.31517,0.535378 0.56499,0.80132 -0.5655,0.415393 -1.04315,1.060999 -1.43294,1.937249 -0.38981,0.878095 -0.58556,1.886388 -0.58725,3.02367 0.025,1.076 0.22413,2.055295 0.65707,2.934724 0.43292,0.87771 1.14026,1.582552 2.12199,2.113864 0,0 0.23997,16.697402 0.23997,16.697402 -0.51013,0.557105 -0.97073,1.348782 -1.38182,2.375603 -0.4111,1.02897 -0.62016,2.195672 -0.62717,3.498682 0.0139,1.333888 0.19376,2.427016 0.53949,3.2783 0.34573,0.849902 0.88888,1.509707 1.62949,1.979017 0,0 0.28957,20.148199 0.28957,20.148199 -0.48584,0.85839 -0.86326,1.757112 -1.13227,2.695664 -0.26903,0.939812 -0.39891,1.913484 -0.38962,2.920131 0.10535,2.15917 0.93285,3.62069 2.4824,4.37931 1.54952,0.75079 3.37593,0.92399 5.47924,0.52555 1.92118,-0.37818 3.5472,-0.91223 4.87809,-1.60013 1.33085,-0.68493 2.2761,-1.3843 2.83579,-2.09905 0,0 50.99176,-11.730667 50.99176,-11.730667 3.4501,-0.49631 6.04802,-1.238158 7.79377,-2.218655 1.74557,-0.973311 2.60264,-2.496032 2.57118,-4.573483 -0.0548,-1.059149 -0.76961,-1.973026 -2.14458,-2.747449 -1.37514,-0.782381 -3.18798,-1.04887 -5.43853,-0.794161 -0.97843,0.160256 -1.81583,0.452065 -2.51221,0.876356 -0.69653,0.425667 -1.28477,0.871931 -1.76475,1.33864 0,0 -50.00955,10.234351 -50.00955,10.234351 0,0 -0.29597,-19.901115 -0.29597,-19.901115"
           inkscape:connector-curvature="0" />
        <path
           id="path3006"
           style="font-variant:normal;font-weight:bold;font-stretch:normal;fill:url(#linearGradient3003);fill-opacity:1;font-family:Tekton Pro Ext;-inkscape-font-specification:Tekton Pro Ext Bold"
           d="m 289.87632,31.612448 c -9.02098,0.0835 -17.29436,1.223295 -24.82516,3.451734 -7.53782,2.273759 -13.60588,5.14065 -18.20368,8.597508 -4.60415,3.497935 -7.00083,7.025086 -7.18542,10.551565 0.0117,4.067086 1.68552,6.911707 5.02308,8.522973 3.33994,1.595879 7.82649,2.24178 13.45782,1.949765 3.38303,-0.160799 6.98735,-0.538697 10.81244,-1.130478 3.82434,-0.587331 7.82282,-1.317354 11.99504,-2.187372 4.12572,-0.860152 8.06086,-1.567642 11.80587,-2.125171 3.74422,-0.553156 7.52422,-0.905794 11.3405,-1.061064 3.67065,-0.163303 6.41405,0.0675 8.23067,0.689484 1.81701,0.618406 2.72186,1.769883 2.71412,3.457175 0.0394,1.84296 -0.56902,3.498836 -1.82566,4.971636 -1.25759,1.477947 -3.43648,2.96598 -6.53745,4.469114 -5.0448,2.634994 -11.06579,4.842381 -18.06212,6.616474 -7.00043,1.800029 -13.77783,2.94282 -20.32928,3.409231 -3.29225,0.239937 -5.96099,0.191291 -8.00591,-0.14801 -2.04457,-0.34191 -3.6753,-1.061162 -4.89207,-2.158689 -0.88319,-0.996678 -1.87713,-2.127606 -2.98165,-3.393887 -1.10395,-1.270236 -2.73788,-1.908037 -4.90217,-1.910952 -2.44084,0.151944 -4.36191,0.769003 -5.76362,1.853845 -1.40228,1.088516 -2.13262,2.545994 -2.1906,4.369795 -0.14318,1.940507 1.93814,4.094668 6.24752,6.439403 4.31403,2.314489 11.53632,3.194921 21.66421,2.658803 9.57596,-0.730383 18.91051,-2.364237 27.9983,-4.866827 9.08058,-2.456625 16.80394,-5.765112 23.16748,-9.908553 3.35019,-2.086606 5.93528,-4.24683 7.75608,-6.485867 1.81884,-2.227566 2.73897,-4.645378 2.76168,-7.261884 -0.18576,-3.797172 -2.61275,-6.482614 -7.27847,-8.072716 -4.66221,-1.613968 -10.45116,-2.321454 -17.36971,-2.104097 -4.04557,0.125059 -8.13016,0.460495 -12.25434,1.00998 -4.12509,0.5546 -8.18447,1.239921 -12.17846,2.057966 -4.16858,0.861808 -7.88501,1.538671 -11.14873,2.02684 -3.2643,0.491625 -6.01493,0.777443 -8.2515,0.854917 -1.91846,0.08514 -3.52397,-0.143739 -4.81631,-0.688239 -1.29208,-0.546478 -1.95312,-1.541419 -1.98336,-2.983442 0.30135,-3.137335 3.80584,-6.216345 10.50774,-9.200061 6.69392,-2.932212 15.05214,-4.531699 25.07999,-4.832933 3.63486,-0.02217 6.7062,0.165433 9.21437,0.560665 2.5085,0.392306 4.22968,0.90029 5.16339,1.524935 0.15336,0.724074 0.85501,1.330607 2.10511,1.818476 1.25024,0.486129 3.18473,0.71685 5.80326,0.693409 1.99836,-0.07392 3.55512,-0.470883 4.67006,-1.189362 1.11441,-0.71612 1.6814,-1.518797 1.70119,-2.4097 -0.20969,-2.088465 -2.98129,-3.973914 -8.31185,-5.675484 -5.32658,-1.728292 -11.92652,-2.654703 -19.80268,-2.760905 0,0 -0.11972,0 -0.11972,0"
           inkscape:connector-curvature="0" />
        <path
           id="path3008"
           style="font-variant:normal;font-weight:bold;font-stretch:normal;fill:url(#linearGradient3005);fill-opacity:1;font-family:Tekton Pro Ext;-inkscape-font-specification:Tekton Pro Ext Bold"
           d="m 377.76319,38.534441 c 0,0 25.76037,-2.679248 25.76037,-2.679248 0.48012,0.154674 1.02962,0.289666 1.64855,0.404978 0.61877,0.115248 1.38398,0.172382 2.29563,0.171507 2.15432,-0.05142 3.76177,-0.44685 4.82237,-1.185225 1.06042,-0.73669 1.58939,-1.609941 1.58691,-2.620958 0.005,-1.079811 -0.52905,-1.98022 -1.60232,-2.70244 -1.07343,-0.723725 -2.71683,-1.100312 -4.93021,-1.128658 -0.73961,0.0048 -1.44833,0.05212 -2.12617,0.142109 -0.67798,0.09021 -1.32506,0.19472 -1.94126,0.313541 0,0 -27.48596,2.667282 -27.48596,2.667282 -1.18895,-0.437573 -2.84776,-0.586479 -4.97644,-0.445511 -2.12876,0.141638 -3.88002,0.64204 -5.25376,1.502513 0,0 -23.17202,2.515159 -23.17202,2.515159 -0.52641,-0.206732 -1.07592,-0.388352 -1.64854,-0.544831 -0.57263,-0.156561 -1.33784,-0.236426 -2.29563,-0.239477 -1.70761,0.0435 -3.13018,0.491508 -4.26772,1.345297 -1.13755,0.85572 -1.72815,1.912149 -1.77178,3.167988 0.0179,1.309638 0.59829,2.306982 1.74097,2.990928 1.14268,0.682507 2.73985,1.012398 4.79155,0.990794 0.68303,-0.01278 1.35066,-0.09606 2.00291,-0.249783 0.65221,-0.153458 1.25822,-0.356584 1.81801,-0.609314 0,0 21.32319,-2.4893 21.32319,-2.4893 0,0 0,35.462645 0,35.462645 -0.24654,0.338792 -0.43143,0.758833 -0.55465,1.260095 -0.12329,0.501391 -0.18492,1.014772 -0.18488,1.540044 0.0128,1.254101 0.57259,2.134755 1.67935,2.641068 1.1067,0.505099 2.68334,0.699158 4.72992,0.583135 3.23799,-0.192431 5.5747,-0.694421 7.01016,-1.504433 1.43536,-0.807898 2.13894,-1.786804 2.11075,-2.938341 -0.0232,-0.464278 -0.16182,-0.850176 -0.416,-1.157796 -0.25425,-0.307764 -0.48536,-0.553464 -0.6933,-0.737045 0,0 0,-36.466723 0,-36.466723"
           inkscape:connector-curvature="0" />
        <path
           id="path3010"
           style="font-variant:normal;font-weight:bold;font-stretch:normal;fill:url(#linearGradient3007);fill-opacity:1;font-family:Tekton Pro Ext;-inkscape-font-specification:Tekton Pro Ext Bold"
           d="m 467.70666,31.449491 c -8.90789,0.115395 -17.0647,1.671437 -24.47046,4.66813 -7.40582,2.996838 -13.34681,6.74243 -17.82297,11.236788 -4.47619,4.49448 -6.77376,9.045829 -6.89271,13.65406 0.0837,5.32312 1.77845,9.131297 5.08414,11.424542 3.30567,2.293317 7.7198,3.411632 13.24242,3.354947 3.31797,-0.01475 6.85027,-0.310336 10.5969,-0.886771 3.74656,-0.576369 7.66312,-1.344901 11.74969,-2.305599 4.04214,-0.960629 7.89958,-1.729162 11.57234,-2.305602 3.67264,-0.576363 7.38229,-0.871952 11.12895,-0.886768 3.60366,-0.03445 6.29845,0.44835 8.08438,1.44839 1.78578,1.000116 2.67747,2.724388 2.67509,5.172822 0.0443,2.677579 -0.54692,5.037369 -1.77354,7.079376 -1.22677,2.042057 -3.35502,4.01758 -6.38474,5.926574 -4.9241,3.340181 -10.8014,5.941368 -17.63193,7.80357 -6.83063,1.862225 -13.44691,2.808111 -19.84885,2.837662 -3.21704,0.02218 -5.82808,-0.288191 -7.83313,-0.931107 -2.00511,-0.642897 -3.61114,-1.751358 -4.81811,-3.325386 -0.8794,-1.406502 -1.86963,-2.99776 -2.97068,-4.773777 -1.10109,-1.775983 -2.71205,-2.746501 -4.83289,-2.911557 -2.38937,0.01973 -4.26143,0.68973 -5.61621,2.01001 -1.35479,1.320317 -2.0445,3.172678 -2.06913,5.557088 -0.10592,2.529765 1.96813,5.539847 6.22217,9.030267 4.25402,3.49042 11.32353,5.40683 21.20857,5.74922 9.34305,0.0246 18.44228,-1.23655 27.29771,-3.78355 8.85531,-2.54699 16.38791,-6.527597 22.59784,-11.941824 3.27357,-2.751433 5.80086,-5.702402 7.58188,-8.852915 1.78083,-3.150467 2.68238,-6.663055 2.70464,-10.537775 -0.18237,-5.635872 -2.56679,-9.734713 -7.15327,-12.296535 -4.58665,-2.561729 -10.28167,-3.822911 -17.08509,-3.783549 -3.97821,0.01976 -7.9933,0.335052 -12.04528,0.945888 -4.0521,0.610932 -8.03763,1.39917 -11.95661,2.364718 -4.08903,1.007511 -7.73464,1.771116 -10.93682,2.290818 -3.20226,0.519789 -5.90197,0.780894 -8.09916,0.783316 -1.88441,0.02714 -3.46581,-0.352202 -4.74422,-1.138022 -1.27844,-0.785731 -1.94352,-2.140516 -1.99523,-4.064359 0.24877,-4.17269 3.65298,-8.182854 10.21263,-12.030505 6.55959,-3.847531 14.78191,-5.906804 24.66697,-6.177825 3.58397,0.02224 6.61376,0.332605 9.08938,0.931109 2.4755,0.598635 4.17514,1.352387 5.09893,2.261261 0.15511,1.037087 0.84975,1.918928 2.08391,2.645525 1.23401,0.726719 3.14056,1.106059 5.71966,1.138024 1.96805,-0.0566 3.50019,-0.593583 4.59642,-1.610965 1.09606,-1.01726 1.65275,-2.174985 1.67008,-3.473179 -0.21192,-3.046971 -2.95105,-5.820587 -8.2174,-8.320855 -5.26649,-2.500123 -11.78917,-3.825349 -19.56804,-3.97568 z"
           inkscape:connector-curvature="0" />
        <path
           id="path3012"
           style="font-variant:normal;font-weight:bold;font-stretch:normal;fill:url(#linearGradient3009);fill-opacity:1;font-family:Tekton Pro Ext;-inkscape-font-specification:Tekton Pro Ext Bold"
           d="m 563.46609,30.740075 c -9.17355,0.18327 -17.24569,2.628269 -24.21647,7.335003 -6.97083,4.706875 -12.42427,10.576333 -16.36035,17.608393 -3.93609,7.032165 -5.9388,14.127773 -6.00813,21.286846 0.1404,11.222579 3.19975,19.607468 9.17806,25.154693 5.97829,5.54723 14.0331,8.31592 24.16447,8.30607 7.38723,-0.0887 14.54542,-1.74398 21.47459,-4.96591 6.92905,-3.22192 12.57974,-6.768995 16.95208,-10.64123 1.50743,-1.473009 2.54199,-2.783457 3.10369,-3.931346 0.56154,-1.147855 0.82757,-2.162712 0.79809,-3.044573 -0.005,-1.039469 -0.64545,-2.123297 -1.92133,-3.25149 -1.27604,-1.128144 -3.15796,-1.739029 -5.64577,-1.832654 -2.44854,0.07146 -4.23193,0.726685 -5.35018,1.965674 -1.11838,1.239037 -1.77853,2.633233 -1.98044,4.182593 -2.57663,2.724369 -6.14341,5.167909 -10.70035,7.330627 -4.55706,2.162742 -9.54267,3.305688 -14.95685,3.428841 -5.94385,-0.0049 -11.08218,-1.82772 -15.41501,-5.468413 -4.33287,-3.640664 -6.60398,-9.069657 -6.81334,-16.286995 0.2069,-9.710086 3.57662,-18.193505 10.10917,-25.450283 6.5325,-7.256667 14.98636,-11.069771 25.36161,-11.439321 3.97562,0.03702 7.28622,0.495181 9.93181,1.374495 2.64547,0.879445 4.18253,1.958345 4.6112,3.236705 0.45317,1.650438 1.17244,2.872208 2.15781,3.665313 0.98523,0.793224 2.35479,1.187344 4.1087,1.18236 2.27596,-0.04428 4.07906,-0.63546 5.40929,-1.773539 1.33007,-1.13796 2.00993,-2.55679 2.03957,-4.256493 -0.29321,-4.037196 -3.37227,-7.313313 -9.23718,-9.828361 -5.86507,-2.514901 -12.75723,-3.810568 -20.67651,-3.887005 z"
           inkscape:connector-curvature="0" />
        <path
           id="path3014"
           style="font-variant:normal;font-weight:bold;font-stretch:normal;fill:url(#linearGradient3011);fill-opacity:1;font-family:Tekton Pro Ext;-inkscape-font-specification:Tekton Pro Ext Bold"
           d="m 655.71896,28.611829 c -9.35236,0.18984 -17.94708,2.831899 -25.78419,7.926184 -7.83716,5.094429 -14.13724,11.502516 -18.90023,19.224282 -4.76301,7.721871 -7.20947,15.618855 -7.33938,23.690976 -0.0577,4.514153 0.96413,9.135566 3.06538,13.864253 2.10123,4.728717 5.62787,8.728296 10.57992,11.998756 4.95202,3.27046 11.6754,4.97539 20.17017,5.1148 9.92958,-0.0781 18.91988,-2.06329 26.97093,-5.95559 8.05091,-3.89229 14.4663,-9.223119 19.24617,-15.992502 4.77971,-6.769343 7.22763,-14.508677 7.34377,-23.218026 -0.33017,-13.217735 -3.92651,-22.666746 -10.78903,-28.347062 -6.86268,-5.680173 -15.0111,-8.448861 -24.44527,-8.306071 z m -0.70941,10.168288 c 6.87979,-0.01471 12.30385,2.202212 16.27221,6.65077 3.96822,4.448684 5.993,11.217683 6.07437,20.307018 -0.11539,6.828523 -1.97359,12.824975 -5.5746,17.989374 -3.60116,5.164447 -8.25323,9.199061 -13.95622,12.103854 -5.70311,2.904818 -11.76525,4.382037 -18.18643,4.431657 -7.90953,-0.23154 -13.60948,-2.546987 -17.09987,-6.946358 -3.49045,-4.399342 -5.19994,-9.493334 -5.12848,-15.281992 0.11675,-6.030726 1.97203,-12.033018 5.56584,-18.006893 3.59376,-5.97378 8.22539,-10.968877 13.89491,-14.985308 5.66944,-4.016305 11.67611,-6.103676 18.02003,-6.262122 z"
           inkscape:connector-curvature="0" />
        <path
           id="path3016"
           style="font-variant:normal;font-weight:bold;font-stretch:normal;fill:url(#linearGradient3013);fill-opacity:1;font-family:Tekton Pro Ext;-inkscape-font-specification:Tekton Pro Ext Bold"
           d="m 704.5941,102.50927 c -0.005,1.97307 0.56654,3.52491 1.71442,4.65554 1.14786,1.13063 2.90169,1.70703 5.2615,1.7292 2.32529,0.0788 4.32544,-0.40397 6.00047,-1.44839 1.67499,-1.04442 2.5519,-2.76869 2.63075,-5.17282 -0.0222,-0.71926 -0.15521,-1.37941 -0.39905,-1.98045 -0.24388,-0.601024 -0.46558,-1.08382 -0.66507,-1.448389 l 0,-20.927757 56.51676,28.967796 c 0.54676,0.94589 1.31529,1.65531 2.3056,2.12825 0.99014,0.47294 2.11338,0.70941 3.36973,0.70941 1.96065,0.002 3.65537,-0.59364 5.08414,-1.78832 1.42859,-1.19467 2.17742,-3.00269 2.24648,-5.42407 -0.11586,-2.11346 -1.06668,-3.680081 -2.85244,-4.699875 -1.78595,-1.019774 -3.7122,-1.226686 -5.77878,-0.620737 L 729.54188,71.294993 c 14.37793,-1.844933 25.96996,-4.835314 34.77613,-8.971151 8.80604,-4.135745 13.33348,-10.05246 13.58235,-17.750165 -0.13063,-4.029806 -2.11601,-7.084231 -5.95613,-9.163285 -3.84028,-2.078908 -8.75199,-3.123324 -14.73515,-3.13325 -5.96851,-0.01224 -12.1217,0.603574 -18.45959,1.847439 -6.33797,1.244013 -12.87542,3.189976 -19.61237,5.837895 l 0,-1.300595 c 0.66505,-2.357258 0.39902,-4.293369 -0.7981,-5.80834 -1.19716,-1.514819 -3.05937,-2.298131 -5.58664,-2.349938 -2.02235,7.8e-5 -3.77125,0.532139 -5.24673,1.596183 -1.47549,1.064198 -2.24895,2.660381 -2.32037,4.788557 0.01,0.603567 0.10837,1.229231 0.29559,1.876996 0.18719,0.647903 0.40396,1.244008 0.6503,1.788317 l 0,2.837662 c -1.15528,0.463155 -2.1258,1.280954 -2.91157,2.453397 -0.78578,1.172568 -1.19468,2.758897 -1.22669,4.758993 0.0271,1.561757 0.32761,2.813086 0.90155,3.753991 0.57393,0.941013 1.25871,1.423809 2.05435,1.44839 0.28572,5.2e-5 0.51234,-0.02951 0.67985,-0.08868 0.16749,-0.05907 0.335,-0.147743 0.50251,-0.266031 l 0,42.919636 c -0.37443,0.500051 -0.71928,1.125715 -1.03457,1.876996 -0.31531,0.7513 -0.48281,1.46564 -0.5025,2.14303 z m 14.54302,-52.614977 c 6.9414,-2.741534 13.30642,-4.677645 19.09509,-5.80834 5.78859,-1.130566 10.85302,-1.677407 15.19332,-1.640522 3.39676,0.01731 6.03243,0.426207 7.90703,1.226696 1.87446,0.800619 2.82527,1.889374 2.85244,3.266268 -0.36217,4.153093 -4.84035,7.788843 -13.43456,10.907261 -8.59432,3.11852 -19.13208,5.631031 -31.61332,7.537541 z"
           inkscape:connector-curvature="0" />
        <path
           id="path3018"
           style="font-variant:normal;font-weight:bold;font-stretch:normal;fill:url(#linearGradient3015);fill-opacity:1;font-family:Tekton Pro Ext;-inkscape-font-specification:Tekton Pro Ext Bold"
           d="m 809.66263,76.142665 35.94372,-3.783549 c 0.54185,0.298089 1.14288,0.529634 1.80309,0.694635 0.66009,0.165073 1.32024,0.248823 1.98045,0.251253 2.11094,3.5e-5 3.83029,-0.532027 5.15804,-1.596187 1.32762,-1.064087 2.01241,-2.660269 2.05436,-4.788553 -0.037,-1.83754 -0.7021,-3.423872 -1.99523,-4.758999 -1.29328,-1.335034 -2.99292,-2.034595 -5.09893,-2.098684 -0.83757,0.01236 -1.67507,0.194646 -2.51252,0.546844 -0.83756,0.352293 -1.61595,0.800603 -2.33515,1.344931 l -34.99783,3.547077 0,-19.154217 42.68316,-2.837662 c 1.28082,0.808008 2.8573,1.202127 4.72944,1.182359 2.21931,-0.03689 3.98792,-0.761081 5.30583,-2.172586 1.31776,-1.411373 1.99269,-3.288366 2.0248,-5.630984 -8e-5,-1.539459 -0.59126,-2.894245 -1.77354,-4.064362 -1.18244,-1.169967 -2.95597,-1.785778 -5.32062,-1.847434 -0.83758,0.01239 -1.67508,0.194675 -2.51252,0.546844 -0.83757,0.352322 -1.61595,0.800632 -2.33515,1.344931 l -42.8014,2.719426 c 0.0616,-1.23155 -0.50499,-2.315379 -1.69965,-3.25149 -1.19469,-0.935959 -3.03227,-1.428607 -5.51274,-1.477947 -2.00756,0.01978 -3.69735,0.423757 -5.06937,1.211918 -1.37204,0.788314 -2.08638,1.842583 -2.14302,3.162811 -10e-6,0.404047 0.0591,0.748902 0.17735,1.034566 0.11822,0.285808 0.29558,0.571544 0.53206,0.857208 -0.54931,0.431139 -1.01733,1.106068 -1.40405,2.02479 -0.38674,0.91886 -0.58872,1.978056 -0.60596,3.177591 -0.01,1.135621 0.1872,2.17511 0.59118,3.118471 0.40397,0.943486 1.07397,1.716945 2.01001,2.320381 l 0,17.735386 c -0.49758,0.546882 -0.95082,1.344973 -1.35971,2.394276 -0.40891,1.049384 -0.62568,2.261301 -0.6503,3.635756 -0.005,1.409014 0.15272,2.581519 0.47294,3.51752 0.32022,0.936067 0.83257,1.694746 1.53707,2.27604 l 0,21.4007 c -0.47788,0.827657 -0.85229,1.714425 -1.12324,2.660305 -0.27097,0.9459 -0.40891,1.9509 -0.41383,3.01502 0.0714,2.29821 0.84489,3.99785 2.32039,5.09892 1.47547,1.10107 3.22437,1.64791 5.24671,1.64053 1.84742,-0.0222 3.41405,-0.27343 4.69988,-0.75376 1.2858,-0.48034 2.20212,-1.05673 2.74899,-1.7292 l 49.0679,-3.19237 c 3.31546,0.12809 5.81811,-0.24632 7.50798,-1.12324 1.6897,-0.87691 2.53706,-2.67015 2.54207,-5.379734 -0.0346,-1.389263 -0.70457,-2.719416 -2.01001,-3.990463 -1.3056,-1.271021 -3.03973,-1.950876 -5.20238,-2.039568 -0.94103,0.02465 -1.74898,0.241411 -2.42384,0.650296 -0.675,0.408914 -1.24647,0.862151 -1.71442,1.359714 l -48.12201,3.074134 z"
           inkscape:connector-curvature="0" />
      </g>
    </g>
  </g>
</svg>
